{"glyphs":{"0":{"ha":853,"x_min":0,"x_max":0,"o":"m 338 -20 b 76 293 133 -20 42 101 l 147 695 b 516 1006 180 886 315 1006 b 777 693 718 1006 811 884 l 706 292 b 338 -20 672 99 537 -20 m 341 18 b 666 293 519 18 636 123 l 737 695 b 513 968 767 864 687 968 b 187 693 334 968 216 862 l 116 292 b 341 18 86 121 165 18 "},"1":{"ha":533,"x_min":0,"x_max":0,"o":"m 260 0 b 250 11 251 0 249 3 l 414 937 l 146 798 b 132 802 140 795 135 795 l 126 818 b 131 832 123 824 125 828 l 419 981 b 436 986 425 984 427 986 l 451 986 b 460 974 459 986 461 983 l 290 10 b 278 0 288 2 286 0 l 260 0 "},"2":{"ha":801,"x_min":0,"x_max":0,"o":"m 25 0 b 15 13 17 0 15 5 l 36 126 b 361 439 68 311 211 379 b 706 777 560 516 706 558 b 510 968 706 894 633 968 b 189 771 361 968 262 904 b 176 767 186 765 181 765 l 158 774 b 154 789 151 776 149 781 b 511 1006 234 936 345 1006 b 746 780 660 1006 746 916 b 382 407 746 536 593 490 b 77 122 237 351 107 287 b 61 38 72 94 66 66 l 608 38 b 618 26 617 38 620 34 l 615 10 b 604 0 613 3 612 0 l 25 0 "},"3":{"ha":810,"x_min":0,"x_max":0,"o":"m 330 -20 b 52 233 130 -20 65 71 b 60 246 51 241 53 243 l 77 250 b 89 240 85 253 88 250 b 330 18 99 95 158 18 b 638 321 522 18 638 138 b 472 490 638 419 583 490 l 247 490 b 238 502 239 490 236 494 l 241 517 b 253 527 242 525 245 527 l 473 527 b 695 796 615 527 695 652 b 501 968 695 906 631 968 b 187 747 342 968 253 900 b 173 744 184 741 180 741 l 158 748 b 153 765 151 751 149 755 b 504 1006 220 919 315 1006 b 736 800 658 1006 736 929 b 557 511 736 664 671 548 b 677 324 635 485 677 414 b 330 -20 677 117 544 -20 "},"4":{"ha":815,"x_min":0,"x_max":0,"o":"m 482 0 b 472 11 474 0 470 3 l 523 301 l 39 301 b 29 312 31 301 29 303 l 31 324 b 38 339 31 331 34 334 l 636 996 b 653 1003 641 1002 645 1003 l 675 1003 b 684 989 684 1003 686 999 l 568 337 l 711 337 b 720 326 719 337 721 334 l 718 311 b 706 301 716 303 714 301 l 562 301 l 511 11 b 500 0 509 3 508 0 l 482 0 m 529 337 l 637 945 l 83 337 "},"5":{"ha":793,"x_min":0,"x_max":0,"o":"m 320 -20 b 36 198 142 -20 60 58 b 41 209 35 204 35 207 l 60 215 b 73 206 67 218 72 217 b 322 18 91 86 168 18 b 634 347 503 18 634 162 b 409 538 634 470 581 538 l 149 538 b 137 556 137 538 134 544 l 248 965 b 272 986 252 982 256 986 l 743 986 b 752 974 751 986 753 982 l 749 959 b 738 948 748 950 746 948 l 282 948 l 182 576 l 414 576 b 674 350 612 576 674 492 b 320 -20 674 134 520 -20 "},"6":{"ha":840,"x_min":0,"x_max":0,"o":"m 340 -20 b 71 232 161 -20 71 75 b 140 666 71 291 82 339 b 516 1006 180 891 310 1006 b 786 796 680 1006 762 932 b 779 785 787 790 786 787 l 759 780 b 749 789 751 777 750 781 b 515 968 726 907 655 968 b 181 665 332 968 215 866 l 151 498 b 449 557 195 516 299 557 b 714 348 630 557 714 489 b 340 -20 714 126 569 -20 m 341 18 b 673 342 550 18 673 150 b 445 520 673 462 599 520 b 145 459 287 520 181 474 b 112 239 117 306 112 278 b 341 18 112 99 189 18 "},"7":{"ha":692,"x_min":0,"x_max":0,"o":"m 150 0 b 145 11 142 0 142 5 l 687 948 l 157 948 b 147 960 149 948 145 952 l 150 976 b 162 986 152 984 154 986 l 728 986 b 738 976 736 986 739 984 l 736 962 b 729 947 734 955 732 953 l 189 10 b 170 0 184 1 181 0 l 150 0 "},"8":{"ha":835,"x_min":0,"x_max":0,"o":"m 326 -20 b 45 192 140 -20 45 51 b 346 511 45 341 159 464 b 166 735 225 558 166 626 b 505 1006 167 901 295 1006 b 767 800 676 1006 767 933 b 496 499 767 656 663 542 b 697 263 636 444 697 377 b 326 -20 697 88 557 -20 m 445 516 b 727 792 613 545 727 654 b 504 970 727 908 651 970 b 207 740 322 970 207 879 b 445 516 207 626 282 556 m 331 17 b 656 258 524 17 656 108 b 398 490 656 376 580 440 b 86 197 215 460 86 341 b 331 17 86 77 173 17 "},"9":{"ha":840,"x_min":0,"x_max":0,"o":"m 325 -20 b 55 190 166 -20 80 49 b 62 201 54 196 54 199 l 81 206 b 93 197 88 209 92 205 b 326 18 116 75 191 18 b 660 317 511 18 626 120 l 690 488 b 393 429 606 452 496 429 b 126 646 213 429 126 504 b 496 1006 126 869 268 1006 b 769 754 670 1006 769 915 b 699 317 769 694 760 646 b 325 -20 658 93 532 -20 m 397 466 b 696 527 555 466 660 512 b 729 751 726 684 729 709 b 497 968 729 891 647 968 b 168 652 291 968 168 849 b 397 466 168 529 242 466 "}," ":{"ha":347,"x_min":0,"x_max":0,"o":""},"!":{"ha":296,"x_min":0,"x_max":0,"o":"m 92 194 b 82 205 84 194 82 197 l 220 1018 b 230 1028 221 1026 222 1028 l 251 1028 b 261 1017 259 1028 263 1024 l 112 203 b 101 194 110 195 109 194 l 92 194 m 57 -9 b 33 22 35 -9 28 -3 l 34 28 b 66 57 40 50 46 57 l 74 57 b 98 27 96 57 102 47 l 97 20 b 65 -9 91 -2 85 -9 l 57 -9 "},"\"":{"ha":397,"x_min":0,"x_max":0,"o":"m 162 681 b 154 692 154 681 152 684 l 204 977 b 215 986 206 985 208 986 l 234 986 b 243 976 242 986 244 983 l 182 690 b 171 681 181 683 178 681 l 162 681 m 284 681 b 276 692 276 681 274 684 l 326 977 b 337 986 328 985 330 986 l 357 986 b 365 976 364 986 366 983 l 304 690 b 293 681 303 683 300 681 l 284 681 "},"#":{"ha":900,"x_min":0,"x_max":0,"o":"m 86 0 b 79 11 79 0 76 3 l 205 291 l 50 291 b 43 302 43 291 39 294 l 51 317 b 65 326 55 324 56 326 l 221 326 l 348 606 l 193 606 b 186 617 186 606 182 610 l 194 632 b 208 641 198 639 199 641 l 364 641 l 473 883 b 487 892 476 890 478 892 l 506 892 b 513 882 513 892 516 889 l 403 641 l 642 641 l 751 883 b 763 892 755 890 756 892 l 783 892 b 791 882 791 892 793 889 l 682 641 l 840 641 b 847 629 847 641 850 638 l 839 614 b 826 606 835 607 833 606 l 664 606 l 539 326 l 697 326 b 704 314 704 326 708 322 l 696 299 b 683 291 691 292 690 291 l 522 291 l 396 9 b 383 0 392 2 391 0 l 363 0 b 357 11 356 0 354 3 l 482 291 l 243 291 l 117 9 b 105 0 115 2 113 0 l 86 0 m 499 326 l 625 606 l 386 606 l 260 326 "},"$":{"ha":811,"x_min":0,"x_max":0,"o":"m 282 -112 b 275 -101 274 -112 273 -109 l 294 4 b 47 249 138 13 76 105 b 52 265 44 258 44 263 l 70 271 b 82 263 77 273 80 272 b 326 38 114 123 170 38 b 641 288 521 38 641 124 b 406 477 641 418 527 459 b 141 715 273 497 141 525 b 464 984 141 886 260 981 l 484 1088 b 495 1098 485 1096 488 1098 l 514 1098 b 523 1087 521 1098 525 1095 l 504 983 b 754 756 658 974 727 894 b 749 741 757 748 756 743 l 731 736 b 719 742 724 734 721 735 b 471 948 692 875 627 948 b 181 718 286 948 181 865 b 413 513 181 549 296 530 b 680 291 551 493 680 443 b 333 3 680 104 545 5 l 313 -102 b 301 -112 312 -110 308 -112 l 282 -112 "},"%":{"ha":1111,"x_min":0,"x_max":0,"o":"m 282 499 b 116 701 151 499 94 576 l 135 804 b 367 1007 156 930 239 1007 b 532 803 497 1007 554 929 l 514 700 b 282 499 492 574 409 499 m 122 0 b 115 13 114 0 111 6 l 951 977 b 972 986 959 986 961 986 l 990 986 b 995 974 999 986 1002 982 l 159 10 b 138 0 152 0 150 0 l 122 0 m 284 532 b 479 702 392 532 461 596 l 498 804 b 365 974 516 910 470 974 b 167 802 256 974 187 908 l 150 701 b 284 532 132 594 178 532 m 744 -21 b 578 182 614 -21 557 56 l 597 285 b 828 487 619 411 702 487 b 994 284 960 487 1016 409 l 976 180 b 744 -21 954 55 872 -21 m 746 12 b 942 183 855 12 924 76 l 961 284 b 827 454 979 390 933 454 b 630 283 719 454 650 389 l 613 181 b 746 12 595 75 641 12 "},"&":{"ha":893,"x_min":0,"x_max":0,"o":"m 234 -20 b 36 184 112 -20 36 65 b 310 522 36 361 156 451 b 215 737 264 579 215 648 b 464 1006 215 897 315 1006 b 664 822 579 1006 664 936 b 383 514 664 659 540 581 l 368 508 l 604 211 b 718 312 642 245 680 279 b 729 313 723 317 725 317 l 739 300 b 739 286 744 295 744 291 l 624 184 l 761 11 b 756 0 765 4 764 0 l 731 0 b 714 8 723 0 718 2 l 595 159 b 234 -20 423 0 330 -20 m 370 546 b 627 819 502 601 627 672 b 462 971 627 913 557 971 b 251 738 332 971 251 874 b 346 536 251 656 299 593 m 236 17 b 573 185 326 17 413 42 l 330 491 b 75 187 190 430 75 347 b 236 17 75 89 139 17 "},"'":{"ha":276,"x_min":0,"x_max":0,"o":"m 165 681 b 157 692 157 681 155 684 l 207 977 b 218 986 209 985 210 986 l 237 986 b 246 976 245 986 247 983 l 185 690 b 174 681 184 683 181 681 l 165 681 "},"(":{"ha":318,"x_min":0,"x_max":0,"o":"m 108 -316 b 25 -10 32 -260 -5 -177 l 150 703 b 339 1006 180 870 240 948 b 354 1000 348 1010 350 1007 l 361 987 b 356 971 364 981 363 975 b 190 702 270 920 216 849 l 64 -12 b 130 -284 37 -160 64 -233 b 134 -297 136 -289 137 -292 l 121 -314 b 108 -316 117 -318 113 -319 "},")":{"ha":317,"x_min":0,"x_max":0,"o":"m -75 -316 b -90 -309 -84 -320 -86 -316 l -97 -297 b -92 -280 -100 -291 -99 -285 b 75 -11 -6 -230 48 -159 l 200 703 b 134 975 227 850 200 924 b 130 988 128 980 127 983 l 143 1004 b 156 1006 147 1008 151 1010 b 239 701 232 950 269 867 l 114 -13 b -75 -316 84 -179 24 -257 "},"*":{"ha":540,"x_min":0,"x_max":0,"o":"m 378 590 b 367 594 373 586 369 589 l 312 724 l 209 589 b 198 588 205 585 202 584 l 186 598 b 186 609 182 602 182 605 l 294 741 l 174 786 b 167 799 167 788 165 793 l 175 815 b 187 817 178 821 181 819 l 304 762 l 330 927 b 339 935 332 933 333 935 l 354 935 b 360 925 360 935 361 932 l 329 762 l 467 816 b 477 812 474 819 475 817 l 480 796 b 473 785 482 789 479 787 l 330 740 l 394 608 b 391 596 396 603 396 600 l 378 590 "},"+":{"ha":807,"x_min":0,"x_max":0,"o":"m 332 126 b 322 138 324 126 322 130 l 375 436 l 105 436 b 96 448 97 436 94 440 l 98 462 b 109 472 99 470 101 472 l 381 472 l 434 772 b 445 782 436 780 437 782 l 460 782 b 470 770 468 782 471 778 l 417 472 l 688 472 b 698 461 696 472 699 469 l 694 446 b 684 436 694 438 692 436 l 412 436 l 358 137 b 347 126 357 128 355 126 l 332 126 "},",":{"ha":256,"x_min":0,"x_max":0,"o":"m -56 -168 b -63 -159 -63 -168 -67 -165 l 29 50 b 49 64 34 62 39 64 l 68 64 b 78 48 79 64 84 59 l -33 -159 b -46 -168 -37 -166 -39 -168 l -56 -168 "},"-":{"ha":592,"x_min":0,"x_max":0,"o":"m 102 351 b 93 362 95 351 91 354 l 95 377 b 106 388 96 386 98 388 l 445 388 b 455 376 453 388 456 384 l 452 361 b 442 351 450 353 449 351 l 102 351 "},".":{"ha":260,"x_min":0,"x_max":0,"o":"m 39 -9 b 15 22 17 -9 10 -3 l 16 28 b 48 57 21 50 28 57 l 56 57 b 80 27 78 57 84 47 l 78 20 b 46 -9 73 -2 67 -9 l 39 -9 "},"/":{"ha":579,"x_min":0,"x_max":0,"o":"m -19 -83 b -25 -73 -27 -83 -28 -79 l 549 977 b 564 986 553 985 555 986 l 583 986 b 590 976 590 986 593 982 l 16 -74 b 0 -83 12 -82 9 -83 l -19 -83 "},":":{"ha":292,"x_min":0,"x_max":0,"o":"m 173 602 b 148 632 151 602 143 607 l 150 638 b 182 667 155 660 161 667 l 189 667 b 214 637 211 667 217 658 l 212 630 b 180 602 207 608 201 602 l 173 602 m 64 -9 b 40 22 42 -9 35 -3 l 41 28 b 73 57 47 50 53 57 l 81 57 b 105 27 103 57 109 47 l 104 20 b 72 -9 98 -2 92 -9 l 64 -9 "},";":{"ha":350,"x_min":0,"x_max":0,"o":"m 208 602 b 184 632 187 602 179 607 l 186 638 b 218 667 191 660 197 667 l 225 667 b 249 637 247 667 253 658 l 248 630 b 216 602 243 608 237 602 l 208 602 m 4 -168 b -4 -159 -3 -168 -7 -165 l 89 50 b 109 64 94 62 98 64 l 128 64 b 138 48 139 64 144 59 l 27 -159 b 14 -168 23 -166 21 -168 l 4 -168 "},"<":{"ha":697,"x_min":0,"x_max":0,"o":"m 83 432 b 74 448 75 437 72 439 l 75 459 b 88 475 77 468 79 470 l 614 761 b 626 752 624 766 628 762 l 623 735 b 610 716 621 722 619 722 l 128 454 l 128 452 l 514 188 b 523 168 523 182 525 181 l 520 152 b 508 145 518 142 514 140 "},"=":{"ha":831,"x_min":0,"x_max":0,"o":"m 143 573 b 133 585 135 573 132 577 l 136 600 b 149 610 138 608 141 610 l 722 610 b 732 598 730 610 733 607 l 730 583 b 718 573 728 575 727 573 l 143 573 m 95 298 b 84 310 87 298 84 302 l 87 325 b 98 335 89 333 90 335 l 674 335 b 684 323 682 335 686 332 l 681 308 b 670 298 679 300 678 298 l 95 298 "},">":{"ha":697,"x_min":0,"x_max":0,"o":"m 70 144 b 58 154 60 139 56 144 l 60 170 b 75 189 63 182 65 183 l 557 451 l 556 453 l 170 717 b 161 737 161 722 158 724 l 163 754 b 175 761 166 764 168 766 l 601 474 b 609 457 609 469 611 466 l 607 447 b 596 431 606 438 604 436 l 70 144 "},"?":{"ha":757,"x_min":0,"x_max":0,"o":"m 285 182 b 276 195 277 182 274 184 b 472 458 302 341 386 398 b 684 744 561 516 655 578 b 474 991 708 881 636 991 b 161 784 321 991 224 904 b 146 780 157 778 153 777 l 128 785 b 125 801 122 788 120 791 b 477 1028 194 931 303 1028 b 726 740 666 1028 754 899 b 493 426 694 562 589 492 b 312 190 415 374 334 317 b 301 182 310 182 309 182 l 285 182 m 256 -9 b 231 22 234 -9 226 -3 b 233 28 231 23 233 26 b 265 57 238 50 244 57 l 272 57 b 297 27 294 57 301 47 b 295 20 296 25 295 22 b 263 -9 290 -2 284 -9 l 256 -9 "},"@":{"ha":1242,"x_min":0,"x_max":0,"o":"m 501 -183 b 73 358 173 -183 11 9 l 90 453 b 706 1006 149 795 381 1006 b 1133 452 1047 1006 1190 781 l 1116 357 b 835 67 1080 158 952 67 b 768 128 790 67 767 85 b 511 68 735 111 645 68 b 326 293 357 68 302 153 l 365 516 b 626 741 391 656 474 741 b 845 699 729 741 807 717 b 882 632 879 684 889 671 l 796 152 b 837 99 789 113 805 99 b 1082 358 937 99 1050 176 l 1099 453 b 705 974 1154 765 1021 974 b 124 452 399 974 181 776 l 107 357 b 502 -152 48 27 198 -152 b 789 -112 654 -152 783 -114 b 797 -118 795 -111 798 -112 l 795 -136 b 786 -145 794 -142 792 -143 b 501 -183 780 -146 659 -183 m 517 101 b 763 162 658 101 743 150 l 845 626 b 824 674 851 653 846 662 b 628 709 788 690 719 709 b 400 514 495 709 421 636 l 361 292 b 517 101 340 171 385 101 "},"A":{"ha":864,"x_min":0,"x_max":0,"o":"m -38 0 b -43 11 -45 0 -47 5 l 493 983 b 509 994 498 991 500 994 l 529 994 b 541 982 538 994 539 989 l 736 11 b 728 0 738 4 736 0 l 708 0 b 693 11 698 0 694 3 l 628 344 l 185 344 l -1 9 b -18 0 -5 2 -8 0 l -38 0 m 620 380 l 524 878 b 515 951 519 903 516 924 l 512 951 b 476 874 502 928 490 903 l 204 380 "},"B":{"ha":879,"x_min":0,"x_max":0,"o":"m 67 0 b 57 12 58 0 56 3 l 227 976 b 238 986 229 983 231 986 l 573 986 b 801 796 727 986 801 920 b 612 508 801 660 741 551 l 610 506 b 748 321 688 488 748 427 b 427 0 748 131 624 0 l 67 0 m 514 522 b 761 789 669 522 761 637 b 568 949 762 893 700 949 l 263 949 l 188 522 m 423 37 b 708 321 599 37 708 157 b 524 486 708 429 640 486 l 181 486 l 102 37 "},"C":{"ha":872,"x_min":0,"x_max":0,"o":"m 365 -20 b 82 321 143 -20 44 110 l 143 668 b 540 1006 180 877 316 1006 b 833 759 743 1006 819 920 b 826 747 835 752 833 749 l 808 742 b 795 751 801 740 796 742 b 538 968 780 895 715 968 b 183 668 337 968 215 853 l 121 318 b 369 19 89 134 172 19 b 708 248 552 19 642 102 b 724 252 711 255 715 255 l 740 246 b 745 229 747 244 749 240 b 365 -20 670 71 570 -20 "},"D":{"ha":885,"x_min":0,"x_max":0,"o":"m 66 0 b 57 11 58 0 56 3 l 227 976 b 239 986 229 984 232 986 l 494 986 b 801 619 744 986 841 845 l 756 366 b 324 0 716 140 562 0 l 66 0 m 327 38 b 716 367 538 38 680 161 l 761 620 b 491 948 797 826 714 948 l 262 948 l 102 38 "},"E":{"ha":782,"x_min":0,"x_max":0,"o":"m 66 0 b 57 11 58 0 56 3 l 227 976 b 239 986 229 984 232 986 l 756 986 b 766 975 765 986 767 983 l 763 959 b 752 948 761 951 759 948 l 262 948 l 187 519 l 621 519 b 629 508 628 519 631 516 l 626 491 b 615 481 625 484 622 481 l 181 481 l 102 38 l 607 38 b 617 26 616 38 619 35 l 614 10 b 603 0 612 2 610 0 l 66 0 "},"F":{"ha":753,"x_min":0,"x_max":0,"o":"m 66 0 b 57 11 58 0 56 3 l 227 976 b 239 986 229 984 232 986 l 753 986 b 763 975 761 986 764 983 l 760 959 b 749 948 758 951 757 948 l 264 948 l 185 504 l 607 504 b 616 493 615 504 618 501 l 613 476 b 602 466 612 469 609 466 l 179 466 l 98 10 b 88 0 96 2 96 0 l 66 0 "},"G":{"ha":894,"x_min":0,"x_max":0,"o":"m 368 -20 b 82 322 142 -20 44 111 l 143 668 b 540 1006 181 884 314 1006 b 833 762 738 1006 820 923 b 826 747 834 752 834 749 l 809 742 b 796 751 802 740 797 742 b 539 968 785 896 715 968 b 182 666 334 968 214 851 l 122 321 b 369 18 89 133 172 18 b 724 318 567 18 692 133 l 748 450 l 458 450 b 449 462 451 450 449 454 l 452 478 b 464 488 453 485 457 488 l 780 488 b 791 474 789 488 793 483 l 763 316 b 368 -20 728 109 586 -20 "},"H":{"ha":933,"x_min":0,"x_max":0,"o":"m 67 0 b 57 12 59 0 56 2 l 227 976 b 239 986 229 984 231 986 l 258 986 b 267 975 266 986 268 983 l 187 519 l 756 519 l 837 976 b 849 986 839 984 841 986 l 867 986 b 877 975 876 986 878 983 l 707 11 b 696 0 705 3 703 0 l 676 0 b 666 11 668 0 665 3 l 750 481 l 181 481 l 97 10 b 86 0 95 3 94 0 l 67 0 "},"I":{"ha":325,"x_min":0,"x_max":0,"o":"m 65 0 b 58 14 57 0 56 4 l 227 976 b 242 986 229 986 234 986 l 258 986 b 267 974 264 986 270 985 l 97 12 b 85 0 95 4 93 0 l 65 0 "},"J":{"ha":778,"x_min":0,"x_max":0,"o":"m 262 -20 b 18 266 85 -20 14 85 b 25 280 17 272 18 279 l 46 283 b 57 272 54 284 55 282 b 267 19 52 108 111 19 b 568 298 434 19 539 134 l 687 976 b 699 986 689 984 692 986 l 719 986 b 728 975 726 986 728 983 l 608 296 b 262 -20 573 103 456 -20 "},"K":{"ha":818,"x_min":0,"x_max":0,"o":"m 67 0 b 57 11 58 0 56 3 l 227 976 b 239 986 229 984 232 986 l 258 986 b 267 975 266 986 268 983 l 187 519 l 368 519 b 403 517 381 519 394 519 l 788 977 b 809 986 794 985 797 986 l 830 986 b 837 974 841 986 841 980 l 444 509 b 580 359 523 494 556 443 l 678 12 b 671 0 680 4 680 0 l 651 0 b 635 11 640 0 638 3 l 543 344 b 373 481 518 438 482 481 l 181 481 l 97 10 b 86 0 95 2 93 0 l 67 0 "},"L":{"ha":710,"x_min":0,"x_max":0,"o":"m 66 0 b 57 11 58 0 56 3 l 227 976 b 239 986 229 984 231 986 l 259 986 b 267 975 266 986 268 983 l 102 38 l 574 38 b 584 26 583 38 586 34 l 581 10 b 570 0 579 3 577 0 l 66 0 "},"M":{"ha":1093,"x_min":0,"x_max":0,"o":"m 66 0 b 57 11 58 0 56 3 l 227 976 b 239 986 229 984 231 986 l 257 986 b 272 975 267 986 270 982 l 509 286 l 988 975 b 1007 986 994 983 997 986 l 1027 986 b 1036 974 1035 986 1037 983 l 865 10 b 854 0 864 2 862 0 l 836 0 b 826 11 829 0 825 2 l 947 696 b 991 916 960 768 973 840 l 989 916 b 864 731 946 852 907 792 l 527 249 b 512 239 523 242 519 239 l 499 239 b 484 250 491 239 487 242 l 315 739 b 255 917 293 797 274 855 l 252 917 b 217 694 242 841 230 767 l 96 10 b 85 0 94 2 92 0 l 66 0 "},"N":{"ha":946,"x_min":0,"x_max":0,"o":"m 66 0 b 57 11 58 0 56 3 l 227 976 b 239 986 229 984 231 986 l 259 986 b 272 979 267 986 271 981 l 607 254 b 691 61 637 188 663 124 l 694 61 b 731 308 705 141 717 224 l 850 977 b 863 986 851 984 854 986 l 880 986 b 890 975 888 986 890 983 l 719 10 b 708 0 717 3 716 0 l 687 0 b 675 8 681 0 678 1 l 330 755 b 257 923 304 812 280 868 l 255 923 b 219 704 243 851 232 779 l 96 10 b 84 0 94 2 93 0 l 66 0 "},"O":{"ha":907,"x_min":0,"x_max":0,"o":"m 368 -20 b 82 321 142 -20 45 109 l 142 667 b 541 1006 180 877 317 1006 b 825 666 765 1006 861 880 l 765 319 b 368 -20 728 106 590 -20 m 368 18 b 724 322 563 18 690 127 l 785 666 b 541 968 818 858 736 968 b 182 665 343 968 215 853 l 122 320 b 368 18 89 131 173 18 "},"P":{"ha":847,"x_min":0,"x_max":0,"o":"m 67 0 b 57 11 58 0 56 3 l 227 976 b 240 986 229 984 231 986 l 578 986 b 810 692 750 986 839 878 b 480 393 781 505 655 393 l 165 393 l 97 10 b 86 0 95 3 93 0 l 67 0 m 479 430 b 769 692 631 430 742 526 b 573 948 797 854 722 948 l 262 948 l 172 430 "},"Q":{"ha":969,"x_min":0,"x_max":0,"o":"m 764 -83 b 751 -81 759 -88 754 -87 l 652 49 b 416 -20 590 5 508 -20 b 131 321 190 -20 94 110 l 192 667 b 591 1006 229 877 368 1006 b 875 666 814 1006 912 876 l 814 319 b 685 72 795 215 752 130 l 784 -57 b 781 -73 787 -64 787 -68 l 764 -83 m 418 18 b 774 322 614 18 742 133 l 834 666 b 589 968 868 854 782 968 b 232 665 391 968 265 853 l 172 320 b 418 18 138 132 223 18 "},"R":{"ha":879,"x_min":0,"x_max":0,"o":"m 66 0 b 57 12 58 0 56 4 l 227 976 b 239 986 229 984 231 986 l 607 986 b 817 719 763 986 843 889 b 531 450 790 555 682 458 b 629 323 584 427 611 387 l 718 12 b 711 0 720 4 719 0 l 693 0 b 676 11 680 0 678 3 l 591 306 b 413 446 564 403 521 446 l 174 446 l 97 11 b 86 0 95 2 93 0 l 66 0 m 516 483 b 777 720 653 483 752 568 b 600 948 802 865 736 948 l 262 948 l 181 483 "},"S":{"ha":854,"x_min":0,"x_max":0,"o":"m 341 -20 b 38 220 169 -20 72 50 b 43 237 35 230 34 233 l 63 243 b 75 235 70 245 73 244 b 345 19 107 80 194 19 b 679 257 540 19 653 101 b 433 476 710 434 576 456 b 147 738 273 497 114 534 b 504 1006 173 905 309 1006 b 807 791 675 1006 765 943 b 802 777 811 784 810 779 l 783 771 b 770 777 776 769 773 769 b 502 966 732 911 654 966 b 186 736 331 966 211 880 b 443 513 156 561 296 533 b 720 257 604 492 754 460 b 341 -20 691 76 562 -20 "},"T":{"ha":733,"x_min":0,"x_max":0,"o":"m 271 0 b 261 11 262 0 261 3 l 427 948 l 135 948 b 125 960 127 948 123 951 l 128 976 b 140 986 130 984 132 986 l 767 986 b 776 974 775 986 777 983 l 773 959 b 762 948 771 950 770 948 l 467 948 l 302 10 b 290 0 300 2 297 0 l 271 0 "},"U":{"ha":935,"x_min":0,"x_max":0,"o":"m 379 -20 b 106 335 153 -20 68 119 l 219 976 b 231 986 221 984 224 986 l 250 986 b 259 975 258 986 260 983 l 146 333 b 381 18 112 142 185 18 b 732 335 580 18 698 142 l 845 976 b 857 986 847 984 850 986 l 876 986 b 885 975 884 986 886 983 l 772 333 b 379 -20 733 118 601 -20 "},"V":{"ha":836,"x_min":0,"x_max":0,"o":"m 322 0 b 309 12 313 0 309 4 l 128 976 b 135 986 127 982 128 986 l 157 986 b 170 975 167 986 169 983 l 326 133 b 338 51 330 106 335 78 l 341 51 b 382 134 354 76 366 105 l 836 977 b 852 986 839 985 843 986 l 874 986 b 879 975 881 986 882 981 l 358 10 b 342 0 355 3 351 0 l 322 0 "},"W":{"ha":1218,"x_min":0,"x_max":0,"o":"m 245 0 b 231 12 236 0 231 3 l 144 976 b 152 986 144 984 144 986 l 173 986 b 186 975 183 986 185 983 l 255 178 b 261 60 259 141 261 100 l 265 60 b 315 179 280 101 299 140 l 667 952 b 683 961 671 960 675 961 l 701 961 b 714 950 709 961 714 958 l 792 175 b 800 60 795 137 798 98 l 803 60 b 849 175 817 99 833 138 l 1202 977 b 1217 986 1205 984 1207 986 l 1237 986 b 1244 975 1245 986 1247 982 l 817 10 b 802 0 814 1 810 0 l 782 0 b 769 12 774 0 769 3 l 692 782 b 683 901 688 821 686 861 l 681 901 b 628 781 665 862 646 820 l 279 10 b 263 0 276 1 272 0 l 245 0 "},"X":{"ha":819,"x_min":0,"x_max":0,"o":"m -34 0 b -37 15 -44 0 -44 7 l 384 501 l 141 976 b 148 986 140 982 140 986 l 173 986 b 188 976 183 986 185 984 l 414 533 l 798 977 b 816 986 803 985 806 986 l 842 986 b 848 975 850 986 852 980 l 437 502 l 686 14 b 679 0 691 6 690 0 l 657 0 b 641 11 647 0 644 2 l 406 469 l 10 10 b -10 0 5 2 -1 0 l -34 0 "},"Y":{"ha":844,"x_min":0,"x_max":0,"o":"m 326 0 b 317 12 318 0 316 3 l 388 410 l 133 976 b 140 986 132 982 132 986 l 162 986 b 178 975 175 986 176 983 l 415 448 l 836 977 b 856 986 842 985 845 986 l 878 986 b 884 975 886 986 888 980 l 428 408 l 357 10 b 346 0 355 2 353 0 l 326 0 "},"Z":{"ha":754,"x_min":0,"x_max":0,"o":"m -7 0 b -17 11 -16 0 -18 3 l -14 26 b -7 44 -13 34 -12 38 l 706 949 l 166 949 b 156 960 157 949 154 952 l 159 976 b 170 986 161 984 163 986 l 751 986 b 761 975 759 986 762 983 l 758 961 b 752 945 756 954 755 951 l 36 39 l 601 39 b 610 27 610 39 612 36 l 607 10 b 595 0 605 2 603 0 l -7 0 "},"[":{"ha":339,"x_min":0,"x_max":0,"o":"m -13 -352 b -21 -338 -21 -352 -23 -348 l 220 1029 b 233 1040 222 1038 225 1040 l 385 1040 b 395 1028 393 1040 397 1036 l 392 1013 b 381 1004 390 1004 389 1004 l 255 1004 l 22 -317 l 146 -317 b 155 -329 155 -317 157 -321 l 152 -343 b 140 -352 150 -351 149 -352 l -13 -352 "},"\\":{"ha":569,"x_min":0,"x_max":0,"o":"m 365 -83 b 355 -73 358 -83 356 -80 l 159 977 b 167 986 159 983 160 986 l 188 986 b 200 976 197 986 199 983 l 395 -74 b 388 -83 396 -80 396 -83 l 365 -83 "},"]":{"ha":339,"x_min":0,"x_max":0,"o":"m -98 -352 b -107 -341 -106 -352 -109 -349 l -104 -326 b -93 -317 -102 -318 -101 -317 l 32 -317 l 265 1004 l 141 1004 b 133 1015 133 1004 131 1007 l 135 1030 b 146 1040 136 1038 137 1040 l 300 1040 b 310 1029 309 1040 312 1037 l 67 -342 b 57 -352 65 -351 65 -352 l -98 -352 "},"^":{"ha":824,"x_min":0,"x_max":0,"o":"m 153 722 b 148 736 143 722 139 728 l 498 1116 b 513 1124 503 1123 507 1124 l 525 1124 b 539 1114 533 1124 535 1121 l 759 735 b 754 722 764 726 763 722 l 734 722 b 713 733 721 722 719 725 l 514 1082 l 511 1082 l 194 731 b 172 722 185 722 184 722 l 153 722 "},"_":{"ha":710,"x_min":0,"x_max":0,"o":"m -15 -37 b -24 -25 -23 -37 -26 -33 l -21 -10 b -10 0 -21 -2 -18 0 l 544 0 b 554 -12 552 0 554 -3 l 551 -27 b 538 -37 549 -35 546 -37 l -15 -37 "},"`":{"ha":406,"x_min":0,"x_max":0,"o":"m 133 978 b 131 993 128 982 125 986 l 143 1003 b 163 1001 152 1011 156 1007 l 325 850 b 328 834 331 845 334 840 l 321 828 b 305 828 316 824 312 824 "},"a":{"ha":697,"x_min":0,"x_max":0,"o":"m 250 -20 b 30 154 85 -20 30 46 b 319 396 30 328 145 396 b 527 378 409 396 498 383 b 549 526 545 477 549 499 b 372 695 551 623 504 695 b 145 576 262 695 196 645 b 131 572 140 571 138 569 l 117 579 b 116 595 110 583 111 588 b 378 729 180 683 255 729 b 586 528 533 729 589 644 b 515 96 584 476 575 443 b 451 17 506 48 493 35 b 250 -20 395 -7 331 -20 m 254 13 b 432 45 321 13 378 24 b 478 102 465 58 472 66 l 522 346 b 314 364 493 351 403 364 b 68 158 161 364 68 299 b 254 13 68 63 117 13 "},"b":{"ha":736,"x_min":0,"x_max":0,"o":"m 284 -20 b 91 21 195 -20 131 0 b 53 97 53 39 45 52 l 215 1018 b 226 1028 217 1025 219 1028 l 243 1028 b 252 1017 251 1028 254 1024 l 191 671 b 422 729 223 687 309 729 b 628 463 586 729 658 636 l 592 256 b 284 -20 560 77 459 -20 m 284 16 b 555 258 439 16 528 98 l 591 464 b 416 694 618 615 558 694 b 185 633 305 694 217 650 l 91 104 b 116 51 86 71 88 66 b 284 16 150 34 209 16 "},"c":{"ha":706,"x_min":0,"x_max":0,"o":"m 276 -20 b 58 247 103 -20 28 81 l 96 465 b 401 729 125 630 227 729 b 628 535 557 729 616 659 b 621 523 628 527 627 525 l 605 518 b 594 525 597 515 595 518 b 401 694 581 642 532 694 b 132 464 249 694 158 606 l 94 245 b 278 15 69 105 129 15 b 535 191 405 15 468 72 b 548 198 540 200 540 201 l 565 193 b 569 176 571 191 573 187 b 276 -20 501 43 421 -20 "},"d":{"ha":736,"x_min":0,"x_max":0,"o":"m 277 -20 b 61 259 98 -20 29 78 l 97 464 b 393 729 128 639 230 729 b 606 670 507 729 579 686 l 668 1018 b 679 1028 670 1025 672 1028 l 696 1028 b 705 1017 703 1028 707 1025 l 542 96 b 481 19 535 50 524 37 b 277 -20 433 -2 360 -20 m 279 16 b 460 51 356 16 421 34 b 508 105 496 66 501 72 l 600 634 b 394 694 576 650 504 694 b 134 462 251 694 161 616 l 98 258 b 279 16 68 97 128 16 "},"e":{"ha":715,"x_min":0,"x_max":0,"o":"m 403 729 b 627 519 565 729 649 658 b 326 307 606 380 499 307 b 106 323 243 307 181 311 l 92 243 b 268 11 66 99 122 11 b 531 165 395 11 476 76 b 544 167 535 169 539 169 l 557 159 b 560 145 563 156 563 152 b 267 -20 498 54 413 -20 b 54 241 94 -20 28 81 b 89 444 64 304 76 368 b 403 729 120 624 234 729 m 590 520 b 400 698 609 639 538 698 b 128 446 258 698 156 606 l 112 354 b 324 338 187 341 259 338 b 590 520 469 338 568 395 "},"f":{"ha":443,"x_min":0,"x_max":0,"o":"m 93 0 b 84 11 85 0 83 3 l 201 675 l 73 675 b 65 686 66 675 63 678 l 68 700 b 79 710 69 708 72 710 l 207 710 l 217 764 b 479 1028 254 967 306 1026 l 487 1028 b 497 1017 495 1028 498 1024 l 494 1001 b 484 992 493 994 491 992 b 253 762 333 993 284 947 l 244 710 l 433 710 b 442 699 441 710 443 707 l 440 686 b 428 675 438 678 435 675 l 238 675 l 121 10 b 110 0 119 2 117 0 l 93 0 "},"g":{"ha":733,"x_min":0,"x_max":0,"o":"m 206 -357 b -4 -192 76 -357 21 -287 b -1 -178 -7 -186 -7 -181 l 16 -170 b 29 -176 24 -166 26 -169 b 208 -321 53 -259 94 -321 b 476 -59 368 -321 447 -219 l 494 37 b 250 -15 440 11 363 -15 b 59 249 85 -15 31 84 l 95 453 b 401 729 127 635 223 729 b 594 690 486 729 552 711 b 631 613 631 672 640 659 l 512 -59 b 206 -357 480 -242 391 -357 m 257 19 b 499 76 373 19 446 49 l 592 605 b 566 659 599 638 596 644 b 398 695 533 676 474 695 b 132 451 245 695 161 612 l 96 249 b 257 19 70 102 117 19 "},"h":{"ha":754,"x_min":0,"x_max":0,"o":"m 51 0 b 42 11 44 0 41 3 l 219 1018 b 231 1028 221 1026 224 1028 l 248 1028 b 257 1017 255 1028 259 1024 l 196 675 b 437 729 262 706 342 729 b 629 464 603 729 658 631 l 549 10 b 538 0 547 2 545 0 l 520 0 b 512 11 513 0 511 4 l 591 463 b 429 695 618 614 571 695 b 191 638 342 695 261 673 l 79 10 b 68 0 77 2 75 0 l 51 0 "},"i":{"ha":290,"x_min":0,"x_max":0,"o":"m 213 909 b 193 936 195 909 189 914 l 195 944 b 222 969 200 963 204 969 l 235 969 b 255 942 253 969 259 962 l 253 935 b 226 909 248 915 245 909 l 213 909 m 50 0 b 42 11 43 0 41 3 l 164 700 b 175 710 164 708 168 710 l 193 710 b 201 699 199 710 202 707 l 79 10 b 68 0 77 2 75 0 l 50 0 "},"j":{"ha":290,"x_min":0,"x_max":0,"o":"m 214 909 b 192 937 194 909 188 914 l 194 945 b 222 972 199 965 204 972 l 235 972 b 257 943 255 972 260 963 l 255 936 b 227 909 250 915 245 909 l 214 909 m -194 -319 b -204 -308 -203 -319 -206 -316 l -201 -293 b -193 -283 -201 -285 -199 -283 b 36 -16 -15 -283 6 -188 l 163 700 b 174 710 164 707 167 710 l 192 710 b 200 699 199 710 201 707 l 73 -18 b -194 -319 39 -212 8 -319 "},"k":{"ha":679,"x_min":0,"x_max":0,"o":"m 50 0 b 42 11 43 0 41 3 l 219 1018 b 230 1028 221 1026 224 1028 l 248 1028 b 256 1017 255 1028 258 1024 l 145 383 l 315 383 l 329 383 l 602 701 b 621 710 609 709 611 710 l 640 710 b 646 697 651 710 651 704 l 365 376 b 466 267 426 364 451 328 l 535 11 b 529 0 537 4 538 0 l 512 0 b 496 9 500 0 498 2 l 431 252 b 313 349 414 319 384 349 l 139 349 l 79 10 b 68 0 77 2 75 0 l 50 0 "},"l":{"ha":301,"x_min":0,"x_max":0,"o":"m 56 0 b 47 11 48 0 46 3 l 224 1018 b 236 1028 226 1026 229 1028 l 253 1028 b 262 1016 260 1028 264 1024 l 84 10 b 73 0 82 2 80 0 l 56 0 "},"m":{"ha":1143,"x_min":0,"x_max":0,"o":"m 47 0 b 38 11 40 0 36 3 l 144 610 b 204 688 151 651 166 670 b 401 729 250 710 317 729 b 579 654 497 729 553 704 b 828 729 627 684 695 729 b 1018 472 991 729 1047 639 l 937 10 b 925 0 935 2 933 0 l 909 0 b 900 11 901 0 898 3 l 981 471 b 823 695 1007 622 962 695 b 594 621 705 695 642 654 b 595 488 605 589 604 542 l 510 10 b 499 0 508 2 506 0 l 483 0 b 473 11 474 0 473 4 l 558 487 b 396 695 584 638 533 695 b 220 657 319 695 269 681 b 180 601 190 642 184 624 l 75 10 b 63 0 73 2 70 0 l 47 0 "},"n":{"ha":750,"x_min":0,"x_max":0,"o":"m 46 0 b 38 11 40 0 37 3 l 144 610 b 202 685 151 651 164 668 b 430 729 252 706 325 729 b 625 463 598 729 654 632 l 545 10 b 534 0 543 3 541 0 l 517 0 b 508 11 509 0 507 3 l 587 463 b 425 695 614 612 567 695 b 221 654 337 695 263 674 b 180 602 190 640 184 625 l 75 10 b 64 0 73 3 71 0 l 46 0 "},"o":{"ha":738,"x_min":0,"x_max":0,"o":"m 280 -20 b 54 218 120 -20 29 71 l 104 494 b 406 729 131 646 243 729 b 634 492 567 729 659 636 l 585 216 b 280 -20 560 69 439 -20 m 281 15 b 548 217 420 15 526 92 l 598 495 b 403 695 620 618 538 695 b 141 493 264 695 162 617 l 92 215 b 281 15 69 92 149 15 "},"p":{"ha":733,"x_min":0,"x_max":0,"o":"m -8 -306 b -17 -295 -15 -306 -17 -302 l 143 613 b 204 689 152 658 162 671 b 411 729 254 710 325 729 b 624 452 591 729 656 632 l 587 244 b 306 -20 558 80 469 -20 b 81 43 191 -20 110 25 l 21 -296 b 10 -306 20 -302 17 -306 l -8 -306 m 306 16 b 550 246 448 16 525 99 l 587 452 b 408 695 614 613 560 695 b 225 659 330 695 264 676 b 180 605 192 644 186 638 l 88 82 b 306 16 116 62 197 16 "},"q":{"ha":733,"x_min":0,"x_max":0,"o":"m 443 -306 b 434 -295 435 -306 432 -302 l 494 42 b 251 -20 459 23 363 -20 b 58 246 85 -20 30 82 l 95 453 b 401 729 127 634 223 729 b 595 690 489 729 553 710 b 631 613 632 671 640 658 l 471 -296 b 460 -306 471 -303 467 -306 l 443 -306 m 257 16 b 500 82 367 16 465 60 l 593 605 b 566 659 599 638 595 644 b 399 695 534 676 475 695 b 132 451 245 695 160 612 l 96 245 b 257 16 69 98 117 16 "},"r":{"ha":457,"x_min":0,"x_max":0,"o":"m 46 0 b 38 11 40 0 36 3 l 140 592 b 195 668 147 634 158 652 b 405 710 242 688 310 709 b 444 710 419 710 431 710 b 453 699 452 710 455 707 l 450 685 b 441 675 448 677 448 675 b 405 675 429 675 416 675 b 216 636 325 675 255 654 b 176 582 187 622 180 605 l 75 10 b 64 0 73 3 71 0 l 46 0 "},"s":{"ha":674,"x_min":0,"x_max":0,"o":"m 265 -20 b 22 157 135 -20 44 27 b 26 171 20 165 20 169 l 45 177 b 57 170 52 179 55 177 b 267 14 76 56 156 14 b 499 190 416 14 499 73 b 322 336 499 286 435 319 b 101 520 205 355 97 384 b 367 729 104 672 205 730 b 592 576 511 728 576 671 b 589 563 593 569 594 565 l 574 558 b 561 564 564 554 563 558 b 365 695 543 645 489 694 b 136 521 223 697 140 645 b 331 368 133 409 228 385 b 537 190 458 348 537 312 b 265 -20 537 51 434 -20 "},"t":{"ha":456,"x_min":0,"x_max":0,"o":"m 328 0 b 136 260 151 -1 100 53 l 209 675 l 72 675 b 64 686 65 675 62 678 l 67 700 b 78 710 67 708 71 710 l 215 710 l 243 867 b 255 876 244 874 248 876 l 272 876 b 281 865 279 876 281 873 l 253 710 l 453 710 b 462 699 460 710 463 706 l 459 685 b 447 675 457 677 454 675 l 247 675 l 172 259 b 330 36 140 73 182 36 b 340 26 339 36 342 34 l 338 10 b 328 0 336 2 334 0 "},"u":{"ha":750,"x_min":0,"x_max":0,"o":"m 271 -20 b 77 247 103 -20 48 80 l 157 700 b 168 710 157 708 161 710 l 185 710 b 194 699 193 710 195 706 l 114 247 b 275 16 87 96 134 16 b 482 56 369 16 439 35 b 522 109 511 70 518 85 l 627 700 b 638 710 628 707 631 710 l 655 710 b 664 699 662 710 665 706 l 558 100 b 500 25 551 58 540 42 b 271 -20 450 3 383 -20 "},"v":{"ha":679,"x_min":0,"x_max":0,"o":"m 245 -6 b 232 5 237 -6 234 -3 l 87 695 b 95 710 85 705 86 710 l 111 710 b 125 698 123 710 123 707 l 241 137 b 259 39 247 105 254 72 l 262 39 b 314 138 278 72 295 105 l 628 700 b 644 710 631 708 633 710 l 660 710 b 666 695 669 710 671 705 l 278 4 b 261 -6 272 -4 268 -6 l 245 -6 "},"w":{"ha":1006,"x_min":0,"x_max":0,"o":"m 191 -7 b 180 4 183 -7 181 -6 l 96 698 b 106 710 95 707 95 710 l 124 710 b 135 698 135 710 135 706 l 197 168 b 209 42 202 127 204 86 l 211 42 b 268 172 228 86 250 131 l 511 675 b 526 685 516 683 517 685 l 543 685 b 555 674 552 685 554 683 l 622 179 b 636 42 627 136 632 89 l 638 42 b 695 176 657 88 675 132 l 943 700 b 957 710 946 710 948 710 l 975 710 b 982 697 984 710 986 705 l 652 3 b 638 -7 649 -5 645 -7 l 621 -7 b 608 4 612 -7 608 -3 l 539 538 b 527 634 534 571 530 602 l 525 634 b 480 537 511 601 496 569 l 222 3 b 209 -7 219 -7 218 -7 l 191 -7 "},"x":{"ha":646,"x_min":0,"x_max":0,"o":"m -30 0 b -35 11 -38 0 -41 4 l 277 364 l 99 700 b 107 710 96 706 97 710 l 125 710 b 140 701 134 710 138 708 l 304 392 l 576 702 b 591 710 581 709 582 710 l 614 710 b 620 699 622 710 625 706 l 328 366 l 512 9 b 507 0 514 3 515 0 l 485 0 b 470 9 476 0 473 2 l 300 337 l 9 8 b -9 0 4 1 1 0 l -30 0 "},"y":{"ha":754,"x_min":0,"x_max":0,"o":"m 221 -357 b 10 -193 90 -357 34 -290 b 14 -179 8 -187 7 -182 l 29 -171 b 41 -176 35 -168 39 -170 b 222 -321 65 -260 108 -321 b 494 -59 383 -321 464 -220 l 511 37 b 270 -15 462 18 386 -15 b 78 251 103 -15 48 85 l 157 700 b 168 710 157 708 161 710 l 185 710 b 194 699 192 710 195 707 l 115 252 b 276 19 87 101 134 19 b 515 72 388 19 470 53 l 627 700 b 638 710 628 708 632 710 l 655 710 b 664 699 663 710 665 707 l 530 -58 b 221 -357 498 -240 408 -357 "},"z":{"ha":607,"x_min":0,"x_max":0,"o":"m -9 0 b -18 11 -16 0 -19 3 l -15 25 b -9 39 -14 31 -15 32 l 516 675 l 114 675 b 107 686 108 675 105 679 l 110 700 b 120 710 111 708 114 710 l 559 710 b 568 699 566 710 569 706 l 565 685 b 558 669 564 678 562 675 l 32 34 l 448 34 b 457 23 455 34 457 31 l 454 10 b 445 0 452 3 451 0 l -9 0 "},"{":{"ha":407,"x_min":0,"x_max":0,"o":"m 161 -353 b 45 -180 54 -353 24 -297 l 109 178 b 22 324 126 275 108 324 l 7 324 b 1 334 0 324 -1 328 l 4 353 b 13 362 5 360 7 362 l 27 362 b 167 510 113 362 150 413 l 230 868 b 404 1040 251 985 298 1040 l 454 1040 b 464 1029 462 1040 466 1036 l 460 1014 b 449 1004 458 1006 457 1004 l 400 1004 b 268 865 321 1004 285 958 l 204 506 b 97 343 189 418 156 365 b 146 180 150 321 162 267 l 84 -180 b 165 -318 67 -272 86 -318 l 215 -318 b 223 -329 222 -318 225 -321 l 221 -344 b 211 -353 220 -352 219 -353 l 161 -353 "},"|":{"ha":283,"x_min":0,"x_max":0,"o":"m 12 -204 b 3 -193 5 -204 2 -201 l 245 1179 b 256 1189 246 1187 248 1189 l 271 1189 b 280 1178 278 1189 281 1186 l 38 -195 b 27 -204 37 -202 35 -204 l 12 -204 "},"}":{"ha":407,"x_min":0,"x_max":0,"o":"m -101 -353 b -110 -341 -108 -353 -112 -350 l -108 -327 b -96 -318 -106 -318 -104 -318 l -48 -318 b 85 -179 30 -318 69 -271 l 149 181 b 256 344 164 269 194 322 b 207 507 206 366 191 420 l 270 866 b 187 1004 286 959 266 1004 l 138 1004 b 130 1015 131 1004 129 1007 l 132 1030 b 144 1040 134 1039 137 1040 l 193 1040 b 309 866 299 1040 330 983 l 245 509 b 331 362 227 412 247 362 l 344 362 b 352 351 351 362 354 360 l 349 334 b 340 324 347 326 346 324 l 326 324 b 186 177 242 324 203 273 l 123 -181 b -51 -353 102 -298 55 -353 l -101 -353 "},"~":{"ha":776,"x_min":0,"x_max":0,"o":"m 495 396 b 269 460 396 396 359 460 b 132 397 215 460 177 436 b 118 402 125 393 122 397 l 110 413 b 110 428 104 419 104 422 b 267 495 161 470 207 495 b 492 431 368 495 402 431 b 631 493 548 431 589 456 b 643 491 635 497 639 496 l 653 476 b 652 462 657 471 657 467 b 495 396 600 421 554 396 "}," ":{"ha":347,"x_min":0,"x_max":0,"o":""},"¡":{"ha":281,"x_min":0,"x_max":0,"o":"m 164 648 b 140 678 142 648 135 654 l 142 685 b 174 713 147 707 153 713 l 181 713 b 205 683 203 713 209 704 l 204 677 b 172 648 199 655 193 648 l 164 648 m -13 -323 b -23 -312 -21 -323 -25 -320 l 127 502 b 137 511 129 509 129 511 l 146 511 b 156 500 154 511 157 508 l 19 -313 b 8 -323 17 -321 16 -323 l -13 -323 "},"¢":{"ha":733,"x_min":0,"x_max":0,"o":"m 252 -117 b 243 -106 244 -117 242 -113 l 259 -19 b 65 247 104 -10 38 89 l 104 465 b 390 729 130 624 227 721 l 409 837 b 421 847 411 845 414 847 l 440 847 b 449 837 449 847 451 844 l 429 728 b 635 535 571 722 624 653 b 629 523 636 527 635 525 l 612 518 b 601 525 605 515 602 518 b 408 694 589 642 539 694 b 140 464 257 694 165 606 l 101 245 b 285 15 76 105 136 15 b 542 191 412 15 475 72 b 555 198 547 200 547 201 l 573 193 b 576 176 578 191 580 187 b 299 -19 511 48 436 -14 l 283 -107 b 271 -117 282 -114 279 -117 l 252 -117 "},"£":{"ha":863,"x_min":0,"x_max":0,"o":"m 0 0 b -9 12 -8 0 -9 3 l -6 28 b 2 37 -4 34 -4 37 l 34 37 b 166 189 111 37 155 125 l 213 453 l 97 453 b 88 464 89 453 86 456 l 91 479 b 101 489 91 487 93 489 l 219 489 l 268 762 b 569 1006 294 908 385 1006 b 807 786 707 1006 780 951 b 799 775 809 780 807 777 l 783 769 b 770 779 773 765 772 769 b 569 968 744 925 684 968 b 310 760 402 968 330 876 l 262 489 l 629 489 b 639 477 637 489 640 485 l 636 463 b 624 453 634 455 632 453 l 256 453 l 208 187 b 122 39 196 123 166 71 l 118 36 b 255 38 160 37 206 38 l 666 38 b 676 26 674 38 678 34 l 673 10 b 662 0 671 2 670 0 l 0 0 "},"¤":{"ha":813,"x_min":0,"x_max":0,"o":"m 348 152 b 175 230 275 153 216 182 l 86 149 b 72 150 81 144 77 145 l 62 162 b 62 177 57 167 57 172 l 151 258 b 111 415 126 301 110 355 b 221 676 111 511 154 608 l 164 755 b 164 770 159 761 159 765 l 180 782 b 195 781 185 787 191 786 l 250 704 b 455 782 308 753 383 782 b 629 704 526 782 588 752 l 715 784 b 728 784 721 790 724 788 l 740 772 b 740 757 745 766 746 762 l 652 676 b 691 521 679 635 692 580 b 582 258 691 425 649 327 l 639 179 b 638 165 643 174 644 169 l 623 153 b 610 154 617 148 613 149 l 552 231 b 348 152 493 181 420 152 m 350 188 b 655 527 516 188 655 357 b 452 744 655 654 573 744 b 148 409 286 744 148 580 b 350 188 148 283 229 188 "},"¥":{"ha":860,"x_min":0,"x_max":0,"o":"m 334 0 b 324 12 326 0 324 3 l 364 232 l 140 232 b 132 243 132 232 130 235 l 133 254 b 144 264 135 262 137 264 l 369 264 l 399 429 l 175 429 b 166 440 168 429 165 432 l 168 451 b 178 461 170 459 170 461 l 389 461 l 154 976 b 161 986 153 982 153 986 l 184 986 b 201 975 197 986 198 984 l 426 474 l 828 977 b 848 986 834 985 837 986 l 871 986 b 877 975 879 986 881 980 l 461 461 l 664 461 b 674 450 672 461 676 457 l 672 439 b 662 429 671 431 669 429 l 439 429 l 409 264 l 631 264 b 639 253 638 264 641 260 l 637 241 b 627 232 636 234 634 232 l 404 232 l 365 10 b 354 0 362 2 362 0 l 334 0 "},"¦":{"ha":297,"x_min":0,"x_max":0,"o":"m 161 599 b 151 610 153 599 150 602 l 252 1179 b 263 1189 253 1187 255 1189 l 277 1189 b 287 1178 285 1189 288 1186 l 186 608 b 176 599 184 600 183 599 l 161 599 m 19 -203 b 9 -192 11 -203 9 -199 l 110 378 b 121 387 112 386 113 387 l 136 387 b 145 376 143 387 146 384 l 44 -193 b 34 -203 44 -201 42 -203 l 19 -203 "},"§":{"ha":808,"x_min":0,"x_max":0,"o":"m 297 -311 b -1 -67 120 -311 22 -231 b 7 -54 -2 -59 -1 -56 l 27 -48 b 38 -58 35 -47 38 -50 b 306 -274 58 -201 147 -274 b 571 -63 472 -274 571 -195 b 338 123 571 50 503 104 b 75 335 154 143 74 207 b 276 579 75 446 134 519 b 157 764 198 606 156 671 b 468 1016 160 919 277 1016 b 752 774 635 1016 723 941 b 745 760 754 766 752 763 l 728 755 b 715 764 719 752 716 754 b 464 978 693 909 612 978 b 198 764 299 978 198 896 b 414 582 198 656 263 598 b 677 383 593 563 677 499 b 494 127 677 279 608 184 b 614 -57 575 93 614 33 b 297 -311 612 -216 494 -311 m 453 144 b 637 377 565 190 637 282 b 417 544 637 474 565 527 b 318 558 385 548 351 553 b 118 337 183 514 118 441 b 334 164 118 235 183 186 b 453 144 378 157 418 152 "},"¨":{"ha":657,"x_min":0,"x_max":0,"o":"m 270 875 b 250 899 252 875 246 882 l 251 907 b 277 929 255 924 258 929 l 285 929 b 306 906 301 929 308 922 l 304 897 b 278 875 302 879 295 875 l 270 875 m 505 875 b 485 899 487 875 482 882 l 487 907 b 513 929 490 924 493 929 l 521 929 b 541 906 537 929 544 922 l 540 897 b 514 875 537 879 531 875 l 505 875 "},"©":{"ha":1124,"x_min":0,"x_max":0,"o":"m 477 -11 b 91 490 179 -11 37 174 b 648 986 146 802 353 986 b 1030 485 942 986 1085 801 b 477 -11 974 173 768 -11 m 478 18 b 1001 490 754 18 949 193 b 647 957 1054 784 923 957 b 120 485 368 957 171 782 b 478 18 68 191 200 18 m 507 195 b 333 397 371 195 311 273 l 362 566 b 598 767 384 691 463 767 b 782 619 723 767 772 713 b 778 609 782 614 783 612 l 763 605 b 753 611 756 603 754 604 b 600 737 745 699 703 737 b 394 565 479 737 413 673 l 364 396 b 506 225 346 290 391 225 b 710 362 608 225 670 267 b 723 365 712 367 715 367 l 732 362 b 737 348 738 360 742 357 b 507 195 693 249 622 195 "},"ª":{"ha":518,"x_min":0,"x_max":0,"o":"m 255 493 b 123 595 163 493 123 537 b 294 736 123 695 186 736 b 413 727 354 736 397 729 b 424 811 421 770 424 792 b 330 900 424 867 398 900 b 201 832 278 900 240 881 b 190 831 197 828 193 829 l 181 837 b 180 851 176 841 175 844 b 334 931 221 906 271 931 b 456 810 422 931 459 885 b 421 587 455 772 448 734 b 369 514 413 544 403 530 b 255 493 341 500 305 493 m 257 522 b 349 537 302 522 327 527 b 389 591 372 547 384 559 l 408 699 b 293 708 394 701 351 708 b 156 598 202 708 156 673 b 257 522 156 555 185 522 "},"«":{"ha":749,"x_min":0,"x_max":0,"o":"m 285 71 b 272 71 280 66 276 66 l 63 359 b 63 372 58 363 58 367 l 374 661 b 388 661 381 666 384 666 l 397 652 b 396 637 400 647 403 643 l 103 366 l 298 94 b 298 81 302 89 303 85 l 285 71 m 563 71 b 550 71 558 66 554 66 l 341 359 b 341 372 336 363 336 367 l 653 661 b 666 661 659 666 662 666 l 675 652 b 674 637 678 647 681 643 l 381 366 l 576 94 b 576 81 580 89 581 85 l 563 71 "},"¬":{"ha":788,"x_min":0,"x_max":0,"o":"m 589 194 b 578 205 580 194 576 198 l 626 479 l 135 479 b 125 490 127 479 124 482 l 127 506 b 138 515 129 513 130 515 l 661 515 b 670 504 668 515 672 512 l 618 204 b 607 194 616 196 615 194 l 589 194 "},"®":{"ha":678,"x_min":0,"x_max":0,"o":"m 337 447 b 141 712 188 447 116 545 b 428 986 166 881 273 986 b 624 721 578 986 648 889 b 337 447 599 552 491 447 m 339 469 b 600 724 477 469 577 565 b 429 963 624 874 560 963 b 165 709 288 963 188 868 b 339 469 141 560 206 469 m 269 572 b 265 579 265 572 265 575 l 313 849 b 326 861 315 858 317 861 l 420 861 b 500 769 478 861 510 828 b 419 684 493 722 463 692 l 458 581 b 453 572 460 575 459 572 l 443 572 b 432 578 435 572 435 573 l 393 681 l 307 681 l 289 578 b 282 572 288 574 287 572 l 269 572 m 392 703 b 477 771 437 703 469 725 b 418 838 484 813 462 838 l 334 838 l 311 703 "},"¯":{"ha":538,"x_min":0,"x_max":0,"o":"m 182 885 b 173 896 173 885 172 890 l 175 907 b 188 916 177 914 181 916 l 492 916 b 502 905 500 916 503 914 l 500 895 b 489 885 498 888 495 885 l 182 885 "},"°":{"ha":524,"x_min":0,"x_max":0,"o":"m 278 573 b 136 738 190 573 136 637 b 342 967 136 867 226 967 b 485 808 430 967 485 906 b 278 573 485 679 392 573 m 281 606 b 451 803 373 606 451 696 b 336 934 451 884 408 934 b 170 741 243 934 170 850 b 281 606 170 657 212 606 "},"±":{"ha":918,"x_min":0,"x_max":0,"o":"m 425 325 b 414 337 416 325 414 328 l 449 533 l 179 533 b 170 544 171 533 168 536 l 172 557 b 183 567 173 565 175 567 l 455 567 l 492 769 b 503 779 492 777 495 779 l 517 779 b 527 768 525 779 528 776 l 491 567 l 759 567 b 769 555 767 567 770 564 l 767 543 b 754 533 765 535 762 533 l 485 533 l 450 335 b 438 325 449 327 447 325 l 425 325 m 119 191 b 110 203 111 191 108 194 l 112 215 b 123 226 113 224 115 226 l 698 226 b 709 214 707 226 709 222 l 707 201 b 694 191 705 193 702 191 l 119 191 "},"´":{"ha":356,"x_min":0,"x_max":0,"o":"m 156 836 b 159 851 152 843 153 848 l 378 1003 b 395 1001 386 1008 389 1008 l 402 992 b 400 977 407 986 406 981 l 175 827 b 160 829 167 822 164 824 "},"µ":{"ha":740,"x_min":0,"x_max":0,"o":"m -14 -306 b -22 -295 -20 -306 -23 -302 l 154 700 b 166 710 155 708 159 710 l 183 710 b 192 699 190 710 194 706 l 112 247 b 273 16 86 96 134 16 b 478 56 362 16 435 35 b 520 108 508 70 516 85 l 624 700 b 636 710 626 708 629 710 l 653 710 b 662 699 659 710 663 706 l 556 99 b 498 25 549 57 537 43 b 275 -20 446 1 374 -20 b 88 111 171 -20 100 22 l 16 -296 b 6 -306 16 -304 14 -306 l -14 -306 "},"¶":{"ha":446,"x_min":0,"x_max":0,"o":"m 89 -124 b 81 -113 81 -124 79 -120 l 238 772 b 168 880 187 772 157 816 b 274 986 180 944 222 986 l 388 986 b 398 975 396 986 399 983 l 205 -114 b 194 -124 205 -122 203 -124 l 174 -124 b 165 -113 166 -124 163 -120 l 351 946 l 310 946 l 122 -114 b 111 -124 120 -122 120 -124 l 89 -124 "},"·":{"ha":297,"x_min":0,"x_max":0,"o":"m 110 333 b 86 363 88 333 81 339 l 87 369 b 119 398 93 391 99 398 l 127 398 b 151 368 149 398 155 389 l 150 361 b 118 333 144 340 138 333 l 110 333 "},"¸":{"ha":354,"x_min":0,"x_max":0,"o":"m 33 -339 b -62 -302 -18 -339 -48 -316 b -67 -288 -68 -297 -69 -294 l -65 -278 b -57 -274 -64 -273 -61 -271 b 32 -311 -38 -291 -11 -311 b 150 -213 95 -311 145 -284 b 80 -138 153 -165 128 -138 b 30 -145 62 -138 44 -141 b 18 -132 20 -147 14 -139 l 81 0 l 110 0 l 54 -118 b 100 -113 66 -114 84 -112 b 184 -214 158 -114 189 -153 b 33 -339 178 -299 116 -339 "},"º":{"ha":524,"x_min":0,"x_max":0,"o":"m 263 494 b 135 658 160 494 116 556 l 154 768 b 336 931 172 869 235 931 b 465 767 441 931 483 867 l 446 657 b 263 494 428 555 366 494 m 265 526 b 414 658 347 526 398 575 l 433 768 b 333 899 447 849 415 899 b 186 767 253 899 200 849 l 167 657 b 265 526 152 574 186 526 "},"»":{"ha":749,"x_min":0,"x_max":0,"o":"m 25 81 b 25 94 20 85 20 90 l 320 365 l 123 637 b 123 652 119 643 117 646 l 136 662 b 149 661 142 667 146 665 l 359 371 b 358 357 362 366 363 361 l 47 71 b 34 71 41 65 39 66 m 306 81 b 306 94 301 85 301 90 l 600 365 l 404 637 b 405 652 400 643 399 647 l 417 662 b 429 661 423 666 427 665 l 639 372 b 637 357 643 366 642 361 l 328 71 b 314 71 322 65 319 66 "},"¼":{"ha":1035,"x_min":0,"x_max":0,"o":"m 247 444 b 238 455 239 444 237 447 l 326 949 l 158 861 b 146 865 152 858 149 860 l 140 876 b 145 890 137 883 139 887 l 332 988 b 346 992 338 991 341 992 l 357 992 b 365 981 365 992 366 988 l 272 454 b 260 444 270 446 268 444 l 247 444 m 130 0 b 125 13 121 0 117 5 l 892 976 b 911 986 899 985 900 986 l 924 986 b 930 974 933 986 937 982 l 165 11 b 143 0 157 1 155 0 l 130 0 m 777 0 b 768 10 770 0 767 3 l 795 164 l 538 164 b 529 173 530 164 528 166 l 531 185 b 537 198 531 190 532 193 l 850 541 b 870 549 858 549 861 549 l 885 549 b 894 536 894 549 895 546 l 833 194 l 901 194 b 910 184 909 194 910 191 l 908 174 b 898 164 906 166 905 164 l 828 164 l 801 9 b 790 0 799 2 797 0 l 777 0 m 800 194 l 856 505 l 573 194 "},"½":{"ha":1117,"x_min":0,"x_max":0,"o":"m 246 444 b 237 456 238 444 236 448 l 325 950 l 156 862 b 145 866 151 859 148 861 l 139 877 b 145 890 136 884 139 887 l 331 989 b 346 993 337 992 340 993 l 356 993 b 364 982 364 993 365 988 l 271 454 b 259 444 269 446 267 444 l 246 444 m 117 0 b 112 13 108 0 104 5 l 879 976 b 898 986 886 985 887 986 l 911 986 b 917 974 920 986 924 982 l 152 11 b 130 0 144 1 142 0 l 117 0 m 622 0 b 610 14 611 0 608 5 l 621 78 b 742 238 635 157 672 210 l 826 271 b 983 436 902 301 983 333 b 870 528 983 493 951 528 b 711 403 756 528 720 425 b 700 397 708 396 706 396 l 687 401 b 682 415 679 403 679 408 b 871 560 694 445 737 560 b 1016 440 971 560 1016 513 b 836 242 1016 320 942 285 l 756 210 b 658 84 702 188 671 153 l 649 32 l 933 32 b 943 21 942 32 943 28 l 941 10 b 929 0 939 2 937 0 l 622 0 "},"¾":{"ha":1103,"x_min":0,"x_max":0,"o":"m 266 435 b 104 592 155 435 109 487 b 109 602 104 599 105 600 l 124 605 b 134 597 130 607 133 605 b 267 466 140 504 182 466 b 427 618 365 466 427 524 b 344 712 427 670 400 712 l 252 712 b 245 723 246 712 243 716 l 247 734 b 256 743 249 741 250 743 l 346 743 b 460 879 422 743 460 807 b 352 974 460 937 419 974 b 182 848 273 974 222 943 b 167 842 178 841 175 839 l 158 845 b 155 861 152 848 151 852 b 356 1005 201 969 260 1005 b 492 886 441 1005 492 957 b 396 728 492 806 464 754 b 459 621 436 714 459 670 b 266 435 459 499 381 435 m 197 0 b 192 13 188 0 185 5 l 959 976 b 978 986 966 985 967 986 l 991 986 b 997 974 1000 986 1004 982 l 232 11 b 210 0 225 1 222 0 l 197 0 m 844 0 b 835 10 837 0 835 3 l 862 164 l 605 164 b 596 173 598 164 595 166 l 598 185 b 604 198 599 190 600 193 l 918 541 b 937 549 925 549 929 549 l 952 549 b 961 536 961 549 963 546 l 900 194 l 969 194 b 977 184 976 194 978 191 l 975 174 b 965 164 973 166 973 164 l 895 164 l 868 9 b 857 0 866 2 864 0 l 844 0 m 867 194 l 923 505 l 640 194 "},"¿":{"ha":804,"x_min":0,"x_max":0,"o":"m 485 649 b 461 679 463 649 456 655 b 462 686 461 681 462 684 b 494 715 468 708 474 715 l 502 715 b 526 684 524 715 530 705 b 525 678 526 683 525 680 b 493 649 519 656 513 649 l 485 649 m 281 -322 b 33 -34 91 -322 5 -193 b 265 280 63 144 168 214 b 446 516 342 332 423 389 b 457 524 447 524 450 524 l 474 524 b 481 511 481 524 484 522 b 285 248 456 365 372 308 b 74 -38 196 190 103 128 b 284 -285 50 -175 121 -285 b 597 -78 436 -285 534 -198 b 611 -74 602 -72 604 -71 l 629 -79 b 634 -95 636 -82 637 -85 b 281 -322 564 -225 454 -322 "},"À":{"ha":864,"x_min":0,"x_max":0,"o":"m 446 1212 b 445 1227 439 1216 437 1220 l 455 1236 b 475 1236 464 1244 468 1241 l 638 1084 b 640 1069 644 1079 647 1075 l 633 1062 b 617 1062 629 1058 624 1057 m -38 0 b -43 11 -45 0 -47 5 l 493 983 b 509 994 498 991 500 994 l 529 994 b 541 982 538 994 539 989 l 736 11 b 728 0 738 4 736 0 l 708 0 b 693 11 698 0 695 3 l 628 344 l 185 344 l -1 9 b -18 0 -5 2 -8 0 l -38 0 m 620 380 l 524 878 b 515 951 519 903 516 924 l 513 951 b 476 874 502 928 490 903 l 204 380 "},"Á":{"ha":864,"x_min":0,"x_max":0,"o":"m 426 1072 b 429 1088 420 1078 423 1084 l 646 1239 b 665 1238 654 1245 659 1244 l 672 1228 b 670 1214 677 1223 676 1217 l 445 1064 b 430 1065 437 1059 434 1061 m -38 0 b -43 11 -45 0 -47 5 l 493 983 b 509 994 498 991 500 994 l 529 994 b 541 982 538 994 539 989 l 736 11 b 728 0 738 4 736 0 l 708 0 b 693 11 698 0 694 3 l 628 344 l 185 344 l -1 9 b -18 0 -5 2 -8 0 l -38 0 m 620 380 l 524 878 b 515 951 519 903 516 924 l 512 951 b 476 874 502 928 490 903 l 204 380 "},"Â":{"ha":864,"x_min":0,"x_max":0,"o":"m 346 1064 b 341 1074 336 1064 335 1069 l 537 1235 b 559 1244 549 1243 550 1244 l 566 1244 b 585 1235 575 1244 577 1244 l 723 1073 b 717 1064 727 1068 727 1064 l 699 1064 b 683 1071 689 1064 687 1065 l 560 1214 l 384 1070 b 365 1064 376 1065 374 1064 l 346 1064 m -38 0 b -43 11 -45 0 -47 5 l 493 983 b 509 994 498 991 500 994 l 529 994 b 541 982 538 994 539 989 l 736 11 b 728 0 738 4 736 0 l 708 0 b 693 11 698 0 694 3 l 628 344 l 185 344 l -1 9 b -18 0 -5 2 -8 0 l -38 0 m 620 380 l 524 878 b 515 951 519 903 516 924 l 512 951 b 476 874 502 928 490 903 l 204 380 "},"Ã":{"ha":864,"x_min":0,"x_max":0,"o":"m 355 1078 b 348 1091 349 1078 347 1081 b 461 1212 360 1162 404 1212 b 630 1107 551 1212 557 1107 b 714 1205 673 1107 704 1149 b 721 1212 715 1210 716 1212 l 735 1212 b 742 1200 741 1212 743 1209 b 631 1078 729 1129 691 1078 b 461 1183 543 1078 538 1183 b 376 1085 422 1183 387 1143 b 369 1078 376 1080 374 1078 l 355 1078 m -38 0 b -43 11 -45 0 -47 5 l 493 983 b 509 994 498 991 500 994 l 529 994 b 541 982 538 994 539 989 l 736 11 b 728 0 738 4 736 0 l 708 0 b 693 11 698 0 694 3 l 628 344 l 185 344 l -1 9 b -18 0 -5 2 -8 0 l -38 0 m 620 380 l 524 878 b 515 951 519 903 516 924 l 512 951 b 476 874 502 928 490 903 l 204 380 "},"Ä":{"ha":864,"x_min":0,"x_max":0,"o":"m 421 1120 b 400 1143 402 1120 397 1125 l 401 1152 b 428 1174 404 1169 409 1174 l 436 1174 b 456 1151 452 1174 458 1167 l 454 1142 b 428 1120 452 1124 445 1120 l 421 1120 m 658 1120 b 637 1143 639 1120 634 1125 l 638 1152 b 666 1174 641 1169 647 1174 l 673 1174 b 693 1151 690 1174 695 1167 l 692 1142 b 666 1120 689 1124 682 1120 l 658 1120 m -38 0 b -43 11 -45 0 -47 5 l 493 983 b 509 994 498 991 500 994 l 529 994 b 541 982 538 994 539 989 l 736 11 b 728 0 738 4 736 0 l 708 0 b 693 11 698 0 694 3 l 628 344 l 185 344 l -1 9 b -18 0 -5 2 -8 0 l -38 0 m 620 380 l 524 878 b 515 951 519 903 516 924 l 512 951 b 476 874 502 928 490 903 l 204 380 "},"Å":{"ha":864,"x_min":0,"x_max":0,"o":"m -35 0 b -43 11 -45 0 -47 5 l 486 969 b 412 1091 432 980 401 1025 b 556 1218 424 1167 483 1218 b 656 1090 625 1218 669 1168 b 544 968 646 1026 604 978 l 736 10 b 727 0 736 4 737 0 l 711 0 b 693 11 699 0 694 3 l 628 344 l 185 344 l -1 9 b -20 0 -3 2 -7 0 l -35 0 m 518 988 b 630 1093 578 988 619 1030 b 556 1192 640 1153 607 1192 b 439 1088 494 1192 450 1151 b 518 988 429 1030 460 988 m 620 380 l 521 892 b 515 951 518 911 516 929 l 513 951 b 487 896 505 935 497 915 l 204 380 "},"Æ":{"ha":1115,"x_min":0,"x_max":0,"o":"m -58 0 b -66 11 -68 0 -69 5 l 659 976 b 679 986 665 984 670 986 l 1091 986 b 1100 974 1099 986 1101 983 l 1097 959 b 1086 948 1095 951 1093 948 l 704 948 l 628 518 l 951 518 b 960 506 959 518 962 514 l 958 490 b 946 480 957 483 954 480 l 621 480 l 543 38 l 941 38 b 951 26 950 38 953 34 l 948 10 b 937 0 946 3 945 0 l 510 0 b 499 12 501 0 497 3 l 545 271 l 174 271 l -19 10 b -39 0 -24 2 -27 0 l -58 0 m 550 306 l 661 924 l 203 306 "},"Ç":{"ha":872,"x_min":0,"x_max":0,"o":"m 319 -339 b 223 -302 268 -339 238 -316 b 218 -288 218 -297 217 -294 l 220 -278 b 229 -274 222 -273 225 -271 b 318 -311 248 -291 275 -311 b 435 -213 381 -311 430 -284 b 367 -138 439 -166 414 -139 b 316 -145 348 -138 330 -141 b 304 -132 306 -147 300 -139 l 358 -19 b 82 321 141 -17 44 113 l 143 668 b 540 1006 180 877 316 1006 b 833 759 743 1006 818 920 b 826 747 834 752 833 749 l 809 742 b 796 751 802 740 798 742 b 538 968 778 897 715 968 b 183 668 337 968 215 853 l 121 318 b 369 19 89 134 172 19 b 708 248 552 19 642 102 b 724 252 712 253 715 255 l 740 246 b 745 229 747 244 749 240 b 387 -19 674 75 577 -13 l 340 -118 b 388 -114 353 -114 372 -113 b 470 -214 445 -116 475 -154 b 319 -339 464 -299 402 -339 "},"È":{"ha":782,"x_min":0,"x_max":0,"o":"m 427 1212 b 426 1227 420 1216 418 1220 l 437 1236 b 456 1236 445 1244 449 1241 l 619 1084 b 621 1069 625 1079 628 1075 l 614 1062 b 598 1062 610 1058 605 1057 m 66 0 b 57 11 58 0 56 3 l 227 976 b 239 986 229 984 232 986 l 756 986 b 766 975 765 986 767 983 l 763 959 b 752 948 761 951 760 948 l 263 948 l 187 519 l 621 519 b 629 508 628 519 631 516 l 626 491 b 615 481 625 484 622 481 l 181 481 l 102 38 l 607 38 b 617 26 616 38 619 35 l 614 10 b 603 0 612 2 610 0 l 66 0 "},"É":{"ha":782,"x_min":0,"x_max":0,"o":"m 407 1072 b 410 1088 402 1078 404 1084 l 627 1239 b 646 1238 635 1245 640 1244 l 653 1228 b 651 1214 658 1223 657 1217 l 426 1064 b 411 1065 418 1059 415 1061 m 66 0 b 57 11 58 0 56 3 l 227 976 b 239 986 229 984 232 986 l 756 986 b 766 975 765 986 767 983 l 763 959 b 752 948 761 951 759 948 l 262 948 l 187 519 l 621 519 b 629 508 628 519 631 516 l 626 491 b 615 481 625 484 622 481 l 181 481 l 102 38 l 607 38 b 617 26 616 38 619 35 l 614 10 b 603 0 612 2 610 0 l 66 0 "},"Ê":{"ha":782,"x_min":0,"x_max":0,"o":"m 327 1064 b 322 1074 317 1064 316 1069 l 519 1235 b 540 1244 530 1243 531 1244 l 547 1244 b 566 1235 556 1244 559 1244 l 704 1073 b 698 1064 708 1068 708 1064 l 680 1064 b 664 1071 671 1064 668 1065 l 541 1214 l 365 1070 b 346 1064 358 1065 355 1064 l 327 1064 m 66 0 b 57 11 58 0 56 3 l 227 976 b 239 986 229 984 232 986 l 756 986 b 766 975 765 986 767 983 l 763 959 b 752 948 761 951 759 948 l 262 948 l 187 519 l 621 519 b 629 508 628 519 631 516 l 626 491 b 615 481 625 484 622 481 l 181 481 l 102 38 l 607 38 b 617 26 616 38 619 35 l 614 10 b 603 0 612 2 610 0 l 66 0 "},"Ë":{"ha":782,"x_min":0,"x_max":0,"o":"m 402 1120 b 381 1143 383 1120 378 1125 l 382 1152 b 410 1174 385 1169 390 1174 l 417 1174 b 437 1151 434 1174 439 1167 l 435 1142 b 409 1120 433 1124 426 1120 l 402 1120 m 639 1120 b 618 1143 620 1120 616 1125 l 620 1152 b 647 1174 622 1169 628 1174 l 654 1174 b 674 1151 671 1174 677 1167 l 673 1142 b 647 1120 670 1124 663 1120 l 639 1120 m 66 0 b 57 11 58 0 56 3 l 227 976 b 239 986 229 984 232 986 l 756 986 b 766 975 765 986 767 983 l 763 959 b 752 948 761 951 759 948 l 262 948 l 187 519 l 621 519 b 629 508 628 519 631 516 l 626 491 b 615 481 625 484 622 481 l 181 481 l 102 38 l 607 38 b 617 26 616 38 619 35 l 614 10 b 603 0 612 2 610 0 l 66 0 "},"Ì":{"ha":325,"x_min":0,"x_max":0,"o":"m 176 1212 b 175 1227 169 1216 167 1220 l 186 1236 b 205 1236 194 1244 198 1241 l 368 1084 b 371 1069 374 1079 377 1075 l 363 1062 b 347 1062 359 1058 354 1057 m 65 0 b 58 14 57 0 56 4 l 227 976 b 242 986 229 986 234 986 l 258 986 b 267 974 264 986 270 985 l 97 12 b 85 0 95 4 93 0 l 65 0 "},"Í":{"ha":325,"x_min":0,"x_max":0,"o":"m 156 1072 b 159 1088 151 1078 153 1084 l 377 1239 b 395 1238 385 1245 389 1244 l 402 1228 b 400 1214 407 1223 406 1217 l 175 1064 b 160 1065 167 1059 164 1061 m 65 0 b 58 14 57 0 56 4 l 227 976 b 241 986 229 986 234 986 l 258 986 b 267 974 264 986 270 985 l 97 12 b 85 0 95 4 93 0 l 65 0 "},"Î":{"ha":325,"x_min":0,"x_max":0,"o":"m 77 1064 b 71 1074 66 1064 65 1069 l 268 1235 b 289 1244 279 1243 280 1244 l 296 1244 b 315 1235 305 1244 308 1244 l 453 1073 b 447 1064 457 1068 457 1064 l 429 1064 b 413 1071 420 1064 418 1065 l 290 1214 l 114 1070 b 95 1064 107 1065 104 1064 l 77 1064 m 65 0 b 58 14 57 0 56 4 l 227 976 b 241 986 229 986 234 986 l 258 986 b 267 974 264 986 270 985 l 97 12 b 85 0 95 4 93 0 l 65 0 "},"Ï":{"ha":325,"x_min":0,"x_max":0,"o":"m 151 1120 b 130 1143 132 1120 128 1125 l 132 1152 b 159 1174 134 1169 139 1174 l 166 1174 b 186 1151 183 1174 189 1167 l 185 1142 b 159 1120 182 1124 175 1120 l 151 1120 m 389 1120 b 367 1143 369 1120 365 1125 l 369 1152 b 396 1174 371 1169 377 1174 l 403 1174 b 423 1151 420 1174 426 1167 l 422 1142 b 396 1120 419 1124 413 1120 l 389 1120 m 65 0 b 58 14 57 0 56 4 l 227 976 b 242 986 229 986 234 986 l 258 986 b 267 974 264 986 270 985 l 97 12 b 85 0 95 4 93 0 l 65 0 "},"Ð":{"ha":881,"x_min":0,"x_max":0,"o":"m 62 0 b 53 12 54 0 53 3 l 136 477 l 34 477 b 24 488 25 477 23 480 l 26 500 b 38 510 27 508 29 510 l 141 510 l 224 976 b 235 986 226 984 228 986 l 490 986 b 797 619 740 986 837 845 l 753 366 b 319 0 712 140 557 0 l 62 0 m 323 38 b 712 367 535 38 677 161 l 757 620 b 488 948 794 826 710 948 l 259 948 l 182 510 l 424 510 b 433 499 433 510 434 506 l 430 486 b 420 477 430 478 427 477 l 176 477 l 99 38 "},"Ñ":{"ha":946,"x_min":0,"x_max":0,"o":"m 398 1078 b 390 1091 392 1078 390 1081 b 503 1212 403 1162 447 1212 b 672 1107 593 1212 599 1107 b 756 1205 716 1107 747 1149 b 764 1212 758 1210 758 1212 l 778 1212 b 785 1200 784 1212 786 1209 b 674 1078 772 1129 733 1078 b 504 1183 585 1078 580 1183 b 419 1085 464 1183 429 1143 b 411 1078 419 1080 417 1078 l 398 1078 m 66 0 b 57 11 58 0 56 3 l 227 976 b 239 986 229 984 231 986 l 259 986 b 272 979 267 986 271 981 l 607 254 b 691 61 637 188 663 124 l 694 61 b 731 308 705 141 717 224 l 850 977 b 863 986 851 984 854 986 l 880 986 b 890 975 888 986 890 983 l 719 10 b 708 0 717 3 716 0 l 687 0 b 675 8 681 0 678 1 l 330 755 b 257 923 304 812 280 868 l 255 923 b 219 704 243 851 232 779 l 96 10 b 84 0 94 2 93 0 l 66 0 "},"Ò":{"ha":907,"x_min":0,"x_max":0,"o":"m 470 1226 b 469 1241 463 1230 462 1234 l 480 1250 b 499 1250 488 1257 492 1255 l 662 1098 b 665 1082 668 1093 671 1089 l 657 1076 b 642 1076 653 1072 648 1071 m 368 -20 b 82 320 142 -20 45 109 l 142 667 b 541 1006 180 877 317 1006 b 825 666 765 1006 861 880 l 765 319 b 368 -20 728 106 590 -20 m 368 18 b 724 322 563 18 690 127 l 785 666 b 541 968 818 858 736 968 b 182 664 343 968 215 853 l 122 320 b 368 18 89 131 173 18 "},"Ó":{"ha":907,"x_min":0,"x_max":0,"o":"m 450 1086 b 453 1102 445 1092 448 1098 l 671 1253 b 689 1251 679 1258 683 1258 l 696 1242 b 694 1228 701 1236 700 1231 l 469 1078 b 455 1079 461 1073 458 1075 m 368 -20 b 82 320 142 -20 45 109 l 142 667 b 541 1006 180 877 317 1006 b 825 666 765 1006 861 880 l 765 319 b 368 -20 728 106 590 -20 m 368 18 b 724 322 563 18 690 127 l 785 666 b 541 968 818 858 736 968 b 182 664 343 968 215 853 l 122 320 b 368 18 89 131 173 18 "},"Ô":{"ha":907,"x_min":0,"x_max":0,"o":"m 371 1078 b 365 1088 360 1078 359 1083 l 562 1249 b 583 1258 573 1257 574 1258 l 590 1258 b 609 1249 600 1258 602 1258 l 747 1087 b 741 1078 751 1082 751 1078 l 723 1078 b 707 1085 714 1078 712 1079 l 584 1228 l 409 1084 b 389 1078 401 1079 398 1078 l 371 1078 m 368 -20 b 82 320 142 -20 45 109 l 142 667 b 541 1006 180 877 317 1006 b 825 666 765 1006 861 880 l 764 319 b 368 -20 728 106 590 -20 m 368 18 b 724 322 563 18 690 127 l 785 666 b 541 968 818 858 736 968 b 182 664 342 968 215 853 l 122 320 b 368 18 89 131 173 18 "},"Õ":{"ha":907,"x_min":0,"x_max":0,"o":"m 380 1092 b 372 1105 373 1092 372 1095 b 485 1226 384 1176 428 1226 b 654 1121 575 1226 581 1121 b 738 1219 697 1121 729 1162 b 746 1226 740 1224 740 1226 l 760 1226 b 767 1214 766 1226 767 1223 b 656 1092 754 1143 715 1092 b 486 1197 567 1092 562 1197 b 401 1099 446 1197 411 1157 b 393 1092 401 1094 399 1092 l 380 1092 m 368 -20 b 82 321 142 -20 45 109 l 142 667 b 541 1006 180 877 317 1006 b 825 666 765 1006 861 880 l 765 319 b 368 -20 728 106 590 -20 m 368 18 b 724 322 563 18 690 127 l 785 666 b 541 968 818 858 736 968 b 182 665 343 968 215 853 l 122 320 b 368 18 89 131 173 18 "},"Ö":{"ha":907,"x_min":0,"x_max":0,"o":"m 445 1134 b 424 1157 426 1134 422 1139 l 426 1166 b 453 1188 428 1183 434 1188 l 460 1188 b 480 1164 477 1188 483 1181 l 479 1156 b 453 1134 476 1138 469 1134 l 445 1134 m 683 1134 b 661 1157 663 1134 659 1139 l 663 1166 b 690 1188 665 1183 671 1188 l 697 1188 b 717 1164 714 1188 720 1181 l 716 1156 b 690 1134 713 1138 707 1134 l 683 1134 m 368 -20 b 82 320 142 -20 45 109 l 142 667 b 541 1006 180 877 317 1006 b 825 666 765 1006 861 880 l 764 319 b 368 -20 728 106 590 -20 m 368 18 b 724 322 563 18 690 127 l 785 666 b 541 968 818 858 736 968 b 182 664 343 968 215 853 l 122 320 b 368 18 89 131 173 18 "},"×":{"ha":693,"x_min":0,"x_max":0,"o":"m 514 195 b 498 197 505 188 502 190 l 334 425 l 92 196 b 77 197 86 191 83 191 l 69 206 b 70 222 63 212 63 216 l 314 450 l 152 680 b 152 696 148 687 145 689 l 165 705 b 180 703 172 712 176 710 l 341 475 l 585 705 b 601 704 592 712 596 711 l 609 696 b 607 679 614 689 614 686 l 362 450 l 525 221 b 526 205 530 214 533 210 l 514 195 "},"Ø":{"ha":907,"x_min":0,"x_max":0,"o":"m 24 -61 b 20 -55 19 -61 18 -59 l 123 77 b 82 321 77 136 64 218 l 142 667 b 542 1006 180 877 319 1006 b 769 925 646 1006 721 978 l 853 1035 b 864 1040 856 1040 858 1040 l 887 1040 b 891 1034 892 1040 893 1037 l 790 903 b 825 666 830 844 843 764 l 765 319 b 368 -20 728 106 591 -20 b 143 55 266 -20 192 8 l 59 -56 b 47 -61 55 -62 55 -61 l 24 -61 m 745 892 b 540 968 703 942 638 968 b 182 665 341 968 215 853 l 124 329 b 153 117 108 241 117 170 m 369 18 b 724 322 569 18 692 133 l 783 658 b 762 863 799 741 792 813 l 169 89 b 369 18 210 43 279 18 "},"Ù":{"ha":935,"x_min":0,"x_max":0,"o":"m 481 1212 b 480 1227 474 1216 473 1220 l 491 1236 b 510 1236 499 1244 504 1241 l 673 1084 b 676 1069 679 1079 682 1075 l 668 1062 b 653 1062 664 1058 660 1057 m 379 -20 b 106 335 153 -20 68 119 l 219 976 b 231 986 221 984 224 986 l 250 986 b 259 975 258 986 260 983 l 146 333 b 381 18 112 142 185 18 b 732 335 580 18 698 142 l 845 976 b 857 986 847 984 850 986 l 876 986 b 885 975 884 986 886 983 l 772 333 b 379 -20 733 118 601 -20 "},"Ú":{"ha":935,"x_min":0,"x_max":0,"o":"m 461 1072 b 464 1088 456 1078 459 1084 l 682 1239 b 700 1238 690 1245 694 1244 l 707 1228 b 705 1214 712 1223 711 1217 l 480 1064 b 466 1065 472 1059 469 1061 m 379 -20 b 106 335 153 -20 68 119 l 219 976 b 231 986 221 984 224 986 l 250 986 b 259 975 258 986 260 983 l 146 333 b 381 18 112 142 185 18 b 732 335 580 18 698 142 l 845 976 b 857 986 847 984 850 986 l 876 986 b 885 975 884 986 886 983 l 772 333 b 379 -20 733 118 601 -20 "},"Û":{"ha":935,"x_min":0,"x_max":0,"o":"m 382 1064 b 376 1074 371 1064 370 1069 l 573 1235 b 594 1244 584 1243 586 1244 l 601 1244 b 620 1235 611 1244 613 1244 l 758 1073 b 752 1064 762 1068 762 1064 l 734 1064 b 718 1071 725 1064 723 1065 l 595 1214 l 420 1070 b 400 1064 412 1065 409 1064 l 382 1064 m 379 -20 b 106 335 153 -20 68 119 l 219 976 b 231 986 221 984 224 986 l 250 986 b 259 975 258 986 260 983 l 146 333 b 381 18 112 142 185 18 b 732 335 580 18 698 142 l 845 976 b 857 986 847 984 850 986 l 876 986 b 885 975 884 986 886 983 l 772 333 b 379 -20 733 118 601 -20 "},"Ü":{"ha":935,"x_min":0,"x_max":0,"o":"m 457 1120 b 435 1143 437 1120 433 1125 l 437 1152 b 464 1174 439 1169 445 1174 l 471 1174 b 491 1151 488 1174 494 1167 l 490 1142 b 464 1120 487 1124 480 1120 l 457 1120 m 694 1120 b 672 1143 675 1120 670 1125 l 674 1152 b 701 1174 676 1169 682 1174 l 708 1174 b 728 1151 725 1174 731 1167 l 727 1142 b 701 1120 725 1124 718 1120 l 694 1120 m 379 -20 b 106 335 153 -20 68 119 l 219 976 b 231 986 221 984 224 986 l 250 986 b 259 975 258 986 260 983 l 146 333 b 381 18 112 142 185 18 b 732 335 580 18 698 142 l 845 976 b 857 986 847 984 850 986 l 876 986 b 885 975 884 986 886 983 l 772 333 b 379 -20 733 117 601 -20 "},"Ý":{"ha":844,"x_min":0,"x_max":0,"o":"m 418 1072 b 421 1088 412 1078 415 1084 l 638 1239 b 656 1238 646 1245 651 1244 l 664 1228 b 662 1214 669 1223 668 1217 l 437 1064 b 422 1065 429 1059 426 1061 m 326 0 b 317 12 318 0 316 3 l 388 410 l 133 976 b 140 986 132 982 132 986 l 162 986 b 178 975 175 986 176 983 l 415 448 l 836 977 b 856 986 842 985 845 986 l 878 986 b 884 975 886 986 888 980 l 428 408 l 357 10 b 346 0 355 2 353 0 l 326 0 "},"Þ":{"ha":842,"x_min":0,"x_max":0,"o":"m 67 0 b 57 11 58 0 56 3 l 227 976 b 239 986 229 983 231 986 l 258 986 b 267 974 266 986 268 983 l 238 810 l 523 810 b 774 497 712 810 806 692 b 430 190 743 306 612 190 l 129 190 l 97 10 b 86 0 95 3 94 0 l 67 0 m 429 227 b 734 503 588 227 706 329 b 517 773 762 668 684 773 l 231 773 l 135 227 "},"ß":{"ha":751,"x_min":0,"x_max":0,"o":"m 50 0 b 42 12 42 0 41 5 l 172 753 b 463 1042 206 943 298 1042 b 680 772 630 1042 706 948 b 506 538 669 690 611 576 l 504 536 b 626 289 599 508 647 419 b 316 0 596 98 493 0 l 198 0 b 189 9 191 0 188 3 l 191 27 b 202 36 193 34 194 36 l 317 36 b 589 291 469 36 562 123 b 424 517 613 427 552 517 l 296 517 b 285 526 288 517 283 519 l 288 542 b 297 552 289 550 291 552 b 429 553 341 552 385 552 b 643 771 559 555 629 684 b 460 1006 669 923 603 1006 b 210 751 319 1006 240 919 l 79 10 b 68 0 77 2 75 0 l 50 0 "},"à":{"ha":697,"x_min":0,"x_max":0,"o":"m 279 1002 b 277 1016 274 1005 270 1010 l 289 1027 b 308 1025 297 1034 302 1031 l 471 874 b 474 858 477 869 480 863 l 466 852 b 451 852 462 847 458 848 m 250 -20 b 30 154 85 -20 30 46 b 319 396 30 328 145 396 b 527 378 409 396 498 383 b 549 526 545 477 549 499 b 372 695 551 623 504 695 b 145 576 262 695 196 645 b 131 572 140 571 138 569 l 117 579 b 116 595 110 583 111 588 b 378 729 180 683 255 729 b 586 528 533 729 589 644 b 515 96 584 476 575 443 b 451 17 506 48 493 35 b 250 -20 395 -7 331 -20 m 254 13 b 432 45 321 13 378 24 b 478 102 465 58 472 66 l 522 346 b 314 364 493 351 403 364 b 68 158 161 364 68 299 b 254 13 68 63 117 13 "},"á":{"ha":697,"x_min":0,"x_max":0,"o":"m 321 858 b 324 873 317 865 318 870 l 543 1025 b 560 1023 551 1030 554 1030 l 567 1014 b 565 1000 572 1008 571 1003 l 340 850 b 325 851 332 845 329 847 m 250 -20 b 30 154 85 -20 30 46 b 319 396 30 328 145 396 b 527 378 409 396 498 383 b 549 526 545 477 549 499 b 372 695 551 623 504 695 b 145 576 262 695 196 645 b 131 572 140 571 138 569 l 117 579 b 116 595 110 583 111 588 b 378 729 180 683 255 729 b 586 528 533 729 589 644 b 515 96 584 476 575 443 b 451 17 506 48 493 35 b 250 -20 395 -7 331 -20 m 254 13 b 432 45 321 13 378 24 b 478 102 465 58 472 66 l 522 346 b 314 364 493 351 403 364 b 68 158 161 364 68 299 b 254 13 68 63 117 13 "},"â":{"ha":697,"x_min":0,"x_max":0,"o":"m 220 840 b 215 849 211 840 209 845 l 411 1011 b 433 1020 422 1019 424 1020 l 439 1020 b 459 1010 449 1020 451 1019 l 597 848 b 591 840 601 844 601 840 l 573 840 b 557 847 563 840 561 841 l 434 991 l 258 846 b 239 840 251 841 248 840 l 220 840 m 250 -20 b 30 154 85 -20 30 46 b 319 396 30 328 145 396 b 527 378 409 396 498 383 b 549 526 545 477 549 499 b 372 695 551 623 504 695 b 145 576 262 695 196 645 b 131 572 140 571 138 569 l 117 579 b 116 595 110 583 111 588 b 378 729 180 683 255 729 b 586 528 533 729 589 644 b 515 96 584 476 575 443 b 451 17 506 48 493 35 b 250 -20 395 -7 331 -20 m 254 13 b 432 45 321 13 378 24 b 478 102 465 58 472 66 l 522 346 b 314 364 493 351 403 364 b 68 158 161 364 68 299 b 254 13 68 63 117 13 "},"ã":{"ha":697,"x_min":0,"x_max":0,"o":"m 230 863 b 223 876 224 863 221 866 b 334 997 239 946 267 997 b 504 892 426 997 435 892 b 589 990 550 892 588 934 b 597 997 589 995 591 997 l 610 997 b 616 985 616 997 617 994 b 506 863 612 911 567 863 b 337 968 419 863 408 968 b 252 870 284 968 267 923 b 244 863 250 865 249 863 l 230 863 m 250 -20 b 30 154 85 -20 30 46 b 319 396 30 328 145 396 b 527 378 409 396 498 383 b 549 526 545 477 549 499 b 372 695 551 623 504 695 b 145 576 262 695 196 645 b 131 572 140 571 138 569 l 117 579 b 116 595 110 583 111 588 b 378 729 180 683 255 729 b 586 528 533 729 589 644 b 515 96 584 476 575 443 b 451 17 506 48 493 35 b 250 -20 395 -7 331 -20 m 254 13 b 432 45 321 13 378 24 b 478 102 465 58 472 66 l 522 346 b 314 364 493 351 403 364 b 68 158 161 364 68 299 b 254 13 68 63 117 13 "},"ä":{"ha":697,"x_min":0,"x_max":0,"o":"m 296 907 b 274 935 276 907 269 913 l 275 942 b 305 969 280 962 285 969 l 312 969 b 335 940 332 969 338 960 l 333 934 b 303 907 328 914 323 907 l 296 907 m 531 907 b 508 935 510 907 503 913 l 509 942 b 539 969 514 962 520 969 l 546 969 b 569 940 567 969 573 960 l 568 934 b 538 907 563 914 557 907 l 531 907 m 250 -20 b 30 154 85 -20 30 46 b 319 396 30 328 145 396 b 527 378 409 396 498 383 b 549 526 545 477 549 499 b 372 695 551 623 504 695 b 145 576 262 695 196 645 b 131 572 140 571 138 569 l 117 579 b 116 595 110 583 111 588 b 378 729 180 683 255 729 b 586 528 533 729 589 644 b 515 96 584 476 575 443 b 451 17 506 48 493 35 b 250 -20 395 -7 331 -20 m 254 13 b 432 45 321 13 378 24 b 478 102 465 58 472 66 l 522 346 b 314 364 493 351 403 364 b 68 158 161 364 68 299 b 254 13 68 63 117 13 "},"å":{"ha":697,"x_min":0,"x_max":0,"o":"m 404 804 b 300 929 330 804 288 853 b 440 1055 313 1004 367 1055 b 538 929 510 1055 549 1006 b 404 804 527 855 473 804 m 406 829 b 514 932 461 829 504 869 b 440 1030 524 991 493 1030 b 326 928 382 1030 336 988 b 406 829 316 868 349 829 m 250 -20 b 30 154 85 -20 30 46 b 319 396 30 328 145 396 b 527 378 409 396 498 383 b 549 526 545 477 549 499 b 372 695 551 623 504 695 b 145 576 262 695 196 645 b 131 572 140 571 138 569 l 117 579 b 116 595 110 583 111 588 b 378 729 180 683 255 729 b 586 528 533 729 589 644 b 515 96 584 476 575 443 b 451 17 506 48 493 35 b 250 -20 395 -7 331 -20 m 254 13 b 432 45 321 13 378 24 b 478 102 465 58 472 66 l 522 346 b 314 364 493 351 403 364 b 68 158 161 364 68 299 b 254 13 68 63 117 13 "},"æ":{"ha":1068,"x_min":0,"x_max":0,"o":"m 238 -20 b 30 182 102 -20 19 31 b 320 397 40 329 139 397 b 485 376 394 397 459 381 b 503 473 491 411 498 443 b 367 697 522 594 522 697 b 141 575 266 697 201 656 b 129 573 138 571 134 570 l 117 579 b 114 592 111 584 110 586 b 369 729 176 683 253 729 b 539 574 500 729 537 663 b 780 729 584 672 659 729 b 993 554 918 729 996 663 b 707 307 986 369 846 307 b 514 340 637 307 582 319 l 496 240 b 645 11 472 101 503 11 b 899 165 757 11 840 71 b 912 167 903 170 908 169 l 927 158 b 928 145 931 155 931 151 b 643 -20 866 53 777 -20 b 466 91 540 -20 487 23 b 238 -20 426 38 361 -20 m 705 338 b 955 554 897 338 955 456 b 778 698 955 634 910 698 b 533 447 629 698 560 601 l 520 371 b 705 338 588 352 640 338 m 241 13 b 455 131 383 13 437 101 b 462 243 452 161 455 203 l 480 345 b 317 365 453 350 389 365 b 67 184 163 365 78 305 b 241 13 55 54 132 13 "},"ç":{"ha":706,"x_min":0,"x_max":0,"o":"m 218 -339 b 122 -302 167 -339 137 -316 b 118 -288 117 -297 116 -294 l 119 -278 b 128 -274 121 -273 124 -271 b 217 -311 147 -291 174 -311 b 334 -213 280 -311 329 -284 b 266 -138 338 -166 314 -139 b 215 -145 247 -138 230 -141 b 203 -132 205 -147 199 -139 l 257 -19 b 58 247 99 -12 29 86 l 97 465 b 401 729 125 630 229 729 b 628 535 557 729 616 659 b 621 523 628 527 627 525 l 605 518 b 594 525 597 515 593 518 b 401 694 581 642 532 694 b 132 464 250 694 158 606 l 94 245 b 278 15 69 105 133 15 b 535 191 407 15 477 72 b 548 198 540 199 540 201 l 565 193 b 569 176 571 191 573 187 b 285 -19 503 44 426 -17 l 239 -118 b 289 -115 253 -114 272 -113 b 369 -214 345 -117 374 -155 b 218 -339 363 -299 301 -339 "},"è":{"ha":715,"x_min":0,"x_max":0,"o":"m 300 1003 b 299 1018 295 1006 292 1011 l 310 1028 b 330 1026 319 1035 323 1032 l 492 875 b 495 859 498 870 501 864 l 488 853 b 472 853 484 849 479 849 l 300 1003 m 403 729 b 627 519 565 729 649 658 b 326 307 606 380 499 307 b 106 323 243 307 181 311 l 92 243 b 268 11 66 99 123 11 b 531 165 395 11 476 76 b 544 167 535 169 539 169 l 557 159 b 560 145 563 156 563 152 b 267 -20 498 54 413 -20 b 54 241 94 -20 28 81 b 89 444 64 304 76 368 b 403 729 120 624 234 729 m 590 520 b 400 698 609 639 538 698 b 128 446 258 698 156 606 l 112 354 b 324 338 187 341 259 338 b 590 520 469 338 568 395 "},"é":{"ha":715,"x_min":0,"x_max":0,"o":"m 342 859 b 345 875 338 866 340 871 l 564 1026 b 581 1024 572 1031 575 1031 l 588 1015 b 586 1001 593 1009 592 1004 l 361 851 b 347 852 353 846 350 848 m 403 729 b 627 519 565 729 649 658 b 326 307 606 380 499 307 b 106 323 243 307 181 311 l 92 243 b 268 11 66 99 122 11 b 531 165 395 11 476 76 b 544 167 535 169 539 169 l 557 159 b 560 145 563 156 563 152 b 267 -20 498 54 413 -20 b 54 241 94 -20 28 81 b 89 444 64 304 76 368 b 403 729 120 624 234 729 m 590 520 b 400 698 609 639 538 698 b 128 446 258 698 156 606 l 112 354 b 324 338 187 341 259 338 b 590 520 469 338 568 395 "},"ê":{"ha":715,"x_min":0,"x_max":0,"o":"m 242 841 b 236 851 232 841 230 846 l 433 1012 b 454 1021 444 1020 445 1021 l 461 1021 b 480 1012 470 1021 473 1021 l 618 850 b 612 841 622 845 622 841 l 594 841 b 578 848 585 841 583 842 l 455 992 l 279 847 b 260 841 273 842 269 841 l 242 841 m 403 729 b 627 519 565 729 649 658 b 326 307 606 380 499 307 b 106 323 243 307 181 311 l 92 243 b 268 11 66 99 122 11 b 531 165 395 11 476 76 b 544 167 535 169 539 169 l 557 159 b 560 145 563 156 563 152 b 267 -20 498 54 413 -20 b 54 241 94 -20 28 81 b 89 444 64 304 76 368 b 403 729 120 624 234 729 m 590 520 b 400 698 609 639 538 698 b 128 446 258 698 156 606 l 112 354 b 324 338 187 341 259 338 b 590 520 469 338 568 395 "},"ë":{"ha":715,"x_min":0,"x_max":0,"o":"m 318 908 b 295 937 297 908 290 914 l 296 943 b 326 970 301 963 307 970 l 333 970 b 356 942 354 970 360 961 l 355 935 b 325 908 350 915 344 908 l 318 908 m 552 908 b 529 937 532 908 525 914 l 531 943 b 561 970 536 963 541 970 l 568 970 b 591 942 588 970 594 961 l 589 935 b 559 908 584 915 579 908 l 552 908 m 403 729 b 627 519 565 729 649 658 b 326 307 606 380 499 307 b 106 323 243 307 181 311 l 92 243 b 268 11 66 99 122 11 b 531 165 395 11 476 76 b 544 167 535 169 539 169 l 557 159 b 560 145 563 156 563 152 b 267 -20 498 54 413 -20 b 54 241 94 -20 28 81 b 89 444 64 304 76 368 b 403 729 120 624 234 729 m 590 520 b 400 698 609 639 538 698 b 128 446 258 698 156 606 l 112 354 b 324 338 187 341 259 338 b 590 520 469 338 568 395 "},"ì":{"ha":290,"x_min":0,"x_max":0,"o":"m 251 835 b 236 836 246 831 241 832 l 92 978 b 91 995 84 984 84 989 l 100 1005 b 118 1004 106 1010 113 1009 l 257 855 b 257 842 262 851 262 847 l 251 835 m 50 0 b 42 11 43 0 41 4 l 164 700 b 176 710 165 707 169 710 l 192 710 b 201 699 200 710 202 706 l 79 10 b 67 0 77 3 75 0 l 50 0 "},"í":{"ha":290,"x_min":0,"x_max":0,"o":"m 128 838 b 131 851 124 843 125 847 l 327 998 b 346 996 334 1003 340 1003 l 352 988 b 349 972 357 982 359 979 l 148 830 b 134 831 141 826 138 827 m 50 0 b 42 11 43 0 41 4 l 164 700 b 176 710 165 707 169 710 l 192 710 b 201 699 200 710 202 706 l 79 10 b 67 0 77 3 75 0 l 50 0 "},"î":{"ha":290,"x_min":0,"x_max":0,"o":"m 70 838 b 64 848 61 838 61 843 l 206 994 b 229 1006 215 1004 219 1006 l 235 1006 b 256 992 246 1006 250 1004 l 345 847 b 339 838 347 842 348 838 l 324 838 b 307 845 314 838 309 839 l 230 977 l 106 844 b 87 838 100 837 96 838 l 70 838 m 50 0 b 42 11 43 0 41 4 l 164 700 b 176 710 165 707 169 710 l 192 710 b 201 699 200 710 202 706 l 79 10 b 67 0 77 3 75 0 l 50 0 "},"ï":{"ha":290,"x_min":0,"x_max":0,"o":"m 159 900 b 140 923 142 900 136 905 l 141 932 b 166 954 144 949 149 954 l 174 954 b 193 931 191 954 196 946 l 192 922 b 167 900 189 905 185 900 l 159 900 m 265 900 b 246 923 248 900 242 905 l 247 932 b 272 954 250 949 255 954 l 280 954 b 300 931 297 954 302 946 l 298 922 b 273 900 296 905 291 900 l 265 900 m 50 0 b 42 11 43 0 41 4 l 164 700 b 176 710 166 707 169 710 l 192 710 b 201 699 200 710 202 706 l 79 10 b 67 0 77 3 75 0 l 50 0 "},"ð":{"ha":754,"x_min":0,"x_max":0,"o":"m 283 -20 b 56 240 102 -20 27 79 l 93 449 b 398 709 122 612 224 709 b 614 567 517 709 596 655 b 568 910 643 730 631 840 l 434 793 b 424 793 429 788 428 788 l 416 800 b 416 813 411 805 410 808 l 548 926 b 301 994 496 971 416 994 b 289 1005 291 994 287 997 l 292 1019 b 302 1028 294 1026 295 1028 b 574 954 428 1028 518 1003 l 670 1036 b 681 1036 675 1041 677 1040 l 689 1028 b 689 1016 693 1025 694 1021 l 595 936 b 649 563 666 859 680 734 l 592 238 b 283 -20 562 73 460 -20 m 285 16 b 554 240 436 16 531 101 l 592 449 b 398 673 617 590 546 673 b 130 447 244 673 154 588 l 93 239 b 285 16 69 99 135 16 "},"ñ":{"ha":750,"x_min":0,"x_max":0,"o":"m 258 865 b 251 877 252 865 249 867 b 362 998 267 947 295 998 b 532 893 454 998 462 893 b 617 992 577 893 616 935 b 625 998 617 996 619 998 l 638 998 b 644 986 644 998 645 995 b 534 865 640 912 595 865 b 364 969 447 865 436 969 b 279 871 312 969 295 924 b 272 865 278 867 277 865 l 258 865 m 46 0 b 38 11 40 0 37 3 l 144 610 b 202 685 151 651 164 668 b 430 729 252 706 325 729 b 625 463 598 729 654 632 l 545 10 b 534 0 543 3 541 0 l 517 0 b 508 11 509 0 507 3 l 587 462 b 425 695 614 612 567 695 b 221 654 337 695 263 674 b 180 602 190 640 184 625 l 75 10 b 64 0 73 3 71 0 l 46 0 "},"ò":{"ha":738,"x_min":0,"x_max":0,"o":"m 304 1002 b 302 1016 298 1005 295 1010 l 313 1027 b 333 1025 322 1034 326 1031 l 496 874 b 498 858 501 869 505 863 l 491 852 b 475 852 487 847 482 848 m 280 -20 b 54 218 120 -20 29 71 l 104 494 b 406 729 131 646 243 729 b 634 492 567 729 659 636 l 585 216 b 280 -20 560 69 439 -20 m 281 15 b 548 217 420 15 526 92 l 598 495 b 403 695 620 618 538 695 b 141 493 264 695 162 617 l 92 215 b 281 15 69 92 149 15 "},"ó":{"ha":738,"x_min":0,"x_max":0,"o":"m 345 858 b 348 873 341 865 343 870 l 567 1025 b 584 1023 575 1030 578 1030 l 592 1014 b 589 1000 597 1008 595 1003 l 365 850 b 350 851 357 845 354 847 m 280 -20 b 54 218 120 -20 29 71 l 104 494 b 406 729 131 646 243 729 b 634 492 567 729 659 636 l 585 216 b 280 -20 560 69 439 -20 m 281 15 b 548 217 420 15 526 92 l 598 495 b 403 695 620 618 538 695 b 141 493 264 695 162 617 l 92 215 b 281 15 69 92 149 15 "},"ô":{"ha":738,"x_min":0,"x_max":0,"o":"m 245 840 b 239 849 235 840 233 845 l 436 1011 b 457 1020 447 1019 449 1020 l 464 1020 b 483 1010 474 1020 476 1019 l 621 848 b 615 840 625 844 625 840 l 597 840 b 581 847 588 840 586 841 l 458 991 l 283 846 b 263 840 276 841 272 840 l 245 840 m 280 -20 b 54 218 120 -20 29 71 l 104 494 b 406 729 131 646 243 729 b 634 492 567 729 659 636 l 585 216 b 280 -20 560 69 439 -20 m 281 15 b 548 217 420 15 526 92 l 598 495 b 403 695 620 618 538 695 b 141 493 264 695 162 617 l 92 215 b 281 15 69 92 149 15 "},"õ":{"ha":738,"x_min":0,"x_max":0,"o":"m 255 863 b 248 876 249 863 246 866 b 359 997 264 946 291 997 b 529 892 451 997 459 892 b 613 990 574 892 613 934 b 621 997 614 995 615 997 l 635 997 b 641 985 641 997 642 994 b 531 863 637 911 592 863 b 361 968 444 863 432 968 b 276 870 309 968 291 923 b 268 863 275 865 274 863 l 255 863 m 280 -20 b 54 218 120 -20 29 71 l 104 494 b 406 729 131 646 243 729 b 634 492 567 729 659 636 l 585 216 b 280 -20 560 69 439 -20 m 281 15 b 548 217 420 15 526 92 l 598 495 b 403 695 620 618 538 695 b 141 493 264 695 162 617 l 92 215 b 281 15 69 92 149 15 "},"ö":{"ha":738,"x_min":0,"x_max":0,"o":"m 321 907 b 298 935 300 907 293 913 l 300 942 b 329 969 304 962 310 969 l 336 969 b 359 940 357 969 363 960 l 358 934 b 328 907 353 914 347 907 l 321 907 m 555 907 b 533 935 535 907 528 913 l 534 942 b 564 969 539 962 545 969 l 571 969 b 594 940 591 969 597 960 l 592 934 b 563 907 587 914 582 907 l 555 907 m 280 -20 b 54 218 120 -20 29 71 l 104 494 b 406 729 131 646 243 729 b 634 492 567 729 659 636 l 585 216 b 280 -20 560 69 439 -20 m 281 15 b 548 217 420 15 526 92 l 598 495 b 403 695 620 618 538 695 b 141 493 264 695 162 617 l 92 215 b 281 15 69 92 149 15 "},"÷":{"ha":825,"x_min":0,"x_max":0,"o":"m 448 705 b 425 733 427 705 421 711 l 426 739 b 456 765 429 760 435 765 l 462 765 b 485 738 483 765 489 758 l 485 731 b 454 705 481 710 475 705 l 448 705 m 115 432 b 105 443 107 432 104 435 l 108 458 b 119 469 110 467 111 469 l 695 469 b 705 457 703 469 707 465 l 702 442 b 691 432 700 434 699 432 l 115 432 m 348 139 b 325 167 327 139 321 145 l 326 173 b 357 199 330 194 336 199 l 363 199 b 386 172 384 199 389 192 l 385 165 b 354 139 381 144 375 139 l 348 139 "},"ø":{"ha":738,"x_min":0,"x_max":0,"o":"m 23 -51 b 20 -45 18 -51 18 -47 l 94 48 b 54 218 58 89 42 147 l 104 494 b 407 729 130 641 249 729 b 579 676 481 729 540 711 l 645 761 b 654 764 648 764 650 764 l 674 764 b 677 758 678 764 679 762 l 599 658 b 634 492 632 618 646 560 l 585 216 b 280 -20 560 69 440 -20 b 115 31 209 -20 153 -2 l 55 -46 b 43 -51 51 -50 49 -51 l 23 -51 m 556 645 b 404 695 522 677 470 695 b 141 493 270 695 162 617 b 93 223 125 402 108 311 b 121 85 82 163 94 117 m 282 15 b 548 217 420 15 527 93 b 596 485 564 306 581 397 b 570 622 606 545 597 588 l 136 62 b 282 15 169 31 221 15 "},"ù":{"ha":750,"x_min":0,"x_max":0,"o":"m 309 1002 b 307 1016 304 1005 301 1010 l 319 1027 b 338 1025 327 1034 332 1031 l 501 874 b 504 858 507 869 510 863 l 497 852 b 481 852 492 847 488 848 m 271 -20 b 77 247 103 -20 48 80 l 157 700 b 168 710 157 708 161 710 l 185 710 b 194 699 193 710 195 707 l 114 247 b 275 16 87 96 134 16 b 482 56 369 16 439 35 b 522 109 511 70 518 85 l 627 700 b 638 710 628 707 631 710 l 655 710 b 664 699 662 710 665 707 l 558 100 b 500 25 551 58 540 42 b 271 -20 450 3 383 -20 "},"ú":{"ha":750,"x_min":0,"x_max":0,"o":"m 351 858 b 354 873 347 865 348 870 l 573 1025 b 590 1023 581 1030 584 1030 l 597 1014 b 595 1000 602 1008 601 1003 l 370 850 b 355 851 362 845 359 847 m 271 -20 b 77 247 103 -20 48 80 l 157 700 b 168 710 157 708 161 710 l 185 710 b 194 699 193 710 195 707 l 114 247 b 275 16 87 96 134 16 b 482 56 369 16 439 35 b 522 109 511 70 518 85 l 627 700 b 638 710 628 707 631 710 l 655 710 b 664 699 662 710 665 707 l 558 100 b 500 25 551 58 540 42 b 271 -20 450 3 383 -20 "},"û":{"ha":750,"x_min":0,"x_max":0,"o":"m 250 840 b 245 849 241 840 239 845 l 441 1011 b 463 1020 453 1019 454 1020 l 470 1020 b 489 1010 479 1020 481 1019 l 627 848 b 621 840 631 844 631 840 l 603 840 b 587 847 593 840 591 841 l 464 991 l 288 846 b 269 840 282 841 278 840 l 250 840 m 271 -20 b 77 247 103 -20 48 80 l 157 700 b 168 710 157 708 161 710 l 185 710 b 194 699 193 710 195 706 l 114 247 b 275 16 87 96 134 16 b 482 56 369 16 439 35 b 522 109 511 70 518 85 l 627 700 b 638 710 628 707 631 710 l 655 710 b 664 699 662 710 665 706 l 558 100 b 500 25 551 58 540 42 b 271 -20 450 3 383 -20 "},"ü":{"ha":750,"x_min":0,"x_max":0,"o":"m 326 907 b 304 935 306 907 299 913 l 305 942 b 335 969 310 962 316 969 l 342 969 b 365 940 362 969 369 960 l 363 934 b 334 907 358 914 353 907 l 326 907 m 561 907 b 538 935 540 907 533 913 l 540 942 b 569 969 544 962 550 969 l 577 969 b 599 940 597 969 603 960 l 598 934 b 568 907 593 914 587 907 l 561 907 m 271 -20 b 77 247 103 -20 48 80 l 157 700 b 168 710 157 708 161 710 l 185 710 b 194 699 193 710 195 706 l 114 247 b 275 16 87 96 134 16 b 482 56 369 16 439 35 b 522 109 511 70 518 85 l 627 700 b 638 710 628 707 631 710 l 655 710 b 664 699 662 710 665 706 l 558 100 b 500 25 551 58 540 42 b 271 -20 450 3 383 -20 "},"ý":{"ha":754,"x_min":0,"x_max":0,"o":"m 350 858 b 353 873 346 865 347 870 l 572 1025 b 588 1023 580 1030 583 1030 l 596 1014 b 594 1000 601 1008 600 1003 l 369 850 b 354 851 361 845 358 847 m 221 -357 b 10 -193 90 -357 34 -290 b 14 -179 8 -187 7 -182 l 29 -171 b 41 -176 35 -168 39 -170 b 222 -321 65 -260 108 -321 b 494 -59 383 -321 464 -220 l 511 37 b 270 -15 462 18 386 -15 b 78 251 103 -15 48 85 l 157 700 b 168 710 157 708 161 710 l 185 710 b 194 699 192 710 195 707 l 115 252 b 276 19 87 101 134 19 b 515 72 388 19 470 53 l 627 700 b 638 710 628 708 632 710 l 655 710 b 664 699 663 710 665 707 l 530 -58 b 221 -357 498 -240 408 -357 "},"þ":{"ha":736,"x_min":0,"x_max":0,"o":"m -4 -306 b -12 -295 -11 -306 -13 -302 l 219 1018 b 230 1028 221 1026 223 1028 l 247 1028 b 256 1017 255 1028 258 1024 l 195 674 b 417 729 227 691 309 729 b 628 452 593 729 659 631 l 591 245 b 308 -20 562 79 472 -20 b 85 44 195 -20 111 26 l 25 -295 b 14 -306 23 -303 21 -306 l -4 -306 m 309 16 b 554 248 451 16 529 98 l 591 453 b 412 695 618 612 564 695 b 189 636 303 695 220 653 l 92 82 b 309 16 119 62 202 16 "},"ÿ":{"ha":754,"x_min":0,"x_max":0,"o":"m 325 907 b 302 935 305 907 298 913 l 304 942 b 334 969 309 962 314 969 l 341 969 b 364 940 361 969 367 960 l 362 934 b 332 907 357 914 352 907 l 325 907 m 560 907 b 537 935 539 907 532 913 l 538 942 b 568 969 543 962 549 969 l 575 969 b 598 940 596 969 602 960 l 596 934 b 567 907 592 914 586 907 l 560 907 m 221 -357 b 10 -193 90 -357 34 -290 b 14 -179 8 -187 7 -182 l 29 -172 b 41 -176 35 -168 39 -170 b 222 -321 65 -260 108 -321 b 494 -59 383 -321 464 -220 l 511 37 b 270 -15 462 18 386 -15 b 78 251 103 -15 48 85 l 157 700 b 168 710 157 708 161 710 l 185 710 b 194 699 192 710 195 706 l 115 252 b 276 19 87 101 134 19 b 515 72 388 19 470 53 l 627 700 b 638 710 628 708 632 710 l 655 710 b 664 699 663 710 665 707 l 530 -58 b 221 -357 498 -240 408 -357 "},"Ā":{"ha":864,"x_min":0,"x_max":0,"o":"m 390 1126 b 382 1137 382 1126 380 1129 l 384 1147 b 396 1156 385 1155 389 1156 l 701 1156 b 709 1146 709 1156 711 1153 l 709 1135 b 697 1126 707 1128 703 1126 l 390 1126 m -38 0 b -43 11 -45 0 -47 5 l 493 983 b 509 994 498 991 500 994 l 529 994 b 541 982 538 994 539 989 l 736 11 b 728 0 738 4 736 0 l 708 0 b 693 11 698 0 694 3 l 628 344 l 185 344 l -1 9 b -18 0 -5 2 -8 0 l -38 0 m 620 380 l 524 878 b 515 951 519 903 516 924 l 512 951 b 476 874 502 928 490 903 l 204 380 "},"ā":{"ha":697,"x_min":0,"x_max":0,"o":"m 265 910 b 256 921 256 910 255 915 l 258 931 b 271 941 260 939 264 941 l 575 941 b 585 930 583 941 587 939 l 583 920 b 572 910 581 912 579 910 l 265 910 m 250 -20 b 30 154 85 -20 30 46 b 319 396 30 328 145 396 b 527 378 409 396 498 383 b 549 526 545 477 549 499 b 372 695 551 623 504 695 b 145 576 262 695 196 645 b 131 572 140 571 138 569 l 117 579 b 116 595 110 583 111 588 b 378 729 180 683 255 729 b 586 528 533 729 589 644 b 515 96 584 476 575 443 b 451 17 506 48 493 35 b 250 -20 395 -7 331 -20 m 254 13 b 432 45 321 13 378 24 b 478 102 465 58 472 66 l 522 346 b 314 364 493 351 403 364 b 68 158 161 364 68 299 b 254 13 68 63 117 13 "},"Ă":{"ha":864,"x_min":0,"x_max":0,"o":"m 535 1064 b 381 1223 438 1064 383 1113 b 385 1233 380 1229 380 1232 l 400 1237 b 411 1229 407 1239 410 1237 b 537 1096 412 1141 458 1096 b 713 1232 618 1096 673 1132 b 723 1236 717 1237 718 1238 l 739 1232 b 743 1220 744 1231 746 1228 b 535 1064 702 1113 634 1064 m -38 0 b -43 12 -45 0 -47 5 l 493 983 b 509 994 498 991 500 994 l 529 994 b 541 982 538 994 539 989 l 736 11 b 728 0 738 4 736 0 l 708 0 b 693 11 698 0 694 3 l 628 344 l 185 344 l -1 9 b -18 0 -5 2 -8 0 l -38 0 m 620 380 l 524 878 b 515 951 519 903 516 924 l 512 951 b 476 874 502 928 490 903 l 204 380 "},"ă":{"ha":697,"x_min":0,"x_max":0,"o":"m 407 847 b 251 1006 308 847 253 896 b 256 1016 250 1012 251 1015 l 272 1020 b 282 1011 278 1020 281 1019 b 408 879 283 919 327 879 b 583 1015 491 879 536 921 b 593 1019 586 1020 588 1021 l 611 1015 b 613 1003 616 1014 617 1011 b 407 847 562 900 504 847 m 250 -20 b 30 154 85 -20 30 46 b 319 396 30 328 145 396 b 527 378 409 396 498 383 b 549 526 545 477 549 499 b 372 695 551 623 504 695 b 145 576 262 695 196 645 b 131 572 140 571 138 569 l 117 579 b 116 595 110 583 111 588 b 378 729 180 683 255 729 b 586 528 533 729 589 644 b 515 96 584 476 575 443 b 451 17 506 48 493 35 b 250 -20 395 -7 331 -20 m 254 13 b 432 45 321 13 378 24 b 478 102 465 58 472 66 l 522 346 b 314 364 493 351 403 364 b 68 158 161 364 68 299 b 254 13 68 63 117 13 "},"Ą":{"ha":864,"x_min":0,"x_max":0,"o":"m 585 -344 b 513 -280 549 -344 519 -326 b 700 5 500 -194 596 -95 b 692 18 696 7 692 12 l 628 344 l 185 344 l -1 9 b -18 0 -5 2 -8 0 l -38 0 b -43 11 -45 0 -47 5 l 493 983 b 509 994 498 991 500 994 l 529 994 b 541 982 538 994 539 989 l 736 11 b 733 -1 737 5 736 1 b 548 -269 628 -106 539 -193 b 596 -312 550 -300 568 -312 b 689 -266 623 -312 653 -301 b 696 -269 692 -264 695 -265 l 702 -285 b 697 -297 704 -290 702 -293 b 585 -344 659 -331 620 -344 m 620 380 l 524 878 b 515 951 519 903 516 924 l 512 951 b 476 874 502 928 490 903 l 204 380 "},"ą":{"ha":697,"x_min":0,"x_max":0,"o":"m 342 -344 b 270 -280 308 -344 276 -327 b 433 12 261 -209 333 -99 b 249 -20 381 -8 322 -20 b 29 154 83 -20 29 46 b 317 396 29 328 143 396 b 526 378 408 396 497 383 b 548 526 543 477 547 499 b 371 695 549 623 503 695 b 143 576 261 695 195 645 b 130 572 139 571 136 569 l 116 579 b 114 595 109 583 109 588 b 377 729 179 683 254 729 b 585 528 532 729 588 644 b 513 92 583 478 573 437 b 478 24 505 54 491 39 b 305 -269 375 -89 300 -201 b 354 -312 308 -304 331 -312 b 446 -266 384 -312 418 -295 b 454 -269 449 -264 452 -265 l 459 -285 b 456 -295 461 -290 460 -292 b 342 -344 421 -328 380 -344 m 252 13 b 431 45 319 13 377 23 b 477 102 460 58 471 66 l 520 346 b 313 364 491 351 402 364 b 66 158 160 364 66 299 b 252 13 66 63 115 13 "},"Ć":{"ha":872,"x_min":0,"x_max":0,"o":"m 448 1072 b 451 1088 443 1078 445 1084 l 668 1239 b 687 1238 677 1245 681 1244 l 694 1228 b 692 1214 699 1223 698 1217 l 467 1064 b 452 1065 459 1059 456 1061 m 365 -20 b 82 321 143 -20 44 110 l 143 668 b 540 1006 180 877 316 1006 b 833 759 743 1006 819 920 b 826 747 835 752 833 749 l 808 742 b 795 751 801 740 796 742 b 538 968 780 895 715 968 b 183 668 337 968 215 853 l 121 318 b 369 19 89 134 172 19 b 708 248 552 19 642 102 b 724 252 711 255 715 255 l 740 246 b 745 229 747 244 749 240 b 365 -20 670 71 570 -20 "},"ć":{"ha":706,"x_min":0,"x_max":0,"o":"m 341 858 b 344 873 338 865 339 870 l 563 1025 b 580 1023 571 1030 575 1030 l 588 1014 b 586 1000 593 1008 592 1003 l 361 850 b 346 851 353 845 350 847 m 276 -20 b 58 247 103 -20 28 81 l 96 465 b 401 729 125 630 227 729 b 628 535 557 729 616 659 b 621 523 628 527 627 525 l 605 518 b 594 525 597 515 595 518 b 401 694 581 642 532 694 b 132 464 249 694 158 606 l 94 245 b 278 15 69 105 129 15 b 535 191 405 15 468 72 b 548 198 540 200 540 201 l 565 193 b 569 176 571 191 573 187 b 276 -20 501 43 421 -20 "},"Ĉ":{"ha":872,"x_min":0,"x_max":0,"o":"m 368 1064 b 363 1074 358 1064 357 1069 l 560 1235 b 581 1244 571 1243 572 1244 l 588 1244 b 607 1235 597 1244 600 1244 l 745 1073 b 739 1064 749 1068 749 1064 l 721 1064 b 705 1071 712 1064 709 1065 l 582 1214 l 406 1070 b 387 1064 399 1065 396 1064 l 368 1064 m 365 -20 b 82 321 143 -20 44 110 l 143 668 b 540 1006 180 877 316 1006 b 833 759 743 1006 819 920 b 826 747 835 752 833 749 l 808 742 b 795 751 801 740 796 742 b 538 968 780 895 715 968 b 183 668 337 968 215 853 l 121 318 b 369 19 89 134 172 19 b 708 248 552 19 642 102 b 724 252 711 255 715 255 l 740 246 b 745 229 747 244 749 240 b 365 -20 670 71 570 -20 "},"ĉ":{"ha":706,"x_min":0,"x_max":0,"o":"m 241 840 b 236 849 231 840 230 845 l 432 1011 b 454 1020 443 1019 445 1020 l 460 1020 b 479 1010 470 1020 472 1019 l 617 848 b 612 840 622 844 622 840 l 593 840 b 577 847 584 840 582 841 l 454 991 l 279 846 b 259 840 272 841 268 840 l 241 840 m 276 -20 b 58 247 103 -20 28 81 l 97 465 b 401 729 125 630 228 729 b 628 535 557 729 616 659 b 621 523 628 527 627 525 l 605 518 b 594 525 597 515 595 518 b 401 694 581 642 532 694 b 132 464 249 694 158 606 l 94 245 b 278 15 69 105 129 15 b 535 191 405 15 468 72 b 548 198 540 200 540 201 l 565 193 b 569 176 571 191 573 187 b 276 -20 501 43 421 -20 "},"Ċ":{"ha":872,"x_min":0,"x_max":0,"o":"m 561 1114 b 541 1138 543 1114 537 1119 l 542 1145 b 569 1168 546 1163 550 1168 l 574 1168 b 596 1143 593 1168 600 1161 l 595 1137 b 567 1114 591 1119 585 1114 l 561 1114 m 365 -20 b 82 321 143 -20 44 110 l 143 668 b 540 1006 180 877 316 1006 b 833 759 743 1006 819 920 b 826 747 835 752 833 749 l 808 742 b 795 751 801 740 796 742 b 538 968 780 895 715 968 b 183 668 337 968 215 853 l 121 318 b 369 19 89 134 172 19 b 708 248 552 19 642 102 b 724 252 711 255 715 255 l 740 246 b 745 229 747 244 749 240 b 365 -20 670 71 570 -20 "},"ċ":{"ha":706,"x_min":0,"x_max":0,"o":"m 432 909 b 411 937 413 909 406 914 l 413 945 b 441 972 418 965 423 972 l 454 972 b 475 943 474 972 479 963 l 474 936 b 445 909 469 915 464 909 l 432 909 m 276 -20 b 58 247 103 -20 28 81 l 96 465 b 401 729 125 630 227 729 b 628 535 557 729 616 659 b 621 523 628 527 627 525 l 605 518 b 594 525 597 515 595 518 b 401 694 581 642 532 694 b 132 464 249 694 158 606 l 94 245 b 278 15 69 105 129 15 b 535 191 405 15 468 72 b 548 198 540 200 540 201 l 565 193 b 569 176 571 191 573 187 b 276 -20 501 43 421 -20 "},"Č":{"ha":872,"x_min":0,"x_max":0,"o":"m 553 1064 b 533 1075 543 1064 540 1065 l 396 1235 b 402 1244 392 1240 391 1244 l 420 1244 b 436 1237 429 1244 431 1244 l 559 1093 l 734 1238 b 753 1244 742 1243 744 1244 l 772 1244 b 777 1234 783 1244 783 1239 l 581 1074 b 558 1064 568 1064 568 1064 l 553 1064 m 365 -20 b 82 320 143 -20 44 110 l 143 668 b 540 1006 180 877 316 1006 b 833 759 743 1006 819 920 b 826 747 835 752 833 749 l 808 742 b 795 751 801 740 796 742 b 538 968 780 895 715 968 b 183 668 337 968 215 853 l 121 318 b 369 19 89 134 172 19 b 708 248 552 19 642 102 b 724 252 711 255 715 255 l 740 246 b 745 229 747 244 749 240 b 365 -20 670 71 570 -20 "},"č":{"ha":706,"x_min":0,"x_max":0,"o":"m 414 839 b 393 850 403 839 401 841 l 256 1011 b 262 1020 252 1015 252 1020 l 280 1020 b 296 1013 289 1020 292 1019 l 419 868 l 595 1014 b 612 1020 601 1019 603 1020 l 633 1020 b 638 1010 642 1020 641 1014 l 441 850 b 418 839 428 840 428 839 l 414 839 m 276 -20 b 58 247 103 -20 28 81 l 96 465 b 401 729 125 630 227 729 b 628 535 557 729 616 659 b 621 523 628 527 627 525 l 605 518 b 594 525 597 515 595 518 b 401 694 581 642 532 694 b 132 464 249 694 158 606 l 94 245 b 278 15 69 105 129 15 b 535 191 405 15 468 72 b 548 198 540 200 540 201 l 565 193 b 569 176 571 191 573 187 b 276 -20 501 43 421 -20 "},"Ď":{"ha":885,"x_min":0,"x_max":0,"o":"m 525 1064 b 505 1075 515 1064 513 1065 l 368 1235 b 374 1244 364 1240 363 1244 l 392 1244 b 408 1237 401 1244 403 1244 l 531 1093 l 707 1238 b 725 1244 714 1243 716 1244 l 744 1244 b 749 1234 755 1244 756 1239 l 553 1074 b 530 1064 540 1064 540 1064 l 525 1064 m 66 0 b 57 11 58 0 56 3 l 227 976 b 239 986 229 984 232 986 l 494 986 b 801 619 744 986 841 845 l 756 366 b 324 0 716 140 562 0 l 66 0 m 327 38 b 716 367 538 38 681 161 l 761 620 b 491 948 798 826 714 948 l 263 948 l 102 38 "},"ď":{"ha":807,"x_min":0,"x_max":0,"o":"m 276 -20 b 60 259 97 -20 27 78 l 95 464 b 391 729 126 639 229 729 b 605 670 505 729 577 686 l 667 1018 b 678 1028 668 1025 670 1028 l 695 1028 b 704 1017 702 1028 706 1025 l 541 96 b 480 19 534 50 523 37 b 276 -20 431 -2 359 -20 m 752 804 b 745 814 744 804 742 807 l 831 1018 b 845 1028 833 1025 837 1028 l 859 1028 b 869 1015 869 1028 872 1023 l 777 814 b 762 804 772 806 770 804 l 752 804 m 278 16 b 459 51 355 16 419 34 b 506 105 495 66 500 72 l 599 634 b 393 694 575 650 503 694 b 132 462 250 694 160 616 l 97 258 b 278 16 67 97 127 16 "},"Đ":{"ha":881,"x_min":0,"x_max":0,"o":"m 62 0 b 53 12 54 0 53 3 l 136 477 l 34 477 b 24 488 25 477 23 480 l 26 500 b 38 510 27 508 29 510 l 141 510 l 224 976 b 235 986 226 984 228 986 l 490 986 b 797 619 740 986 837 845 l 753 366 b 319 0 712 140 557 0 l 62 0 m 323 38 b 712 367 535 38 677 161 l 757 620 b 488 948 794 826 710 948 l 259 948 l 182 510 l 424 510 b 433 499 433 510 434 506 l 430 486 b 420 477 430 478 427 477 l 176 477 l 99 38 "},"đ":{"ha":733,"x_min":0,"x_max":0,"o":"m 277 -20 b 61 259 98 -20 29 78 l 97 464 b 393 729 127 639 230 729 b 606 670 507 729 579 686 l 641 865 l 431 865 b 423 876 423 865 422 868 l 424 883 b 435 893 426 891 428 893 l 646 893 l 668 1018 b 679 1028 670 1025 672 1028 l 696 1028 b 705 1017 703 1028 707 1025 l 683 893 l 785 893 b 793 882 793 893 795 890 l 792 874 b 781 865 790 867 788 865 l 679 865 l 542 96 b 481 19 535 50 524 37 b 277 -20 433 -2 360 -20 m 279 16 b 460 51 356 16 421 34 b 508 105 496 66 501 72 l 600 634 b 394 694 576 650 504 694 b 134 462 251 694 161 616 l 98 258 b 279 16 68 97 128 16 "},"Ē":{"ha":782,"x_min":0,"x_max":0,"o":"m 371 1126 b 363 1137 364 1126 361 1129 l 365 1147 b 377 1156 366 1155 370 1156 l 682 1156 b 691 1146 690 1156 693 1153 l 690 1135 b 678 1126 688 1128 685 1126 l 371 1126 m 66 0 b 57 11 58 0 56 3 l 227 976 b 239 986 229 984 232 986 l 756 986 b 766 975 765 986 767 983 l 763 959 b 752 948 761 951 759 948 l 262 948 l 187 519 l 621 519 b 629 508 628 519 631 516 l 626 491 b 615 481 625 484 622 481 l 181 481 l 102 38 l 607 38 b 617 26 616 38 619 35 l 614 10 b 603 0 612 2 610 0 l 66 0 "},"ē":{"ha":715,"x_min":0,"x_max":0,"o":"m 287 911 b 277 922 278 911 277 916 l 279 933 b 292 942 281 940 285 942 l 597 942 b 606 931 604 942 608 940 l 604 921 b 593 911 602 914 600 911 l 287 911 m 403 729 b 627 519 565 729 649 658 b 326 307 606 380 499 307 b 106 323 243 307 181 311 l 92 243 b 268 11 66 99 122 11 b 531 165 395 11 476 76 b 544 167 535 169 539 169 l 557 159 b 560 145 563 156 563 152 b 267 -20 498 54 413 -20 b 54 241 94 -20 28 81 b 89 444 64 304 76 368 b 403 729 120 624 234 729 m 590 520 b 400 698 609 639 538 698 b 128 446 258 698 156 606 l 112 354 b 324 338 187 341 259 338 b 590 520 469 338 568 395 "},"Ĕ":{"ha":782,"x_min":0,"x_max":0,"o":"m 517 1064 b 362 1223 419 1064 364 1113 b 366 1233 361 1229 361 1232 l 381 1237 b 392 1229 388 1239 391 1237 b 518 1096 393 1141 439 1096 b 694 1232 600 1096 654 1132 b 704 1236 698 1237 699 1238 l 720 1232 b 724 1220 725 1231 727 1228 b 517 1064 683 1113 615 1064 m 66 0 b 57 11 58 0 56 3 l 227 976 b 239 986 229 984 232 986 l 756 986 b 766 975 765 986 767 983 l 763 959 b 752 948 761 951 759 948 l 262 948 l 187 519 l 621 519 b 629 508 628 519 631 516 l 626 491 b 615 481 625 484 622 481 l 181 481 l 102 38 l 607 38 b 617 26 616 38 619 35 l 614 10 b 603 0 612 2 610 0 l 66 0 "},"ĕ":{"ha":715,"x_min":0,"x_max":0,"o":"m 632 1016 b 635 1004 637 1015 638 1012 b 428 848 583 901 526 848 b 272 1007 329 848 275 897 b 278 1017 271 1013 273 1016 l 294 1021 b 303 1012 300 1022 302 1020 b 430 880 305 920 348 880 b 604 1017 512 880 558 922 b 614 1021 607 1022 609 1022 l 632 1016 m 403 729 b 627 519 565 729 649 658 b 326 307 606 380 499 307 b 106 323 243 307 181 311 l 92 243 b 268 11 66 99 122 11 b 531 165 395 11 476 76 b 544 167 535 169 539 169 l 557 159 b 560 145 563 156 563 152 b 267 -20 498 54 413 -20 b 54 241 94 -20 28 81 b 89 444 64 304 76 368 b 403 729 120 624 234 729 m 590 520 b 400 698 609 639 538 698 b 128 446 258 698 156 606 l 112 354 b 324 338 187 341 259 338 b 590 520 469 338 568 395 "},"Ė":{"ha":782,"x_min":0,"x_max":0,"o":"m 520 1114 b 500 1138 502 1114 496 1119 l 501 1145 b 528 1168 505 1163 509 1168 l 533 1168 b 555 1143 552 1168 559 1161 l 554 1137 b 526 1114 550 1119 544 1114 l 520 1114 m 66 0 b 57 11 58 0 56 3 l 227 976 b 239 986 229 984 232 986 l 756 986 b 766 975 765 986 767 983 l 763 959 b 752 948 761 951 760 948 l 263 948 l 187 519 l 621 519 b 629 508 628 519 631 516 l 626 491 b 615 481 625 484 622 481 l 181 481 l 102 38 l 607 38 b 617 27 616 38 619 35 l 614 10 b 603 0 612 2 610 0 l 66 0 "},"ė":{"ha":715,"x_min":0,"x_max":0,"o":"m 433 910 b 412 939 414 910 407 915 l 414 946 b 442 973 419 967 424 973 l 455 973 b 476 945 474 973 480 964 l 474 937 b 446 910 469 916 464 910 l 433 910 m 403 729 b 627 519 565 729 649 658 b 326 307 606 380 499 307 b 106 323 243 307 181 311 l 92 243 b 268 11 66 99 122 11 b 531 165 395 11 476 76 b 544 167 535 169 539 169 l 557 159 b 560 145 563 156 563 152 b 267 -20 498 54 413 -20 b 54 241 94 -20 28 81 b 89 444 64 304 76 368 b 403 729 120 624 234 729 m 590 520 b 400 698 609 639 538 698 b 128 446 258 698 156 606 l 112 354 b 324 338 187 341 259 338 b 590 520 469 338 568 395 "},"Ę":{"ha":782,"x_min":0,"x_max":0,"o":"m 461 -344 b 389 -281 424 -344 396 -326 b 573 0 376 -196 487 -76 l 66 0 b 57 12 58 0 56 3 l 227 976 b 239 986 229 984 231 986 l 757 986 b 766 974 764 986 767 983 l 763 959 b 752 948 761 951 760 948 l 262 948 l 187 519 l 621 519 b 629 507 628 519 631 516 l 626 491 b 615 481 625 484 622 481 l 181 481 l 102 38 l 607 38 b 618 26 615 38 619 35 l 615 10 b 610 -1 614 4 612 1 b 424 -269 534 -66 418 -196 b 472 -312 426 -300 444 -312 b 565 -266 500 -312 530 -301 b 573 -269 567 -265 571 -265 l 578 -285 b 572 -297 580 -290 578 -292 b 461 -344 537 -331 497 -344 "},"ę":{"ha":721,"x_min":0,"x_max":0,"o":"m 327 -344 b 254 -278 286 -344 256 -321 b 408 11 248 -202 311 -91 b 267 -20 369 -8 314 -20 b 54 241 94 -20 28 81 b 89 444 64 304 76 368 b 404 729 120 624 234 729 b 627 519 565 729 649 658 b 339 307 606 380 499 307 b 109 335 268 307 178 316 l 92 243 b 268 11 66 99 123 11 b 530 165 385 11 466 64 b 543 167 535 169 539 169 l 557 159 b 561 147 563 157 563 153 b 289 -263 481 33 290 -118 b 338 -312 288 -302 310 -312 b 430 -266 368 -312 400 -297 b 437 -271 434 -264 436 -265 l 443 -285 b 439 -295 443 -288 444 -291 b 327 -344 401 -330 362 -344 m 338 338 b 590 520 469 338 568 395 b 400 698 609 639 538 698 b 128 446 259 698 156 606 l 112 366 b 338 338 188 344 273 338 "},"Ě":{"ha":782,"x_min":0,"x_max":0,"o":"m 512 1064 b 492 1075 502 1064 499 1065 l 355 1235 b 361 1244 351 1240 350 1244 l 379 1244 b 395 1237 388 1244 390 1244 l 518 1093 l 693 1238 b 712 1244 701 1243 703 1244 l 731 1244 b 736 1234 742 1244 742 1239 l 540 1074 b 517 1064 527 1064 527 1064 l 512 1064 m 66 0 b 57 11 58 0 56 3 l 227 976 b 240 986 229 984 232 986 l 756 986 b 766 975 765 986 767 983 l 763 959 b 752 948 761 951 760 948 l 263 948 l 187 519 l 621 519 b 629 508 628 519 631 516 l 626 491 b 615 481 625 484 622 481 l 181 481 l 102 38 l 607 38 b 617 26 616 38 619 35 l 614 10 b 603 0 612 2 610 0 l 66 0 "},"ě":{"ha":715,"x_min":0,"x_max":0,"o":"m 633 1021 b 638 1011 643 1021 642 1016 l 442 851 b 419 841 429 841 429 841 l 414 841 b 394 852 404 841 401 842 l 257 1012 b 263 1021 253 1017 252 1021 l 281 1021 b 297 1014 290 1021 292 1021 l 420 869 l 596 1015 b 613 1021 602 1020 604 1021 l 633 1021 m 403 729 b 627 519 565 729 649 658 b 326 307 606 380 499 307 b 106 323 243 307 181 311 l 92 243 b 268 11 66 99 122 11 b 531 165 395 11 476 76 b 544 167 535 169 539 169 l 557 159 b 560 145 563 156 563 152 b 267 -20 498 54 413 -20 b 54 241 94 -20 28 81 b 89 444 64 304 76 368 b 403 729 120 624 234 729 m 590 520 b 400 698 609 639 538 698 b 128 446 258 698 156 606 l 112 354 b 324 338 187 341 259 338 b 590 520 469 338 568 395 "},"Ĝ":{"ha":894,"x_min":0,"x_max":0,"o":"m 369 1078 b 364 1088 359 1078 358 1083 l 561 1249 b 582 1258 572 1257 573 1258 l 589 1258 b 608 1249 598 1258 601 1258 l 746 1087 b 740 1078 750 1082 750 1078 l 722 1078 b 706 1085 713 1078 710 1079 l 583 1228 l 407 1084 b 388 1078 400 1079 397 1078 l 369 1078 m 368 -20 b 82 322 142 -20 44 111 l 143 668 b 540 1006 181 884 314 1006 b 833 762 738 1006 820 923 b 826 747 834 752 834 749 l 809 742 b 796 751 802 740 797 742 b 539 968 785 896 715 968 b 182 666 334 968 214 851 l 122 321 b 369 18 89 133 172 18 b 724 318 567 18 692 133 l 748 450 l 458 450 b 449 462 451 450 449 454 l 452 478 b 464 488 453 485 457 488 l 780 488 b 791 474 789 488 793 483 l 763 316 b 368 -20 727 109 586 -20 "},"ĝ":{"ha":733,"x_min":0,"x_max":0,"o":"m 251 840 b 246 849 242 840 240 845 l 442 1011 b 464 1020 453 1019 455 1020 l 470 1020 b 489 1010 480 1020 482 1019 l 627 848 b 622 840 632 844 632 840 l 603 840 b 587 847 594 840 592 841 l 464 991 l 289 846 b 269 840 282 841 278 840 l 251 840 m 206 -357 b -4 -192 76 -357 21 -287 b -1 -178 -7 -186 -7 -181 l 16 -170 b 29 -176 24 -166 26 -169 b 208 -321 53 -259 94 -321 b 476 -59 368 -321 447 -219 l 494 37 b 250 -15 440 11 363 -15 b 59 249 85 -15 31 84 l 95 453 b 401 729 127 635 223 729 b 594 690 486 729 552 711 b 631 613 631 672 640 659 l 512 -59 b 206 -357 480 -242 391 -357 m 257 19 b 499 76 373 19 446 49 l 592 605 b 566 659 599 638 596 644 b 398 695 533 676 474 695 b 132 451 245 695 161 612 l 96 249 b 257 19 70 102 117 19 "},"Ğ":{"ha":894,"x_min":0,"x_max":0,"o":"m 558 1078 b 404 1237 461 1078 406 1127 b 408 1247 403 1243 403 1246 l 423 1251 b 434 1243 430 1253 433 1251 b 560 1110 435 1155 481 1110 b 736 1246 642 1110 696 1146 b 746 1250 740 1251 741 1252 l 762 1246 b 766 1234 767 1245 769 1242 b 558 1078 725 1127 657 1078 m 368 -20 b 82 322 142 -20 44 111 l 143 668 b 540 1006 181 884 314 1006 b 833 762 738 1006 820 923 b 826 747 834 752 834 749 l 809 742 b 796 751 802 740 797 742 b 539 968 785 896 715 968 b 182 666 334 968 214 851 l 122 321 b 369 18 89 133 172 18 b 724 318 567 18 692 133 l 748 450 l 458 450 b 449 462 451 450 449 454 l 452 478 b 464 488 453 485 457 488 l 780 488 b 791 474 789 488 793 483 l 763 316 b 368 -20 727 109 586 -20 "},"ğ":{"ha":733,"x_min":0,"x_max":0,"o":"m 437 847 b 281 1006 339 847 284 896 b 287 1016 280 1012 282 1015 l 303 1020 b 313 1011 309 1020 312 1019 b 439 879 314 919 358 879 b 614 1015 522 879 567 921 b 624 1019 616 1020 618 1021 l 641 1015 b 644 1003 646 1014 648 1011 b 437 847 593 900 535 847 m 206 -357 b -4 -192 76 -357 21 -287 b -1 -178 -7 -186 -7 -181 l 16 -170 b 29 -176 24 -166 26 -169 b 208 -321 53 -259 94 -321 b 476 -59 368 -321 447 -219 l 494 37 b 250 -15 440 11 363 -15 b 59 249 85 -15 31 84 l 95 453 b 401 729 127 635 223 729 b 594 690 486 729 552 711 b 631 613 631 672 640 659 l 512 -59 b 206 -357 480 -242 391 -357 m 257 19 b 499 76 373 19 446 49 l 592 605 b 566 659 599 638 596 644 b 398 695 533 676 474 695 b 132 451 245 695 161 612 l 96 249 b 257 19 70 102 117 19 "},"Ġ":{"ha":894,"x_min":0,"x_max":0,"o":"m 562 1127 b 542 1152 544 1127 538 1133 l 543 1158 b 570 1182 547 1177 551 1182 l 575 1182 b 597 1157 594 1182 601 1175 l 596 1151 b 568 1127 592 1132 586 1127 l 562 1127 m 368 -20 b 82 322 142 -20 44 111 l 143 668 b 540 1006 181 884 314 1006 b 833 762 738 1006 820 923 b 826 747 834 752 834 749 l 809 742 b 796 751 802 740 797 742 b 539 968 785 896 715 968 b 182 666 334 968 214 851 l 122 321 b 369 18 89 133 172 18 b 724 318 567 18 692 133 l 748 450 l 458 450 b 449 462 451 450 449 454 l 452 478 b 464 488 453 485 457 488 l 780 488 b 791 474 789 488 793 483 l 763 316 b 368 -20 728 109 586 -20 "},"ġ":{"ha":733,"x_min":0,"x_max":0,"o":"m 442 909 b 421 937 423 909 416 914 l 423 945 b 451 972 428 965 433 972 l 464 972 b 485 943 484 972 489 963 l 484 936 b 456 909 479 915 474 909 l 442 909 m 206 -357 b -4 -192 76 -357 21 -287 b -1 -178 -7 -186 -7 -181 l 16 -170 b 29 -176 24 -166 26 -169 b 208 -321 53 -259 94 -321 b 476 -59 368 -321 447 -219 l 494 37 b 250 -15 440 11 363 -15 b 59 249 85 -15 31 84 l 95 453 b 401 729 127 635 223 729 b 594 690 486 729 552 711 b 631 613 631 672 640 659 l 512 -59 b 206 -357 480 -242 391 -357 m 257 19 b 499 76 373 19 446 49 l 592 605 b 566 659 599 638 596 644 b 398 695 533 676 474 695 b 132 451 245 695 161 612 l 96 249 b 257 19 70 102 117 19 "},"Ģ":{"ha":894,"x_min":0,"x_max":0,"o":"m 368 -20 b 82 322 142 -20 44 111 l 143 668 b 540 1006 181 884 314 1006 b 833 762 738 1006 820 923 b 826 747 834 752 834 749 l 809 742 b 796 751 802 740 797 742 b 539 968 785 896 715 968 b 182 666 334 968 214 851 l 122 321 b 369 18 89 133 172 18 b 724 318 567 18 692 133 l 748 450 l 458 450 b 449 462 451 450 449 454 l 452 478 b 464 488 453 485 457 488 l 780 488 b 791 474 789 488 793 483 l 763 316 b 368 -20 728 109 586 -20 m 246 -338 b 239 -327 237 -338 235 -335 l 335 -124 b 349 -114 338 -117 341 -114 l 365 -114 b 374 -126 375 -114 378 -119 l 272 -327 b 257 -338 268 -336 266 -338 l 246 -338 "},"ģ":{"ha":733,"x_min":0,"x_max":0,"o":"m 396 817 b 387 830 386 817 382 822 l 478 1009 b 494 1019 482 1018 485 1019 l 504 1019 b 511 1008 512 1019 514 1016 l 425 827 b 410 817 422 820 418 817 l 396 817 m 206 -357 b -4 -192 76 -357 21 -287 b -1 -178 -7 -186 -7 -181 l 16 -170 b 29 -176 24 -166 26 -169 b 208 -321 53 -259 94 -321 b 476 -59 368 -321 447 -219 l 494 37 b 250 -15 440 11 363 -15 b 59 249 85 -15 31 84 l 95 453 b 401 729 127 635 223 729 b 594 690 486 729 552 711 b 631 613 631 672 640 659 l 512 -59 b 206 -357 480 -242 391 -357 m 257 19 b 499 76 373 19 446 49 l 592 605 b 566 659 599 638 596 644 b 398 695 533 676 474 695 b 132 451 245 695 161 612 l 96 249 b 257 19 70 102 117 19 "},"Ĥ":{"ha":933,"x_min":0,"x_max":0,"o":"m 382 1064 b 376 1074 371 1064 370 1069 l 573 1235 b 594 1244 584 1243 585 1244 l 601 1244 b 620 1235 610 1244 613 1244 l 758 1073 b 752 1064 762 1068 762 1064 l 734 1064 b 718 1071 725 1064 723 1065 l 595 1214 l 419 1070 b 400 1064 412 1065 409 1064 l 382 1064 m 67 0 b 57 12 59 0 56 2 l 227 976 b 239 986 229 984 231 986 l 258 986 b 267 975 266 986 268 983 l 187 519 l 756 519 l 837 976 b 849 986 838 984 841 986 l 867 986 b 877 975 875 986 877 983 l 707 11 b 696 0 705 3 703 0 l 676 0 b 666 11 668 0 665 3 l 750 481 l 181 481 l 97 10 b 86 0 95 3 94 0 l 67 0 "},"ĥ":{"ha":754,"x_min":0,"x_max":0,"o":"m 65 1084 b 60 1094 54 1084 54 1089 l 256 1255 b 278 1264 267 1263 269 1264 l 284 1264 b 304 1254 294 1264 296 1263 l 442 1092 b 436 1084 446 1088 446 1084 l 417 1084 b 401 1091 408 1084 406 1085 l 278 1234 l 103 1090 b 84 1084 95 1085 92 1084 l 65 1084 m 51 0 b 42 11 44 0 41 3 l 219 1018 b 231 1028 221 1026 224 1028 l 248 1028 b 257 1017 255 1028 259 1024 l 196 675 b 437 729 262 706 342 729 b 629 464 603 729 658 631 l 549 10 b 538 0 547 2 545 0 l 520 0 b 512 11 513 0 511 4 l 591 463 b 429 695 618 614 571 695 b 191 638 342 695 261 673 l 79 10 b 68 0 77 2 75 0 l 51 0 "},"Ħ":{"ha":938,"x_min":0,"x_max":0,"o":"m 68 0 b 59 12 60 0 58 3 l 193 773 l 97 773 b 88 785 89 773 86 776 l 90 794 b 100 803 92 802 94 803 l 199 803 l 229 976 b 241 986 231 984 234 986 l 260 986 b 270 975 268 986 270 983 l 240 803 l 809 803 l 839 976 b 851 986 841 984 843 986 l 870 986 b 879 974 878 986 880 983 l 849 803 l 947 803 b 955 792 954 803 956 800 l 953 784 b 944 773 952 775 951 773 l 843 773 l 709 10 b 697 0 707 2 704 0 l 677 0 b 668 12 669 0 668 3 l 752 481 l 183 481 l 99 10 b 88 0 97 2 95 0 l 68 0 m 758 519 l 803 773 l 234 773 l 189 519 "},"ħ":{"ha":753,"x_min":0,"x_max":0,"o":"m 50 0 b 40 11 42 0 40 3 l 193 874 l 111 874 b 102 885 103 874 101 876 l 105 892 b 115 902 105 900 109 902 l 197 902 l 218 1018 b 228 1028 220 1026 221 1028 l 246 1028 b 255 1017 254 1028 257 1024 l 235 902 l 438 902 b 446 891 446 902 448 899 l 445 884 b 434 874 443 875 441 874 l 230 874 l 195 675 b 435 729 260 706 341 729 b 627 464 601 729 657 631 l 548 10 b 536 0 546 2 543 0 l 519 0 b 510 11 512 0 510 4 l 590 463 b 428 695 616 614 570 695 b 189 638 340 695 259 673 l 78 10 b 66 0 76 2 73 0 l 50 0 "},"Ĩ":{"ha":325,"x_min":0,"x_max":0,"o":"m 85 1078 b 78 1091 79 1078 78 1081 b 191 1212 90 1162 134 1212 b 360 1107 281 1212 287 1107 b 444 1205 403 1107 435 1149 b 452 1212 445 1210 446 1212 l 465 1212 b 473 1200 471 1212 473 1209 b 361 1078 460 1129 421 1078 b 192 1183 273 1078 268 1183 b 107 1085 152 1183 117 1143 b 99 1078 106 1080 104 1078 l 85 1078 m 65 0 b 58 14 57 0 56 4 l 227 976 b 242 986 229 986 234 986 l 258 986 b 267 974 264 986 270 985 l 97 12 b 85 0 95 4 93 0 l 65 0 "},"ĩ":{"ha":290,"x_min":0,"x_max":0,"o":"m 75 842 b 68 853 70 842 67 845 b 163 972 88 936 112 972 b 279 870 246 972 213 870 b 346 966 312 870 330 902 b 353 972 347 970 347 972 l 363 972 b 370 961 369 972 372 969 b 279 842 351 877 328 842 b 164 943 198 842 229 943 b 93 848 127 943 112 922 b 86 842 92 843 91 842 l 75 842 m 50 0 b 42 11 43 0 41 4 l 164 700 b 176 710 165 707 169 710 l 192 710 b 201 699 200 710 202 706 l 79 10 b 67 0 77 3 75 0 l 50 0 "},"Ī":{"ha":325,"x_min":0,"x_max":0,"o":"m 120 1126 b 112 1137 113 1126 110 1129 l 114 1147 b 126 1156 115 1155 119 1156 l 431 1156 b 440 1146 439 1156 442 1153 l 439 1135 b 427 1126 437 1128 434 1126 l 120 1126 m 65 0 b 58 14 57 0 56 4 l 227 976 b 241 986 229 986 234 986 l 258 986 b 267 974 264 986 270 985 l 97 12 b 85 0 95 4 93 0 l 65 0 "},"ī":{"ha":290,"x_min":0,"x_max":0,"o":"m 114 903 b 108 912 109 903 106 904 l 110 923 b 122 932 112 931 115 932 l 325 932 b 331 923 331 932 332 928 l 329 912 b 320 903 327 905 326 903 l 114 903 m 50 0 b 42 11 43 0 41 4 l 164 700 b 176 710 165 707 169 710 l 192 710 b 201 699 200 710 202 706 l 79 10 b 67 0 77 3 75 0 l 50 0 "},"Ĭ":{"ha":325,"x_min":0,"x_max":0,"o":"m 266 1064 b 111 1223 168 1064 114 1113 b 115 1233 110 1229 110 1232 l 130 1237 b 141 1229 137 1239 140 1237 b 267 1096 142 1141 188 1096 b 443 1232 349 1096 403 1132 b 453 1236 447 1237 448 1238 l 470 1232 b 473 1220 475 1231 476 1228 b 266 1064 432 1113 365 1064 m 65 0 b 58 14 57 0 56 4 l 227 976 b 241 986 229 986 234 986 l 258 986 b 267 974 264 986 270 985 l 97 12 b 85 0 95 4 93 0 l 65 0 "},"ĭ":{"ha":290,"x_min":0,"x_max":0,"o":"m 200 837 b 83 985 122 837 80 886 b 89 994 82 989 84 992 l 103 997 b 115 989 111 998 114 997 b 201 869 108 906 142 869 b 334 989 263 869 311 908 b 346 997 337 997 340 998 l 359 993 b 364 980 364 991 367 988 b 200 837 335 884 275 837 m 50 0 b 42 11 43 0 41 4 l 164 700 b 176 710 166 707 169 710 l 192 710 b 201 699 200 710 202 706 l 79 10 b 67 0 77 3 75 0 l 50 0 "},"Į":{"ha":325,"x_min":0,"x_max":0,"o":"m -2 -344 b -74 -280 -43 -344 -70 -320 b 64 1 -80 -209 -47 -112 b 61 27 56 2 57 8 l 227 976 b 240 986 229 984 231 986 l 258 986 b 267 974 266 986 269 983 l 99 13 b 94 0 97 5 97 2 b -40 -268 -4 -110 -45 -197 b 8 -312 -38 -305 -12 -312 b 102 -266 42 -312 73 -295 b 110 -269 105 -264 108 -265 l 115 -285 b 111 -296 117 -290 114 -293 b -2 -344 82 -322 45 -344 "},"į":{"ha":290,"x_min":0,"x_max":0,"o":"m 213 909 b 193 936 195 909 189 914 l 195 944 b 222 969 200 963 204 969 l 235 969 b 255 942 253 969 259 962 l 253 935 b 226 909 248 915 245 909 l 213 909 m -8 -344 b -80 -259 -62 -344 -84 -307 b 47 4 -72 -156 23 -24 b 42 11 42 3 41 7 l 164 700 b 175 710 164 707 167 710 l 192 710 b 201 699 200 710 203 706 l 80 17 b 76 1 78 9 78 5 b -45 -256 59 -22 -33 -152 b 3 -312 -48 -296 -28 -312 b 96 -266 30 -312 60 -301 b 104 -269 99 -264 102 -265 l 109 -285 b 104 -297 111 -289 110 -292 b -8 -344 68 -332 27 -344 "},"İ":{"ha":325,"x_min":0,"x_max":0,"o":"m 269 1114 b 249 1138 251 1114 245 1119 l 251 1145 b 277 1168 254 1163 258 1168 l 283 1168 b 304 1143 301 1168 308 1161 l 303 1137 b 275 1114 299 1119 294 1114 l 269 1114 m 65 0 b 58 14 57 0 56 4 l 227 976 b 241 986 229 986 234 986 l 258 986 b 267 974 264 986 270 985 l 97 12 b 85 0 95 4 93 0 l 65 0 "},"ı":{"ha":290,"x_min":0,"x_max":0,"o":"m 50 0 b 42 11 43 0 41 4 l 164 700 b 176 710 166 707 169 710 l 192 710 b 201 699 200 710 202 706 l 79 10 b 67 0 77 3 75 0 l 50 0 "},"Ĳ":{"ha":1053,"x_min":0,"x_max":0,"o":"m 65 0 b 58 14 57 0 56 4 l 227 976 b 242 986 229 986 234 986 l 258 986 b 267 974 264 986 270 985 l 97 12 b 85 0 95 4 93 0 l 65 0 m 538 -20 b 293 266 361 -20 290 85 b 301 280 293 272 293 279 l 322 283 b 332 272 329 284 331 282 b 543 19 328 108 387 19 b 844 298 710 19 815 134 l 963 976 b 975 986 965 984 968 986 l 994 986 b 1003 975 1002 986 1004 983 l 884 296 b 538 -20 849 103 732 -20 "},"ĳ":{"ha":581,"x_min":0,"x_max":0,"o":"m 453 909 b 432 937 434 909 427 914 l 434 945 b 462 972 439 965 444 972 l 475 972 b 496 943 495 972 500 963 l 495 936 b 466 909 490 915 485 909 l 453 909 m 213 909 b 193 936 195 909 189 914 l 195 944 b 222 969 200 963 204 969 l 235 969 b 255 942 253 969 259 962 l 253 935 b 226 909 248 915 245 909 l 213 909 m 45 -319 b 36 -308 36 -319 34 -316 l 38 -293 b 47 -283 39 -285 41 -283 b 276 -16 224 -283 246 -188 l 403 700 b 414 710 403 707 407 710 l 432 710 b 440 699 439 710 441 707 l 313 -18 b 45 -319 278 -212 248 -319 m 50 0 b 42 11 43 0 41 3 l 164 700 b 175 710 164 708 168 710 l 193 710 b 201 699 199 710 202 707 l 79 10 b 68 0 77 2 75 0 l 50 0 "},"Ĵ":{"ha":778,"x_min":0,"x_max":0,"o":"m 536 1064 b 531 1074 526 1064 525 1069 l 728 1235 b 749 1244 739 1243 740 1244 l 756 1244 b 775 1235 765 1244 768 1244 l 913 1073 b 907 1064 917 1068 917 1064 l 889 1064 b 873 1071 880 1064 877 1065 l 750 1214 l 574 1070 b 555 1064 567 1065 564 1064 l 536 1064 m 262 -20 b 18 266 85 -20 14 85 b 25 280 17 272 18 279 l 46 283 b 57 272 54 284 55 282 b 267 19 52 108 111 19 b 568 298 434 19 539 134 l 687 976 b 699 986 689 984 692 986 l 719 986 b 728 975 726 986 728 983 l 608 296 b 262 -20 573 103 456 -20 "},"ĵ":{"ha":290,"x_min":0,"x_max":0,"o":"m 69 838 b 62 848 59 838 59 843 l 206 994 b 229 1006 216 1003 219 1006 l 236 1006 b 257 992 246 1006 250 1004 l 347 847 b 341 838 350 842 351 838 l 326 838 b 309 845 316 838 312 839 l 230 977 l 105 844 b 85 838 98 838 95 838 l 69 838 m -194 -319 b -204 -308 -203 -319 -206 -316 l -201 -293 b -193 -283 -201 -285 -199 -283 b 36 -16 -15 -283 6 -188 l 163 700 b 174 710 164 707 167 710 l 192 710 b 200 699 199 710 201 707 l 73 -18 b -194 -319 39 -212 8 -319 "},"Ķ":{"ha":818,"x_min":0,"x_max":0,"o":"m 67 0 b 57 11 58 0 56 3 l 227 976 b 239 986 229 984 232 986 l 258 986 b 267 975 266 986 268 983 l 187 519 l 368 519 b 403 517 381 519 394 519 l 788 977 b 809 986 794 985 797 986 l 830 986 b 837 974 841 986 841 980 l 444 509 b 580 359 523 494 556 443 l 678 12 b 671 0 680 4 680 0 l 651 0 b 635 11 640 0 638 3 l 543 344 b 373 481 518 438 482 481 l 181 481 l 97 10 b 86 0 95 2 93 0 l 67 0 m 239 -338 b 232 -327 231 -338 229 -335 l 329 -124 b 343 -114 331 -117 335 -114 l 359 -114 b 368 -126 369 -114 371 -119 l 266 -327 b 251 -338 262 -336 259 -338 l 239 -338 "},"ķ":{"ha":679,"x_min":0,"x_max":0,"o":"m 50 0 b 42 11 43 0 41 3 l 219 1018 b 230 1028 221 1026 224 1028 l 248 1028 b 256 1017 255 1028 258 1024 l 145 383 l 315 383 l 329 383 l 602 701 b 621 710 609 709 611 710 l 640 710 b 646 697 651 710 651 704 l 365 376 b 466 267 426 364 451 328 l 535 11 b 529 0 537 4 538 0 l 512 0 b 496 9 500 0 498 2 l 431 252 b 313 349 414 319 384 349 l 139 349 l 79 10 b 68 0 77 2 75 0 l 50 0 m 153 -338 b 146 -327 145 -338 143 -335 l 242 -124 b 257 -114 245 -117 249 -114 l 272 -114 b 282 -126 282 -114 285 -119 l 180 -327 b 164 -338 175 -336 173 -338 l 153 -338 "},"ĸ":{"ha":619,"x_min":0,"x_max":0,"o":"m 50 0 b 41 11 43 0 41 3 l 163 700 b 175 710 164 708 167 710 l 192 710 b 201 699 199 710 201 706 l 127 281 l 547 701 b 569 710 555 710 558 710 l 587 710 b 593 697 597 710 599 705 l 310 413 l 481 13 b 474 0 484 4 485 0 l 457 0 b 443 10 448 0 445 1 l 280 386 l 117 230 l 79 10 b 67 0 77 2 75 0 l 50 0 "},"Ĺ":{"ha":710,"x_min":0,"x_max":0,"o":"m 157 1072 b 160 1088 152 1078 154 1084 l 377 1239 b 396 1238 386 1245 390 1244 l 403 1228 b 401 1214 408 1223 407 1217 l 176 1064 b 161 1065 168 1059 165 1061 m 66 0 b 57 11 58 0 56 3 l 227 976 b 239 986 229 984 231 986 l 259 986 b 267 975 266 986 268 983 l 102 38 l 574 38 b 584 26 583 38 586 34 l 581 10 b 570 0 579 3 577 0 l 66 0 "},"ĺ":{"ha":301,"x_min":0,"x_max":0,"o":"m 184 1088 b 187 1101 180 1093 181 1097 l 385 1227 b 403 1224 392 1231 398 1231 l 410 1215 b 407 1200 414 1209 416 1204 l 204 1079 b 190 1080 197 1075 194 1076 m 56 0 b 47 11 48 0 46 3 l 224 1018 b 236 1028 226 1026 229 1028 l 253 1028 b 262 1016 260 1028 264 1024 l 84 10 b 73 0 82 2 80 0 l 56 0 "},"Ļ":{"ha":710,"x_min":0,"x_max":0,"o":"m 66 0 b 57 11 58 0 56 3 l 227 976 b 239 986 229 984 231 986 l 259 986 b 267 975 266 986 268 983 l 102 38 l 574 38 b 584 26 583 38 586 34 l 581 10 b 570 0 579 3 577 0 l 66 0 m 193 -338 b 186 -327 185 -338 183 -335 l 283 -124 b 297 -114 285 -117 289 -114 l 312 -114 b 322 -126 322 -114 325 -119 l 220 -327 b 205 -338 215 -336 213 -338 l 193 -338 "},"ļ":{"ha":301,"x_min":0,"x_max":0,"o":"m 56 0 b 47 11 48 0 46 3 l 224 1018 b 236 1028 226 1026 229 1028 l 253 1028 b 262 1016 260 1028 264 1024 l 84 10 b 73 0 82 2 80 0 l 56 0 m -53 -338 b -60 -327 -61 -338 -63 -335 l 36 -124 b 51 -114 39 -117 43 -114 l 66 -114 b 76 -126 76 -114 79 -119 l -26 -327 b -42 -338 -31 -336 -33 -338 l -53 -338 "},"Ľ":{"ha":710,"x_min":0,"x_max":0,"o":"m 66 0 b 57 11 58 0 56 3 l 227 976 b 239 986 229 984 231 986 l 259 986 b 267 975 266 986 268 983 l 102 38 l 574 38 b 584 26 583 38 586 34 l 581 10 b 570 0 579 3 577 0 l 66 0 m 472 705 b 463 716 463 705 460 708 l 570 976 b 585 986 573 986 576 986 l 602 986 b 610 973 612 986 615 982 l 498 715 b 483 705 493 706 492 705 l 472 705 "},"ľ":{"ha":301,"x_min":0,"x_max":0,"o":"m 56 0 b 47 11 48 0 46 3 l 224 1018 b 236 1028 226 1026 229 1028 l 253 1028 b 262 1016 260 1028 264 1024 l 84 10 b 73 0 82 2 80 0 l 56 0 m 296 804 b 289 814 288 804 286 807 l 375 1018 b 389 1028 377 1025 381 1028 l 403 1028 b 413 1016 413 1028 416 1023 l 321 814 b 306 804 316 806 314 804 l 296 804 "},"Ŀ":{"ha":710,"x_min":0,"x_max":0,"o":"m 66 0 b 57 11 58 0 56 3 l 227 976 b 239 986 229 984 231 986 l 259 986 b 267 975 266 986 268 983 l 102 38 l 574 38 b 584 26 583 38 586 34 l 581 10 b 570 0 579 3 577 0 l 66 0 m 455 449 b 430 480 433 449 425 455 l 432 486 b 464 515 437 508 443 515 l 471 515 b 496 485 493 515 500 505 l 494 478 b 462 449 489 456 483 449 l 455 449 "},"ŀ":{"ha":413,"x_min":0,"x_max":0,"o":"m 56 0 b 47 11 48 0 46 3 l 224 1018 b 236 1028 226 1026 229 1028 l 253 1028 b 262 1016 260 1028 264 1024 l 84 10 b 73 0 82 2 80 0 l 56 0 m 285 487 b 261 517 263 487 255 493 l 262 523 b 294 552 267 545 273 552 l 301 552 b 325 522 323 552 329 542 l 324 515 b 292 487 319 494 313 487 l 285 487 "},"Ł":{"ha":740,"x_min":0,"x_max":0,"o":"m 88 0 b 77 11 78 0 76 3 l 151 425 l 20 361 b 6 364 14 358 8 358 l 1 378 b 5 390 -1 384 1 388 l 157 464 l 248 976 b 261 986 250 984 251 986 l 278 986 b 288 974 286 986 288 983 l 201 482 l 551 654 b 564 649 560 658 562 655 l 569 636 b 563 624 570 630 569 627 l 194 444 l 122 38 l 594 38 b 604 26 602 38 606 35 l 601 10 b 590 0 599 3 598 0 l 88 0 "},"ł":{"ha":386,"x_min":0,"x_max":0,"o":"m 94 0 b 85 11 86 0 84 3 l 169 489 l 45 422 b 34 425 40 419 37 419 l 29 436 b 33 449 27 442 28 446 l 176 525 l 262 1018 b 274 1028 264 1025 266 1028 l 290 1028 b 299 1017 298 1028 301 1024 l 216 546 l 348 617 b 360 614 356 622 357 620 l 366 604 b 361 592 368 598 368 597 l 211 512 l 122 10 b 111 0 120 3 118 0 l 94 0 "},"Ń":{"ha":946,"x_min":0,"x_max":0,"o":"m 468 1072 b 471 1088 463 1078 466 1084 l 689 1239 b 707 1238 697 1245 701 1244 l 714 1228 b 712 1214 720 1223 718 1217 l 487 1064 b 473 1065 479 1059 476 1061 m 66 0 b 57 11 58 0 56 3 l 227 976 b 239 986 229 984 231 986 l 259 986 b 272 979 267 986 271 981 l 607 254 b 691 61 637 188 663 124 l 694 61 b 731 308 705 141 717 224 l 850 977 b 863 986 851 984 854 986 l 880 986 b 890 975 888 986 890 983 l 719 10 b 708 0 717 3 716 0 l 687 0 b 675 8 681 0 678 1 l 330 755 b 257 923 304 812 280 868 l 255 923 b 219 704 243 851 232 779 l 96 10 b 84 0 94 2 93 0 l 66 0 "},"ń":{"ha":750,"x_min":0,"x_max":0,"o":"m 348 859 b 352 875 345 866 346 871 l 570 1026 b 587 1024 579 1031 582 1031 l 595 1015 b 593 1001 600 1009 599 1004 l 368 851 b 353 852 360 846 357 848 m 46 0 b 38 11 40 0 37 3 l 144 610 b 202 685 151 651 164 668 b 430 729 252 706 325 729 b 625 463 598 729 654 632 l 545 10 b 534 0 543 3 541 0 l 517 0 b 508 11 509 0 507 3 l 587 463 b 425 695 614 612 567 695 b 221 654 337 695 263 674 b 180 602 190 640 184 625 l 75 10 b 64 0 73 3 71 0 l 46 0 "},"Ņ":{"ha":946,"x_min":0,"x_max":0,"o":"m 66 0 b 57 11 58 0 56 3 l 227 976 b 239 986 229 984 231 986 l 259 986 b 272 979 267 986 271 981 l 607 254 b 691 61 637 188 663 124 l 694 61 b 731 308 705 141 717 224 l 850 977 b 863 986 851 984 854 986 l 880 986 b 890 975 888 986 890 983 l 719 10 b 708 0 717 3 716 0 l 687 0 b 675 8 681 0 678 1 l 330 755 b 257 923 304 812 280 868 l 255 923 b 219 704 243 851 232 779 l 96 10 b 84 0 94 2 93 0 l 66 0 m 263 -338 b 256 -327 255 -338 253 -335 l 352 -124 b 367 -114 355 -117 359 -114 l 382 -114 b 392 -126 392 -114 395 -119 l 290 -327 b 274 -338 285 -336 283 -338 l 263 -338 "},"ņ":{"ha":750,"x_min":0,"x_max":0,"o":"m 46 0 b 38 11 40 0 37 3 l 144 610 b 202 685 151 651 164 668 b 430 729 252 706 325 729 b 625 463 598 729 654 632 l 545 10 b 534 0 543 3 541 0 l 517 0 b 508 11 509 0 507 3 l 587 463 b 425 695 614 612 567 695 b 221 654 337 695 263 674 b 180 602 190 640 184 625 l 75 10 b 64 0 73 3 71 0 l 46 0 m 188 -338 b 181 -327 180 -338 178 -335 l 278 -124 b 292 -114 281 -117 284 -114 l 308 -114 b 317 -126 318 -114 320 -119 l 215 -327 b 200 -338 211 -336 208 -338 l 188 -338 "},"Ň":{"ha":946,"x_min":0,"x_max":0,"o":"m 574 1064 b 553 1075 564 1064 561 1065 l 416 1235 b 422 1244 412 1240 412 1244 l 440 1244 b 456 1237 449 1244 452 1244 l 579 1093 l 755 1238 b 774 1244 762 1243 765 1244 l 793 1244 b 798 1234 803 1244 804 1239 l 601 1074 b 578 1064 589 1064 588 1064 l 574 1064 m 66 0 b 57 11 58 0 56 3 l 227 976 b 239 986 229 984 231 986 l 259 986 b 272 979 267 986 271 981 l 607 254 b 691 61 637 188 663 124 l 694 61 b 731 308 705 141 717 224 l 850 977 b 863 986 851 984 854 986 l 881 986 b 890 975 888 986 890 983 l 719 10 b 708 0 717 3 716 0 l 687 0 b 675 8 681 0 678 1 l 330 755 b 257 923 304 812 280 868 l 255 923 b 219 704 243 851 232 779 l 97 10 b 84 0 94 2 93 0 l 66 0 "},"ň":{"ha":750,"x_min":0,"x_max":0,"o":"m 421 841 b 400 852 411 841 408 842 l 263 1012 b 269 1021 259 1017 259 1021 l 287 1021 b 303 1014 297 1021 299 1021 l 426 869 l 602 1015 b 619 1021 608 1020 610 1021 l 640 1021 b 645 1011 649 1021 648 1016 l 448 851 b 425 841 436 841 436 841 l 421 841 m 46 0 b 38 11 40 0 37 3 l 144 610 b 202 685 151 651 164 668 b 430 729 252 706 325 729 b 625 463 598 729 654 632 l 545 10 b 534 0 543 3 541 0 l 517 0 b 508 11 509 0 507 3 l 587 463 b 425 695 614 612 567 695 b 221 654 337 695 263 674 b 180 602 190 640 184 625 l 75 10 b 64 0 73 3 71 0 l 46 0 "},"ŉ":{"ha":750,"x_min":0,"x_max":0,"o":"m 106 787 b 100 796 100 787 96 790 l 198 1004 b 217 1017 204 1015 206 1017 l 234 1017 b 244 1002 245 1017 249 1011 l 128 795 b 115 787 123 788 122 787 l 106 787 m 46 0 b 38 11 40 0 37 3 l 144 610 b 202 685 151 651 164 668 b 430 729 252 706 325 729 b 625 463 598 729 654 632 l 545 10 b 534 0 543 3 541 0 l 517 0 b 508 11 509 0 507 3 l 587 463 b 425 695 614 612 567 695 b 221 654 337 695 263 674 b 180 602 190 640 184 625 l 75 10 b 64 0 73 3 71 0 l 46 0 "},"Ŋ":{"ha":946,"x_min":0,"x_max":0,"o":"m 403 -319 b 393 -308 393 -319 391 -316 l 395 -293 b 404 -283 396 -284 398 -283 b 673 -28 574 -283 644 -193 l 678 1 l 330 755 b 257 923 304 811 280 867 l 255 922 b 219 704 243 852 232 779 l 96 10 b 84 0 94 2 93 0 l 66 0 b 57 12 58 0 56 3 l 227 976 b 239 986 229 984 231 986 l 259 986 b 272 979 267 986 271 981 l 606 254 b 691 61 637 189 663 124 l 694 61 b 732 308 705 141 718 224 l 850 977 b 863 986 852 984 854 986 l 881 986 b 890 974 888 986 890 982 l 711 -34 b 403 -319 679 -221 596 -319 "},"ŋ":{"ha":750,"x_min":0,"x_max":0,"o":"m 270 -319 b 260 -309 261 -319 258 -316 l 263 -294 b 271 -284 263 -286 266 -284 b 503 -17 451 -284 473 -189 l 587 463 b 425 695 614 613 567 695 b 221 654 337 695 263 674 b 180 602 190 640 184 625 l 75 10 b 64 0 73 3 71 0 l 46 0 b 38 11 40 0 37 3 l 144 610 b 202 685 151 651 164 668 b 430 729 252 706 325 729 b 625 463 598 729 654 631 l 540 -19 b 270 -319 505 -213 471 -319 "},"Ō":{"ha":907,"x_min":0,"x_max":0,"o":"m 414 1140 b 406 1150 407 1140 404 1143 l 408 1161 b 420 1170 409 1169 413 1170 l 725 1170 b 734 1159 733 1170 736 1167 l 733 1149 b 721 1140 731 1142 728 1140 l 414 1140 m 368 -20 b 82 320 142 -20 45 109 l 142 667 b 541 1006 180 877 317 1006 b 825 666 765 1006 861 880 l 765 319 b 368 -20 728 106 590 -20 m 368 18 b 724 322 563 18 690 127 l 785 666 b 541 968 818 858 736 968 b 182 664 343 968 215 853 l 122 320 b 368 18 89 131 173 18 "},"ō":{"ha":738,"x_min":0,"x_max":0,"o":"m 290 910 b 281 921 281 910 280 915 l 283 931 b 296 941 284 939 288 941 l 600 941 b 609 930 608 941 611 939 l 607 920 b 597 910 605 912 603 910 l 290 910 m 280 -20 b 54 218 120 -20 29 71 l 104 494 b 406 729 131 646 243 729 b 634 492 567 729 659 636 l 585 216 b 280 -20 560 69 439 -20 m 281 15 b 548 217 420 15 526 92 l 598 495 b 403 695 620 618 538 695 b 141 493 264 695 162 617 l 92 215 b 281 15 69 92 149 15 "},"Ŏ":{"ha":907,"x_min":0,"x_max":0,"o":"m 560 1078 b 405 1237 462 1078 408 1127 b 409 1247 404 1243 405 1246 l 424 1251 b 435 1243 432 1253 434 1251 b 562 1110 437 1155 482 1110 b 737 1246 643 1110 697 1146 b 747 1250 741 1251 742 1252 l 764 1246 b 767 1234 769 1245 770 1242 b 560 1078 726 1127 659 1078 m 368 -20 b 82 321 142 -20 45 109 l 142 667 b 541 1006 180 877 317 1006 b 825 666 765 1006 861 880 l 764 319 b 368 -20 728 106 590 -20 m 368 18 b 724 322 563 18 690 127 l 785 666 b 541 968 818 858 736 968 b 182 665 343 968 215 853 l 122 320 b 368 18 89 131 173 18 "},"ŏ":{"ha":738,"x_min":0,"x_max":0,"o":"m 431 847 b 275 1006 332 847 278 896 b 281 1016 274 1012 276 1015 l 297 1020 b 307 1011 303 1020 305 1019 b 433 879 308 919 351 879 b 608 1015 516 879 561 921 b 618 1019 610 1020 612 1021 l 635 1015 b 638 1003 640 1014 642 1011 b 431 847 587 900 529 847 m 280 -20 b 54 218 120 -20 29 71 l 104 494 b 406 729 131 646 243 729 b 634 492 567 729 659 636 l 585 216 b 280 -20 560 69 439 -20 m 281 15 b 548 217 420 15 526 92 l 598 495 b 403 695 620 618 538 695 b 141 493 264 695 162 617 l 92 215 b 281 15 69 92 149 15 "},"Ő":{"ha":907,"x_min":0,"x_max":0,"o":"m 397 1077 b 394 1089 390 1079 390 1084 l 554 1252 b 570 1258 560 1258 563 1260 l 585 1253 b 588 1240 594 1249 593 1245 l 420 1078 b 404 1074 415 1072 410 1072 m 610 1080 b 606 1091 604 1082 602 1087 l 770 1249 b 787 1255 776 1256 779 1258 l 802 1250 b 805 1238 810 1246 810 1243 l 633 1080 b 619 1076 627 1075 623 1074 m 368 -20 b 82 320 142 -20 45 109 l 142 667 b 541 1006 180 877 317 1006 b 825 666 765 1006 861 880 l 764 319 b 368 -20 728 106 590 -20 m 368 18 b 724 322 563 18 690 127 l 785 666 b 541 968 818 858 736 968 b 182 664 343 968 215 853 l 122 320 b 368 18 89 131 173 18 "},"ő":{"ha":738,"x_min":0,"x_max":0,"o":"m 277 839 b 274 851 270 843 270 846 l 434 1014 b 450 1020 440 1020 443 1022 l 465 1015 b 468 1002 473 1012 473 1007 l 301 841 b 285 835 295 835 291 832 m 491 839 b 488 851 484 843 483 846 l 648 1014 b 664 1020 653 1020 657 1022 l 678 1015 b 682 1002 686 1012 687 1007 l 515 841 b 499 835 508 835 504 832 m 280 -20 b 54 218 120 -20 29 71 l 104 494 b 406 729 131 646 243 729 b 634 492 567 729 659 636 l 585 216 b 280 -20 560 69 439 -20 m 281 15 b 548 217 420 15 526 92 l 598 495 b 403 695 620 618 538 695 b 141 493 264 695 162 617 l 92 215 b 281 15 69 92 149 15 "},"Œ":{"ha":1174,"x_min":0,"x_max":0,"o":"m 379 -21 b 82 321 149 -21 44 110 l 142 667 b 554 1007 180 877 324 1007 b 705 986 609 1007 664 999 l 1147 986 b 1156 974 1155 986 1157 983 l 1153 959 b 1142 948 1151 951 1150 948 l 726 948 l 651 518 l 1009 518 b 1019 507 1017 518 1021 515 l 1016 490 b 1005 480 1015 483 1013 480 l 643 480 l 566 38 l 997 38 b 1007 26 1006 38 1009 34 l 1004 10 b 993 0 1002 3 1001 0 l 534 0 b 379 -21 487 -13 430 -21 m 381 17 b 525 36 446 17 506 30 l 689 949 b 553 969 665 957 610 969 b 182 665 349 969 215 853 l 122 320 b 381 17 89 132 181 17 "},"œ":{"ha":1129,"x_min":0,"x_max":0,"o":"m 267 -20 b 54 216 126 -20 29 70 l 104 495 b 386 729 130 644 241 729 b 586 557 508 729 583 663 b 853 729 639 668 727 729 b 1053 519 991 729 1075 658 b 792 307 1032 380 925 307 b 565 335 721 307 634 317 l 544 223 b 724 11 522 96 586 11 b 962 165 827 11 906 74 b 975 167 967 169 971 169 l 990 159 b 992 145 996 156 995 152 b 723 -20 930 54 845 -20 b 512 135 594 -20 526 38 b 267 -20 466 40 380 -20 m 792 338 b 1016 520 895 338 995 395 b 850 698 1036 639 964 698 b 584 446 708 698 616 605 l 568 366 b 792 338 644 344 726 338 m 269 15 b 506 215 395 15 485 101 l 555 490 b 384 695 578 613 507 695 b 141 494 263 695 162 618 l 91 214 b 269 15 69 90 157 15 "},"Ŕ":{"ha":879,"x_min":0,"x_max":0,"o":"m 423 1072 b 426 1088 418 1078 421 1084 l 644 1239 b 662 1238 652 1245 656 1244 l 670 1228 b 668 1214 675 1223 673 1217 l 443 1064 b 428 1065 435 1059 432 1061 m 66 0 b 57 12 58 0 56 4 l 227 976 b 239 986 229 984 231 986 l 607 986 b 817 719 763 986 843 889 b 531 450 790 555 682 458 b 629 323 584 427 611 387 l 718 12 b 711 0 720 4 719 0 l 693 0 b 676 11 680 0 678 3 l 591 306 b 413 446 564 403 521 446 l 174 446 l 97 11 b 86 0 95 2 93 0 l 66 0 m 516 483 b 777 720 653 483 752 568 b 600 948 802 865 736 948 l 262 948 l 181 483 "},"ŕ":{"ha":457,"x_min":0,"x_max":0,"o":"m 246 858 b 249 873 242 865 243 870 l 468 1025 b 485 1023 476 1030 479 1030 l 492 1014 b 490 1000 497 1008 496 1003 l 265 850 b 250 851 257 845 254 847 m 46 0 b 38 11 40 0 36 3 l 140 592 b 195 668 147 634 158 652 b 405 710 242 688 310 709 b 444 710 419 710 431 710 b 453 699 452 710 455 707 l 450 685 b 441 675 448 677 448 675 b 405 675 429 675 416 675 b 216 636 325 675 255 654 b 176 582 187 622 180 605 l 75 10 b 64 0 73 3 71 0 l 46 0 "},"Ŗ":{"ha":879,"x_min":0,"x_max":0,"o":"m 66 0 b 57 12 58 0 56 4 l 227 976 b 239 986 229 984 231 986 l 607 986 b 817 719 763 986 843 889 b 531 450 790 555 682 458 b 629 323 584 427 611 387 l 718 12 b 711 0 720 4 719 0 l 693 0 b 676 11 680 0 678 3 l 591 306 b 413 446 564 403 521 446 l 174 446 l 97 11 b 86 0 95 2 93 0 l 66 0 m 516 483 b 777 720 653 483 752 568 b 600 948 802 865 736 948 l 262 948 l 181 483 m 257 -338 b 250 -327 249 -338 247 -335 l 347 -124 b 361 -114 349 -117 353 -114 l 376 -114 b 386 -126 386 -114 389 -119 l 284 -327 b 269 -338 279 -336 277 -338 l 257 -338 "},"ŗ":{"ha":457,"x_min":0,"x_max":0,"o":"m 46 0 b 38 11 40 0 36 3 l 140 592 b 195 668 147 634 158 652 b 405 710 242 688 310 709 b 444 710 419 710 431 710 b 453 699 452 710 455 707 l 450 685 b 441 675 448 677 448 675 b 405 675 429 675 416 675 b 216 636 325 675 255 654 b 176 582 187 622 180 605 l 75 10 b 64 0 73 3 71 0 l 46 0 m -15 -338 b -22 -327 -23 -338 -25 -335 l 74 -124 b 89 -114 77 -117 81 -114 l 104 -114 b 114 -126 114 -114 117 -119 l 11 -327 b -4 -338 7 -336 5 -338 l -15 -338 "},"Ř":{"ha":879,"x_min":0,"x_max":0,"o":"m 529 1064 b 508 1075 519 1064 516 1065 l 371 1235 b 377 1244 367 1240 367 1244 l 395 1244 b 411 1237 405 1244 407 1244 l 535 1093 l 710 1238 b 729 1244 718 1243 720 1244 l 748 1244 b 753 1234 758 1244 759 1239 l 557 1074 b 533 1064 544 1064 544 1064 l 529 1064 m 66 0 b 57 12 58 0 56 4 l 227 976 b 239 986 229 984 232 986 l 607 986 b 817 719 763 986 843 889 b 532 450 790 555 682 458 b 629 323 584 427 611 387 l 718 12 b 711 0 720 4 719 0 l 693 0 b 676 11 680 0 678 3 l 591 306 b 413 446 564 403 521 446 l 174 446 l 97 11 b 86 0 95 2 93 0 l 66 0 m 516 483 b 777 719 653 483 752 568 b 600 948 802 865 736 948 l 263 948 l 181 483 "},"ř":{"ha":457,"x_min":0,"x_max":0,"o":"m 318 839 b 298 850 308 839 305 841 l 161 1011 b 167 1020 156 1015 156 1020 l 185 1020 b 200 1013 194 1020 196 1019 l 324 868 l 499 1014 b 517 1020 506 1019 508 1020 l 537 1020 b 542 1010 546 1020 546 1014 l 346 850 b 322 839 333 840 333 839 l 318 839 m 46 0 b 38 11 40 0 36 3 l 140 592 b 195 668 147 634 158 652 b 405 710 242 688 310 709 b 444 710 419 710 431 710 b 453 699 452 710 455 707 l 450 685 b 441 675 448 677 448 675 b 405 675 429 675 416 675 b 216 636 325 675 255 654 b 176 582 187 622 180 605 l 75 10 b 64 0 73 3 71 0 l 46 0 "},"Ś":{"ha":854,"x_min":0,"x_max":0,"o":"m 426 1085 b 429 1100 421 1091 424 1097 l 647 1252 b 665 1250 655 1257 660 1257 l 673 1241 b 671 1227 678 1235 677 1230 l 446 1077 b 431 1078 438 1072 435 1074 m 341 -20 b 38 220 169 -20 72 50 b 43 237 35 230 34 233 l 63 243 b 75 235 70 245 73 244 b 345 19 107 80 194 19 b 679 257 540 19 653 101 b 433 476 710 434 576 456 b 147 738 273 497 114 534 b 504 1006 173 905 309 1006 b 807 791 675 1006 765 943 b 802 777 811 784 810 779 l 783 771 b 770 777 776 769 773 769 b 502 966 732 911 654 966 b 186 736 331 966 211 880 b 443 513 156 561 296 533 b 720 257 604 492 754 460 b 341 -20 691 76 562 -20 "},"ś":{"ha":674,"x_min":0,"x_max":0,"o":"m 315 859 b 318 875 311 866 313 871 l 537 1026 b 554 1024 545 1031 548 1031 l 562 1015 b 560 1001 567 1009 565 1004 l 335 851 b 320 852 327 846 324 848 m 265 -20 b 22 157 135 -20 44 27 b 26 171 20 165 20 169 l 45 177 b 57 170 52 179 55 177 b 267 14 76 56 156 14 b 499 190 416 14 499 73 b 322 336 499 286 435 319 b 101 520 205 355 97 384 b 367 729 104 672 205 730 b 592 576 511 728 576 671 b 589 563 593 569 594 565 l 574 558 b 561 564 564 554 563 558 b 365 695 543 645 489 694 b 136 521 223 697 140 645 b 331 368 133 409 228 385 b 537 190 458 348 537 312 b 265 -20 537 51 434 -20 "},"Ŝ":{"ha":854,"x_min":0,"x_max":0,"o":"m 347 1077 b 342 1086 337 1077 336 1082 l 538 1248 b 560 1257 550 1256 551 1257 l 566 1257 b 586 1247 576 1257 578 1256 l 724 1085 b 718 1077 728 1081 728 1077 l 700 1077 b 684 1084 690 1077 688 1078 l 561 1227 l 385 1083 b 366 1077 377 1078 375 1077 l 347 1077 m 341 -20 b 38 220 169 -20 72 50 b 43 237 35 230 34 233 l 63 243 b 75 235 70 245 73 244 b 345 19 107 80 194 19 b 679 257 540 19 653 101 b 433 476 710 434 576 456 b 147 738 273 497 114 534 b 504 1006 173 905 309 1006 b 807 791 675 1006 765 943 b 801 777 811 784 810 779 l 783 771 b 770 777 776 769 773 769 b 502 966 732 911 654 966 b 186 736 331 966 211 880 b 443 513 156 561 296 533 b 720 257 604 492 754 460 b 341 -20 691 76 562 -20 "},"ŝ":{"ha":674,"x_min":0,"x_max":0,"o":"m 215 841 b 209 851 205 841 203 846 l 406 1012 b 428 1021 417 1020 419 1021 l 434 1021 b 453 1012 444 1021 446 1021 l 591 850 b 585 841 595 845 595 841 l 567 841 b 551 848 558 841 556 842 l 428 992 l 253 847 b 233 841 246 842 242 841 l 215 841 m 265 -20 b 22 157 135 -20 44 27 b 26 171 20 165 20 169 l 45 177 b 57 170 52 179 55 177 b 267 14 76 56 156 14 b 499 190 416 14 499 73 b 322 336 499 286 435 319 b 101 520 205 355 97 384 b 367 729 104 672 205 730 b 592 576 511 728 576 671 b 589 563 593 569 594 565 l 574 558 b 561 564 564 554 563 558 b 365 695 543 645 489 694 b 136 521 223 697 140 645 b 331 368 133 409 228 385 b 537 190 458 348 537 312 b 265 -20 537 51 434 -20 "},"Ş":{"ha":854,"x_min":0,"x_max":0,"o":"m 807 791 b 802 777 811 784 810 779 l 783 771 b 770 777 776 769 773 769 b 502 966 732 911 654 966 b 186 736 331 966 211 880 b 443 513 156 561 296 533 b 720 257 604 492 754 460 b 382 -18 693 87 578 -7 l 330 -132 b 373 -126 341 -128 359 -126 b 463 -225 436 -128 473 -164 b 306 -350 449 -310 389 -350 b 213 -316 254 -350 227 -329 b 205 -299 206 -312 204 -309 l 207 -287 b 213 -284 207 -281 211 -280 b 305 -323 231 -301 258 -323 b 428 -224 368 -323 416 -295 b 357 -150 437 -177 405 -151 b 304 -160 340 -150 318 -155 b 293 -145 295 -162 289 -154 l 352 -20 b 341 -20 349 -20 345 -20 b 38 220 169 -20 72 50 b 43 237 35 230 34 233 l 63 243 b 75 235 70 245 73 244 b 345 19 107 80 194 19 b 679 257 540 19 653 101 b 433 476 710 434 576 456 b 147 738 273 498 114 534 b 504 1006 173 905 309 1006 b 807 791 675 1006 765 943 "},"ş":{"ha":674,"x_min":0,"x_max":0,"o":"m 199 -339 b 104 -302 148 -339 119 -316 b 99 -288 98 -297 98 -294 l 101 -278 b 109 -274 102 -273 106 -271 b 198 -311 128 -291 155 -311 b 316 -213 261 -311 311 -284 b 248 -138 320 -166 295 -139 b 197 -145 229 -138 211 -141 b 185 -132 186 -147 181 -139 l 237 -19 b 22 157 123 -13 43 36 b 26 171 20 165 20 169 l 45 177 b 56 170 52 179 55 177 b 267 14 76 56 156 14 b 499 190 415 14 499 73 b 322 336 499 286 435 319 b 100 520 205 355 97 384 b 367 729 104 673 205 730 b 592 576 511 728 576 671 b 589 563 593 569 594 565 l 574 558 b 561 564 564 554 563 558 b 365 695 543 645 489 694 b 136 521 223 697 140 645 b 331 368 133 409 228 385 b 536 190 458 348 536 312 b 268 -19 536 56 441 -18 l 221 -118 b 269 -113 234 -114 252 -112 b 351 -214 325 -115 356 -154 b 199 -339 345 -299 283 -339 "},"Š":{"ha":854,"x_min":0,"x_max":0,"o":"m 532 1076 b 512 1087 522 1076 519 1078 l 375 1248 b 381 1257 370 1252 370 1257 l 399 1257 b 414 1250 408 1257 410 1256 l 538 1105 l 713 1251 b 732 1257 721 1256 723 1257 l 751 1257 b 756 1247 762 1257 762 1251 l 560 1087 b 536 1076 547 1077 547 1076 l 532 1076 m 342 -20 b 38 220 169 -20 72 50 b 43 237 35 230 34 233 l 63 243 b 75 235 70 245 73 244 b 345 19 107 80 194 19 b 679 257 540 19 653 101 b 433 476 710 434 576 456 b 147 738 273 497 114 534 b 505 1006 173 905 309 1006 b 807 791 675 1006 765 943 b 802 777 811 784 810 779 l 783 771 b 770 777 776 769 773 769 b 502 966 732 911 654 966 b 186 736 332 966 211 880 b 443 513 156 561 296 533 b 720 257 604 491 754 459 b 342 -20 692 76 562 -20 "},"š":{"ha":674,"x_min":0,"x_max":0,"o":"m 387 841 b 367 852 377 841 375 842 l 230 1012 b 236 1021 226 1017 225 1021 l 254 1021 b 270 1014 263 1021 265 1021 l 393 869 l 569 1015 b 586 1021 575 1020 577 1021 l 606 1021 b 612 1011 616 1021 615 1016 l 415 851 b 392 841 402 841 402 841 l 387 841 m 265 -20 b 22 158 135 -20 44 27 b 26 171 20 165 20 169 l 45 177 b 57 170 52 179 55 177 b 267 14 76 56 156 14 b 499 190 416 14 499 73 b 322 336 499 286 435 319 b 101 520 205 355 97 384 b 367 729 104 672 205 731 b 592 576 511 728 576 671 b 589 563 593 569 594 565 l 574 558 b 561 564 564 554 563 558 b 365 695 543 645 489 694 b 136 521 223 697 140 645 b 331 368 133 409 228 385 b 537 190 458 348 537 312 b 265 -20 537 51 434 -20 "},"Ţ":{"ha":733,"x_min":0,"x_max":0,"o":"m 271 0 b 261 11 262 0 261 3 l 427 948 l 135 948 b 125 960 127 948 123 951 l 128 976 b 140 986 130 984 132 986 l 767 986 b 776 974 775 986 777 983 l 773 959 b 762 948 771 950 770 948 l 467 948 l 302 10 b 290 0 300 2 297 0 l 271 0 m 154 -338 b 147 -327 146 -338 144 -335 l 243 -124 b 258 -114 246 -117 250 -114 l 273 -114 b 283 -126 283 -114 286 -119 l 180 -327 b 165 -338 176 -336 174 -338 l 154 -338 "},"ţ":{"ha":456,"x_min":0,"x_max":0,"o":"m 453 710 b 462 699 460 710 463 706 l 459 685 b 447 675 457 677 454 675 l 247 675 l 172 259 b 330 36 140 73 182 36 b 340 26 339 36 342 34 l 338 10 b 328 0 336 2 334 0 b 257 4 301 0 278 1 l 200 -118 b 245 -113 211 -114 229 -112 b 330 -214 304 -114 335 -153 b 178 -339 323 -299 262 -339 b 83 -302 127 -339 98 -316 b 78 -288 77 -297 76 -294 l 80 -278 b 88 -274 81 -273 85 -271 b 177 -311 107 -291 134 -311 b 295 -213 240 -311 290 -284 b 225 -138 298 -165 273 -138 b 176 -145 207 -138 189 -141 b 163 -132 165 -147 160 -139 l 230 8 b 136 260 133 29 108 97 l 209 675 l 72 675 b 64 686 65 675 62 678 l 67 700 b 78 710 67 708 71 710 l 215 710 l 243 867 b 255 876 244 874 248 876 l 272 876 b 281 865 279 876 281 873 l 253 710 l 453 710 "},"Ť":{"ha":733,"x_min":0,"x_max":0,"o":"m 467 1064 b 447 1075 457 1064 454 1065 l 309 1235 b 316 1244 305 1240 305 1244 l 333 1244 b 349 1237 343 1244 345 1244 l 473 1093 l 648 1238 b 667 1244 656 1243 658 1244 l 686 1244 b 691 1234 697 1244 697 1239 l 495 1074 b 471 1064 482 1064 482 1064 l 467 1064 m 271 0 b 262 11 262 0 261 3 l 427 948 l 135 948 b 125 960 127 948 123 951 l 128 976 b 140 986 130 984 132 986 l 767 986 b 776 974 775 986 777 983 l 773 959 b 762 948 771 950 770 948 l 467 948 l 302 10 b 290 0 300 2 298 0 l 271 0 "},"ť":{"ha":456,"x_min":0,"x_max":0,"o":"m 387 807 b 381 817 379 807 377 810 l 464 1018 b 478 1028 467 1025 470 1028 l 493 1028 b 502 1015 503 1028 506 1023 l 412 817 b 397 807 408 809 406 807 l 387 807 m 328 0 b 136 260 151 -1 100 53 l 209 675 l 72 675 b 64 686 65 675 62 678 l 67 700 b 78 710 67 708 71 710 l 215 710 l 243 867 b 255 876 244 874 248 876 l 272 876 b 281 865 279 876 281 873 l 253 710 l 453 710 b 462 699 460 710 463 707 l 459 685 b 447 675 457 677 454 675 l 247 675 l 172 259 b 330 36 139 73 182 36 b 340 26 339 36 342 34 l 338 10 b 328 0 336 2 334 0 "},"Ŧ":{"ha":721,"x_min":0,"x_max":0,"o":"m 265 0 b 255 11 257 0 254 2 l 332 444 l 129 444 b 120 456 121 444 119 446 l 122 467 b 133 477 124 475 127 477 l 337 477 l 420 948 l 135 948 b 125 959 127 948 123 951 l 128 976 b 139 986 130 984 132 986 l 755 986 b 764 974 763 986 764 983 l 761 959 b 750 948 759 951 758 948 l 461 948 l 378 477 l 581 477 b 589 466 589 477 591 474 l 588 454 b 577 444 586 446 584 444 l 372 444 l 295 10 b 283 0 293 2 291 0 l 265 0 "},"ŧ":{"ha":456,"x_min":0,"x_max":0,"o":"m 326 0 b 136 258 130 -1 103 74 l 155 368 l 44 368 b 35 378 38 368 34 370 l 38 388 b 48 398 39 396 40 398 l 160 398 l 209 675 l 72 675 b 64 686 64 675 62 678 l 67 700 b 78 710 67 708 71 710 l 215 710 l 243 867 b 254 876 244 874 248 876 l 272 876 b 281 865 279 876 281 873 l 253 710 l 453 710 b 462 699 460 710 463 706 l 459 685 b 448 675 457 677 455 675 l 247 675 l 198 398 l 371 398 b 380 387 379 398 381 395 l 377 377 b 367 368 375 369 374 368 l 193 368 l 172 259 b 330 36 137 75 180 36 b 340 26 339 37 341 33 l 338 10 b 326 0 336 2 334 0 "},"Ũ":{"ha":935,"x_min":0,"x_max":0,"o":"m 391 1078 b 383 1091 385 1078 383 1081 b 496 1212 395 1162 439 1212 b 665 1107 586 1212 592 1107 b 749 1205 709 1107 740 1149 b 757 1212 751 1210 751 1212 l 771 1212 b 778 1200 777 1212 778 1209 b 667 1078 765 1129 726 1078 b 497 1183 578 1078 573 1183 b 412 1085 457 1183 422 1143 b 404 1078 412 1080 410 1078 l 391 1078 m 379 -20 b 106 335 153 -20 68 119 l 219 976 b 231 986 221 984 224 986 l 250 986 b 259 975 258 986 260 983 l 146 333 b 381 18 112 142 185 18 b 732 335 580 18 698 142 l 845 976 b 857 986 847 984 850 986 l 876 986 b 885 975 884 986 886 983 l 772 333 b 379 -20 733 118 601 -20 "},"ũ":{"ha":750,"x_min":0,"x_max":0,"o":"m 261 863 b 253 876 255 863 251 866 b 365 997 269 946 297 997 b 534 892 456 997 465 892 b 619 990 580 892 618 934 b 627 997 619 995 621 997 l 641 997 b 646 985 647 997 647 994 b 537 863 642 911 598 863 b 367 968 449 863 438 968 b 282 870 315 968 297 923 b 274 863 280 865 280 863 l 261 863 m 271 -20 b 77 247 103 -20 48 80 l 157 700 b 168 710 157 708 161 710 l 185 710 b 194 699 193 710 195 706 l 114 247 b 275 16 87 96 134 16 b 482 56 369 16 439 35 b 522 109 511 70 518 85 l 627 700 b 638 710 628 707 631 710 l 655 710 b 664 699 662 710 665 706 l 558 100 b 500 25 551 58 540 42 b 271 -20 450 3 383 -20 "},"Ū":{"ha":935,"x_min":0,"x_max":0,"o":"m 426 1126 b 417 1137 418 1126 416 1129 l 419 1147 b 431 1156 420 1155 424 1156 l 737 1156 b 745 1146 744 1156 747 1153 l 744 1135 b 732 1126 742 1128 739 1126 l 426 1126 m 379 -20 b 106 335 153 -20 68 119 l 219 976 b 231 986 221 984 224 986 l 250 986 b 259 975 258 986 260 983 l 146 333 b 381 18 112 142 185 18 b 732 335 580 18 698 142 l 845 976 b 857 986 847 984 850 986 l 876 986 b 885 975 884 986 886 983 l 772 333 b 379 -20 733 118 601 -20 "},"ū":{"ha":750,"x_min":0,"x_max":0,"o":"m 295 910 b 286 921 287 910 285 915 l 288 931 b 301 941 290 939 294 941 l 605 941 b 615 930 613 941 617 939 l 613 920 b 602 910 611 912 609 910 l 295 910 m 271 -20 b 77 247 103 -20 48 80 l 157 700 b 168 710 157 708 161 710 l 185 710 b 194 699 193 710 195 706 l 114 247 b 275 16 87 96 134 16 b 482 56 369 16 439 35 b 522 109 511 70 518 85 l 627 700 b 638 710 628 707 631 710 l 655 710 b 664 699 662 710 665 706 l 558 100 b 500 25 551 58 540 42 b 271 -20 450 3 383 -20 "},"Ŭ":{"ha":935,"x_min":0,"x_max":0,"o":"m 571 1064 b 416 1223 473 1064 419 1113 b 420 1233 415 1229 416 1232 l 435 1237 b 446 1229 443 1239 445 1237 b 573 1096 448 1141 494 1096 b 748 1232 654 1096 708 1132 b 758 1236 752 1237 753 1238 l 775 1232 b 779 1220 780 1231 781 1228 b 571 1064 737 1113 670 1064 m 379 -20 b 106 335 153 -20 68 119 l 219 976 b 231 986 221 984 224 986 l 250 986 b 259 975 258 986 260 983 l 146 333 b 381 18 112 142 185 18 b 732 335 580 18 698 142 l 845 976 b 857 986 847 984 850 986 l 876 986 b 885 975 884 986 886 983 l 772 333 b 379 -20 733 118 601 -20 "},"ŭ":{"ha":750,"x_min":0,"x_max":0,"o":"m 437 847 b 281 1006 338 847 283 896 b 286 1016 280 1012 282 1015 l 302 1020 b 312 1011 309 1020 311 1019 b 439 879 314 919 357 879 b 613 1015 521 879 567 921 b 623 1019 616 1020 618 1021 l 641 1015 b 643 1003 646 1014 647 1011 b 437 847 592 900 534 847 m 271 -20 b 77 247 103 -20 48 80 l 157 700 b 168 710 157 708 161 710 l 185 710 b 194 699 193 710 195 706 l 114 247 b 275 16 87 96 134 16 b 482 56 369 16 439 35 b 522 109 511 70 518 85 l 627 700 b 638 710 628 707 631 710 l 655 710 b 664 699 662 710 665 706 l 558 100 b 500 25 551 58 540 42 b 271 -20 450 3 383 -20 "},"Ů":{"ha":935,"x_min":0,"x_max":0,"o":"m 571 1050 b 470 1175 498 1050 457 1099 b 609 1301 481 1250 537 1301 b 706 1175 679 1301 719 1252 b 571 1050 695 1101 640 1050 m 571 1075 b 683 1178 628 1075 672 1115 b 609 1276 693 1237 663 1276 b 493 1174 550 1276 503 1236 b 571 1075 483 1114 516 1075 m 379 -20 b 106 335 153 -20 68 119 l 219 976 b 231 986 221 984 224 986 l 250 986 b 259 975 258 986 260 983 l 146 333 b 381 18 112 142 185 18 b 732 335 580 18 698 142 l 845 976 b 857 986 847 984 850 986 l 876 986 b 885 975 884 986 886 983 l 772 333 b 379 -20 733 118 601 -20 "},"ů":{"ha":750,"x_min":0,"x_max":0,"o":"m 434 803 b 330 928 360 803 318 852 b 470 1053 343 1003 398 1053 b 568 928 540 1053 580 1004 b 434 803 557 853 504 803 m 436 827 b 544 930 491 827 534 867 b 470 1029 554 989 523 1029 b 357 926 412 1029 367 986 b 436 827 346 867 379 827 m 271 -20 b 77 247 103 -20 48 80 l 157 700 b 168 710 157 708 161 710 l 185 710 b 194 699 193 710 195 706 l 114 247 b 275 16 87 96 134 16 b 482 56 369 16 439 35 b 522 109 511 70 518 85 l 627 700 b 638 710 628 707 631 710 l 655 710 b 664 699 662 710 665 706 l 558 100 b 500 25 551 58 540 42 b 271 -20 450 3 383 -20 "},"Ű":{"ha":935,"x_min":0,"x_max":0,"o":"m 408 1063 b 405 1075 401 1066 401 1070 l 565 1238 b 581 1244 571 1244 574 1247 l 596 1239 b 599 1227 605 1235 604 1231 l 431 1064 b 415 1060 426 1058 421 1058 m 622 1066 b 617 1078 615 1068 613 1073 l 781 1235 b 798 1242 787 1242 790 1244 l 813 1236 b 816 1224 821 1233 821 1229 l 644 1066 b 630 1062 638 1061 634 1060 m 379 -20 b 106 335 153 -20 68 119 l 219 976 b 231 986 221 984 224 986 l 250 986 b 259 975 258 986 260 983 l 146 333 b 381 18 112 142 185 18 b 732 335 580 18 698 142 l 845 976 b 857 986 847 984 850 986 l 876 986 b 885 975 884 986 886 983 l 772 333 b 379 -20 733 118 601 -20 "},"ű":{"ha":750,"x_min":0,"x_max":0,"o":"m 283 839 b 280 851 276 843 276 846 l 440 1014 b 456 1020 446 1020 449 1022 l 470 1015 b 474 1002 478 1012 479 1007 l 307 841 b 291 835 301 835 297 832 m 496 839 b 493 851 489 843 489 846 l 653 1014 b 669 1020 659 1020 662 1022 l 684 1015 b 687 1002 692 1012 692 1007 l 520 841 b 504 835 514 835 510 832 m 271 -20 b 77 247 103 -20 48 80 l 157 700 b 168 710 157 708 161 710 l 185 710 b 194 699 193 710 195 707 l 114 247 b 275 16 87 96 134 16 b 482 56 369 16 439 35 b 522 109 511 70 518 85 l 627 700 b 638 710 628 707 631 710 l 655 710 b 664 699 662 710 665 707 l 558 100 b 500 25 551 58 540 42 b 271 -20 450 3 383 -20 "},"Ų":{"ha":935,"x_min":0,"x_max":0,"o":"m 438 -344 b 364 -280 399 -344 369 -327 b 539 15 355 -205 423 -99 b 378 -20 492 -7 439 -20 b 106 335 152 -20 68 120 l 219 976 b 231 986 221 984 224 986 l 250 986 b 259 975 258 986 260 983 l 146 333 b 381 18 112 142 185 18 b 732 335 581 18 698 142 l 845 976 b 857 986 847 984 850 986 l 876 986 b 885 975 884 986 886 983 l 772 333 b 616 50 750 211 692 114 b 399 -269 488 -55 392 -193 b 447 -312 403 -304 421 -312 b 541 -266 479 -312 512 -295 b 548 -269 543 -264 546 -265 l 553 -286 b 551 -294 554 -289 554 -291 b 438 -344 512 -332 465 -344 "},"ų":{"ha":750,"x_min":0,"x_max":0,"o":"m 383 -344 b 311 -278 349 -344 315 -328 b 475 17 306 -208 361 -106 b 270 -20 429 -2 366 -20 b 77 247 102 -20 48 81 l 157 700 b 168 710 157 707 160 710 l 185 710 b 194 699 193 710 195 707 l 114 247 b 275 16 87 96 134 16 b 482 56 369 16 439 35 b 522 109 512 70 518 86 l 627 700 b 638 710 628 708 632 710 l 655 710 b 664 699 661 710 665 707 l 558 100 b 533 41 554 74 547 55 b 346 -272 419 -75 338 -201 b 395 -312 350 -301 368 -312 b 487 -266 427 -312 459 -295 b 495 -270 491 -264 493 -265 l 500 -285 b 496 -296 501 -291 501 -292 b 383 -344 456 -332 418 -344 "},"Ŵ":{"ha":1218,"x_min":0,"x_max":0,"o":"m 526 1064 b 520 1074 515 1064 514 1069 l 717 1235 b 738 1244 728 1243 729 1244 l 745 1244 b 764 1235 754 1244 757 1244 l 902 1073 b 896 1064 906 1068 906 1064 l 878 1064 b 862 1071 869 1064 867 1065 l 739 1214 l 563 1070 b 544 1064 556 1065 553 1064 l 526 1064 m 245 0 b 231 12 236 0 231 3 l 144 976 b 152 986 144 984 144 986 l 173 986 b 186 975 183 986 185 983 l 255 178 b 261 60 259 141 261 100 l 265 60 b 315 179 280 101 299 140 l 667 952 b 683 961 671 960 675 961 l 701 961 b 714 950 709 961 714 958 l 792 175 b 800 60 795 137 798 98 l 803 60 b 849 175 817 99 833 138 l 1202 977 b 1217 986 1205 984 1207 986 l 1237 986 b 1244 975 1245 986 1247 982 l 817 10 b 802 0 814 1 810 0 l 782 0 b 769 12 774 0 769 3 l 692 782 b 683 901 688 821 686 861 l 681 901 b 628 781 665 862 646 820 l 279 10 b 263 0 276 1 272 0 l 245 0 "},"ŵ":{"ha":1006,"x_min":0,"x_max":0,"o":"m 380 840 b 374 849 370 840 368 845 l 571 1011 b 592 1020 582 1019 583 1020 l 599 1020 b 618 1010 609 1020 611 1019 l 756 848 b 750 840 760 844 760 840 l 732 840 b 716 847 723 840 721 841 l 593 991 l 417 846 b 398 840 411 841 407 840 l 380 840 m 191 -7 b 180 4 183 -7 181 -6 l 96 698 b 106 710 95 707 95 710 l 124 710 b 135 698 135 710 135 706 l 197 168 b 209 42 202 127 204 86 l 211 42 b 268 172 228 86 250 131 l 511 675 b 526 685 516 683 517 685 l 543 685 b 555 674 552 685 554 683 l 622 179 b 636 42 627 136 632 89 l 638 42 b 695 176 657 88 675 132 l 943 700 b 957 710 946 710 948 710 l 975 710 b 982 697 984 710 986 705 l 652 3 b 638 -7 649 -5 645 -7 l 621 -7 b 608 4 612 -7 608 -3 l 539 538 b 527 634 534 571 530 602 l 525 634 b 480 537 511 601 496 569 l 222 3 b 209 -7 219 -7 218 -7 l 191 -7 "},"Ŷ":{"ha":844,"x_min":0,"x_max":0,"o":"m 338 1064 b 333 1074 328 1064 327 1069 l 529 1235 b 551 1244 541 1243 542 1244 l 558 1244 b 577 1235 567 1244 569 1244 l 715 1073 b 709 1064 719 1068 719 1064 l 691 1064 b 675 1071 681 1064 679 1065 l 552 1214 l 376 1070 b 357 1064 368 1065 366 1064 l 338 1064 m 326 0 b 317 12 318 0 316 3 l 388 410 l 133 976 b 140 986 132 982 132 986 l 162 986 b 178 975 175 986 176 983 l 415 448 l 836 977 b 856 986 842 985 845 986 l 878 986 b 884 975 886 986 888 980 l 428 408 l 357 10 b 346 0 355 2 353 0 l 326 0 "},"ŷ":{"ha":754,"x_min":0,"x_max":0,"o":"m 249 840 b 244 849 240 840 238 845 l 440 1011 b 462 1020 451 1019 453 1020 l 468 1020 b 488 1010 478 1020 480 1019 l 626 848 b 620 840 630 844 630 840 l 601 840 b 586 847 592 840 590 841 l 462 991 l 287 846 b 268 840 280 841 276 840 l 249 840 m 221 -357 b 10 -193 90 -357 34 -290 b 14 -179 8 -187 7 -182 l 29 -172 b 41 -176 35 -168 39 -170 b 222 -321 65 -260 108 -321 b 494 -59 383 -321 464 -220 l 511 37 b 270 -15 462 18 386 -15 b 78 251 103 -15 48 85 l 157 700 b 168 710 157 708 161 710 l 185 710 b 194 699 192 710 195 706 l 115 252 b 276 19 87 101 134 19 b 515 72 388 19 470 53 l 627 700 b 638 710 628 708 632 710 l 655 710 b 664 699 663 710 665 707 l 530 -58 b 221 -357 498 -240 408 -357 "},"Ÿ":{"ha":844,"x_min":0,"x_max":0,"o":"m 413 1120 b 392 1143 394 1120 389 1125 l 393 1152 b 420 1174 396 1169 401 1174 l 428 1174 b 448 1151 444 1174 450 1167 l 446 1142 b 420 1120 444 1124 437 1120 l 413 1120 m 650 1120 b 629 1143 631 1120 626 1125 l 630 1152 b 658 1174 633 1169 638 1174 l 665 1174 b 685 1151 682 1174 687 1167 l 683 1142 b 658 1120 681 1124 674 1120 l 650 1120 m 326 0 b 317 12 318 0 316 3 l 388 410 l 133 976 b 140 986 132 982 132 986 l 162 986 b 178 975 175 986 176 983 l 415 448 l 836 977 b 856 986 842 985 845 986 l 878 986 b 884 975 886 986 888 980 l 428 408 l 357 10 b 346 0 355 2 353 0 l 326 0 "},"Ź":{"ha":754,"x_min":0,"x_max":0,"o":"m 375 1072 b 379 1088 370 1078 373 1084 l 596 1239 b 614 1238 604 1245 609 1244 l 622 1228 b 620 1214 627 1223 626 1217 l 395 1064 b 380 1065 387 1059 384 1061 m -7 0 b -17 11 -16 0 -18 3 l -14 26 b -7 44 -13 34 -12 38 l 706 949 l 166 949 b 156 960 157 949 154 952 l 159 976 b 170 986 161 984 163 986 l 751 986 b 761 975 759 986 762 983 l 758 961 b 752 945 756 954 755 951 l 36 39 l 601 39 b 610 27 610 39 612 36 l 607 10 b 595 0 605 2 603 0 l -7 0 "},"ź":{"ha":607,"x_min":0,"x_max":0,"o":"m 281 858 b 284 873 277 865 278 870 l 503 1025 b 520 1023 511 1030 514 1030 l 527 1014 b 525 1000 532 1008 531 1003 l 300 850 b 285 851 292 845 289 847 m -9 0 b -18 11 -16 0 -19 3 l -15 25 b -9 39 -14 31 -15 32 l 516 675 l 114 675 b 107 686 108 675 105 679 l 110 700 b 120 710 111 708 114 710 l 559 710 b 568 699 566 710 569 706 l 565 685 b 558 669 564 678 562 675 l 32 34 l 448 34 b 457 23 455 34 457 31 l 454 10 b 445 0 452 3 451 0 l -9 0 "},"Ż":{"ha":754,"x_min":0,"x_max":0,"o":"m 489 1114 b 469 1138 471 1114 465 1119 l 470 1145 b 496 1168 474 1163 478 1168 l 502 1168 b 524 1143 521 1168 528 1161 l 523 1137 b 495 1114 519 1119 513 1114 l 489 1114 m -7 0 b -17 11 -16 0 -18 3 l -14 26 b -7 44 -13 34 -12 38 l 706 949 l 166 949 b 156 960 157 949 154 952 l 159 976 b 170 986 161 984 163 986 l 751 986 b 761 975 759 986 762 983 l 758 961 b 752 945 756 954 755 951 l 36 39 l 601 39 b 610 27 610 39 612 36 l 607 10 b 595 0 605 2 603 0 l -7 0 "},"ż":{"ha":607,"x_min":0,"x_max":0,"o":"m 372 909 b 351 937 352 909 346 914 l 352 945 b 380 972 357 965 362 972 l 394 972 b 415 943 413 972 418 963 l 413 936 b 385 909 408 915 403 909 l 372 909 m -9 0 b -18 11 -16 0 -19 3 l -15 25 b -9 39 -14 31 -15 32 l 516 675 l 114 675 b 107 686 108 675 105 679 l 110 700 b 120 710 111 708 114 710 l 559 710 b 568 699 566 710 569 706 l 565 685 b 558 669 564 678 562 675 l 32 34 l 448 34 b 457 23 455 34 457 31 l 454 10 b 444 0 452 3 451 0 l -9 0 "},"Ž":{"ha":754,"x_min":0,"x_max":0,"o":"m 481 1064 b 461 1075 471 1064 468 1065 l 324 1235 b 330 1244 319 1240 319 1244 l 348 1244 b 363 1237 357 1244 359 1244 l 487 1093 l 662 1238 b 681 1244 670 1243 672 1244 l 700 1244 b 705 1234 711 1244 711 1239 l 509 1074 b 486 1064 496 1064 496 1064 l 481 1064 m -7 0 b -17 11 -16 0 -18 3 l -14 26 b -7 44 -13 34 -12 38 l 706 949 l 166 949 b 156 960 157 949 154 952 l 159 976 b 170 986 161 984 163 986 l 751 986 b 761 975 759 986 762 983 l 758 961 b 752 945 756 954 755 951 l 36 39 l 601 39 b 610 27 610 39 612 36 l 607 10 b 595 0 605 2 603 0 l -7 0 "},"ž":{"ha":607,"x_min":0,"x_max":0,"o":"m 353 839 b 333 850 343 839 340 841 l 196 1011 b 202 1020 191 1015 191 1020 l 220 1020 b 235 1013 229 1020 231 1019 l 359 868 l 534 1014 b 552 1020 541 1019 543 1020 l 572 1020 b 577 1010 581 1020 581 1014 l 381 850 b 357 839 368 840 368 839 l 353 839 m -9 0 b -18 11 -16 0 -19 3 l -15 25 b -9 39 -14 31 -15 32 l 516 675 l 114 675 b 107 686 108 675 105 679 l 110 700 b 120 710 111 708 114 710 l 559 710 b 568 699 566 710 569 706 l 565 685 b 558 669 564 678 562 675 l 32 34 l 448 34 b 457 23 455 34 457 31 l 454 10 b 445 0 452 3 451 0 l -9 0 "},"ſ":{"ha":326,"x_min":0,"x_max":0,"o":"m 100 0 b 91 11 92 0 91 3 l 208 675 l 77 675 b 69 686 70 675 67 677 l 72 700 b 83 710 72 708 76 710 l 214 710 l 224 764 b 497 1028 260 968 328 1028 b 506 1017 505 1028 508 1024 l 504 1001 b 494 992 503 994 501 992 b 262 762 345 992 294 946 l 128 10 b 117 0 127 2 124 0 l 100 0 "},"ƒ":{"ha":593,"x_min":0,"x_max":0,"o":"m -147 -306 b -158 -294 -156 -306 -159 -302 l -156 -279 b -146 -270 -154 -271 -152 -270 b 120 -30 5 -270 81 -174 l 259 479 l 67 479 b 58 490 59 479 57 482 l 60 506 b 70 515 62 513 63 515 l 271 515 l 337 760 b 641 1028 381 921 467 1028 b 651 1017 649 1028 653 1024 l 648 1001 b 639 992 648 994 646 992 b 376 755 488 992 416 898 l 311 515 l 514 515 b 523 504 521 515 525 512 l 520 489 b 510 479 518 481 518 479 l 298 479 l 158 -35 b -147 -306 115 -196 25 -306 "},"Ǻ":{"ha":864,"x_min":0,"x_max":0,"o":"m 475 1209 b 463 1212 466 1206 465 1209 l 458 1219 b 465 1231 455 1225 458 1228 l 684 1336 b 701 1334 694 1340 697 1341 l 707 1324 b 704 1314 711 1319 712 1317 l 475 1209 m -35 0 b -43 11 -45 0 -47 5 l 487 968 b 414 1077 434 979 406 1016 b 545 1183 421 1137 474 1183 b 650 1074 615 1183 658 1136 b 544 968 643 1016 602 978 l 736 10 b 727 0 736 4 737 0 l 711 0 b 693 11 699 0 695 3 l 628 344 l 184 344 l -1 9 b -20 0 -4 2 -8 0 l -35 0 m 517 986 b 627 1076 573 986 621 1018 b 544 1159 632 1122 598 1159 b 437 1073 484 1159 442 1121 b 517 986 431 1019 460 986 m 620 380 l 521 892 b 515 951 518 911 516 929 l 513 951 b 485 891 506 934 496 913 l 203 380 "},"ǻ":{"ha":649,"x_min":0,"x_max":0,"o":"m 318 1109 b 323 1120 316 1115 318 1118 l 547 1185 b 562 1180 555 1187 558 1186 l 568 1172 b 563 1162 571 1167 569 1163 l 335 1099 b 321 1103 326 1097 324 1099 m 403 810 b 299 936 330 810 288 860 b 439 1061 312 1010 367 1061 b 537 936 509 1061 548 1012 b 403 810 526 861 473 810 m 405 835 b 513 938 460 835 503 875 b 439 1036 523 997 492 1036 b 324 934 380 1036 334 996 b 405 835 314 875 348 835 m 250 -20 b 30 154 85 -20 30 46 b 319 396 30 328 145 396 b 527 378 409 396 498 383 b 549 526 545 477 549 499 b 372 695 551 623 504 695 b 145 576 262 695 196 645 b 131 572 140 571 138 569 l 117 579 b 116 595 110 583 111 588 b 378 729 180 683 255 729 b 586 528 533 729 589 644 b 515 96 584 476 575 443 b 451 17 506 48 493 35 b 250 -20 395 -7 331 -20 m 254 13 b 432 45 321 13 378 24 b 478 102 465 58 472 66 l 522 346 b 314 364 493 351 403 364 b 68 158 161 364 68 299 b 254 13 68 63 117 13 "},"Ǽ":{"ha":1115,"x_min":0,"x_max":0,"o":"m 788 1072 b 791 1088 783 1078 786 1084 l 1009 1239 b 1027 1238 1017 1245 1021 1244 l 1034 1228 b 1032 1214 1039 1223 1038 1217 l 807 1064 b 793 1065 799 1059 796 1061 m -58 0 b -66 11 -68 0 -69 5 l 659 976 b 679 986 665 984 670 986 l 1091 986 b 1100 974 1099 986 1101 983 l 1097 959 b 1086 948 1095 951 1093 948 l 704 948 l 628 517 l 951 517 b 960 506 959 517 962 514 l 958 490 b 946 480 957 483 954 480 l 621 480 l 543 38 l 941 38 b 951 26 950 38 953 34 l 948 10 b 937 0 946 3 945 0 l 510 0 b 499 12 501 0 497 3 l 545 271 l 174 271 l -19 10 b -39 0 -24 2 -27 0 l -58 0 m 550 306 l 661 924 l 203 306 "},"ǽ":{"ha":1068,"x_min":0,"x_max":0,"o":"m 503 858 b 507 873 500 865 501 870 l 725 1025 b 742 1023 734 1030 737 1030 l 750 1014 b 748 1000 755 1008 754 1003 l 523 850 b 508 851 515 845 512 847 m 238 -20 b 30 182 102 -20 19 31 b 320 397 40 329 139 397 b 485 376 394 397 459 381 b 503 473 491 411 498 443 b 367 697 522 594 522 697 b 141 575 266 697 201 656 b 129 573 138 571 134 570 l 117 579 b 114 592 111 584 110 586 b 369 729 176 683 253 729 b 539 574 500 729 537 663 b 780 729 584 672 659 729 b 993 554 918 729 996 663 b 707 307 986 369 846 307 b 514 340 637 307 582 319 l 496 240 b 645 11 472 101 503 11 b 899 165 757 11 840 71 b 912 167 903 170 908 169 l 927 158 b 928 145 931 155 931 151 b 643 -20 866 53 777 -20 b 466 92 540 -20 487 23 b 238 -20 426 38 361 -20 m 705 338 b 955 554 897 338 955 456 b 778 698 955 634 910 698 b 533 447 629 698 560 601 l 520 371 b 705 338 588 352 640 338 m 241 13 b 455 131 383 13 437 101 b 462 243 452 161 455 203 l 480 345 b 317 365 453 350 389 365 b 67 184 163 365 78 305 b 241 13 55 54 132 13 "},"Ǿ":{"ha":907,"x_min":0,"x_max":0,"o":"m 450 1086 b 453 1102 445 1092 448 1098 l 671 1253 b 689 1251 679 1258 684 1258 l 697 1242 b 695 1228 702 1236 701 1231 l 470 1078 b 455 1079 462 1073 459 1075 m 24 -61 b 20 -55 19 -61 18 -59 l 123 77 b 82 320 77 136 64 218 l 142 667 b 542 1006 180 877 319 1006 b 769 925 646 1006 721 978 l 853 1035 b 864 1040 856 1040 858 1040 l 887 1040 b 891 1034 892 1040 893 1037 l 790 903 b 825 666 830 844 843 764 l 765 319 b 368 -20 728 106 591 -20 b 143 55 266 -20 192 8 l 59 -56 b 47 -61 55 -62 55 -61 l 24 -61 m 745 892 b 540 968 703 942 638 968 b 182 664 341 968 215 853 l 124 329 b 153 116 108 241 117 170 m 369 18 b 724 322 569 18 692 133 l 783 658 b 762 863 799 741 792 813 l 169 89 b 369 18 210 42 279 18 "},"ǿ":{"ha":738,"x_min":0,"x_max":0,"o":"m 341 823 b 345 839 338 830 339 835 l 563 990 b 580 988 572 995 575 995 l 588 979 b 586 965 593 973 592 968 l 361 815 b 346 816 353 810 350 812 m 23 -51 b 20 -45 18 -51 18 -47 l 94 48 b 54 218 58 89 42 147 l 104 494 b 407 729 130 641 249 729 b 579 676 481 729 540 711 l 645 761 b 654 764 648 764 650 764 l 674 764 b 677 758 678 764 679 762 l 599 658 b 634 492 632 618 646 560 l 585 216 b 280 -20 560 69 440 -20 b 115 31 209 -20 153 -2 l 55 -46 b 43 -51 51 -50 49 -51 l 23 -51 m 556 645 b 404 695 522 677 470 695 b 141 493 270 695 162 617 b 93 223 125 402 108 311 b 121 85 82 163 94 117 m 282 15 b 548 217 420 15 527 93 b 596 485 564 306 581 397 b 570 622 606 545 597 588 l 136 62 b 282 15 169 31 221 15 "},"Ș":{"ha":854,"x_min":0,"x_max":0,"o":"m 341 -20 b 38 220 169 -20 72 50 b 43 237 35 230 34 233 l 63 243 b 75 235 70 245 73 244 b 345 19 107 80 194 19 b 679 257 540 19 653 101 b 433 476 710 434 576 456 b 147 738 273 497 114 534 b 504 1006 173 905 309 1006 b 807 791 675 1006 765 943 b 802 777 811 784 810 779 l 783 771 b 770 777 776 769 773 769 b 502 966 732 911 654 966 b 186 736 331 966 211 880 b 443 513 156 561 296 533 b 720 257 604 492 754 460 b 341 -20 691 76 562 -20 m 241 -349 b 234 -338 233 -349 231 -346 l 331 -135 b 345 -125 333 -128 337 -125 l 360 -125 b 370 -137 370 -125 373 -130 l 268 -338 b 253 -349 264 -347 261 -349 l 241 -349 "},"ș":{"ha":674,"x_min":0,"x_max":0,"o":"m 265 -20 b 22 157 135 -20 44 27 b 26 171 20 165 20 169 l 45 177 b 57 170 52 179 55 177 b 267 14 76 56 156 14 b 499 190 416 14 499 73 b 322 336 499 286 435 319 b 101 520 205 355 97 384 b 367 729 104 672 205 730 b 592 576 511 728 576 671 b 589 563 593 569 594 565 l 574 558 b 561 564 564 554 563 558 b 365 695 543 645 489 694 b 136 521 223 697 140 645 b 331 368 133 409 228 385 b 537 190 458 348 537 312 b 265 -20 537 51 434 -20 m 150 -338 b 143 -327 142 -338 140 -335 l 240 -124 b 254 -114 242 -117 246 -114 l 269 -114 b 279 -126 279 -114 282 -119 l 177 -327 b 162 -338 173 -336 170 -338 l 150 -338 "},"ț":{"ha":456,"x_min":0,"x_max":0,"o":"m 328 0 b 136 260 151 -1 100 53 l 209 675 l 72 675 b 64 686 65 675 62 678 l 67 700 b 78 710 67 708 71 710 l 215 710 l 243 867 b 255 876 244 874 248 876 l 272 876 b 281 865 279 876 281 873 l 253 710 l 453 710 b 462 699 460 710 463 706 l 459 685 b 447 675 457 677 454 675 l 247 675 l 172 259 b 330 36 140 73 182 36 b 340 26 339 36 342 34 l 338 10 b 328 0 336 2 334 0 m 111 -338 b 104 -327 102 -338 100 -335 l 200 -124 b 214 -114 203 -117 206 -114 l 230 -114 b 239 -126 240 -114 243 -119 l 137 -327 b 122 -338 133 -336 131 -338 l 111 -338 "},"ȷ":{"ha":290,"x_min":0,"x_max":0,"o":"m -194 -319 b -204 -308 -203 -319 -206 -316 l -201 -293 b -193 -283 -201 -285 -199 -283 b 36 -16 -15 -283 6 -188 l 163 700 b 174 710 164 707 167 710 l 192 710 b 200 699 199 710 201 707 l 73 -18 b -194 -319 39 -212 8 -319 "},"ˆ":{"ha":504,"x_min":0,"x_max":0,"o":"m 122 815 b 117 825 113 815 111 820 l 313 986 b 335 995 325 994 326 995 l 342 995 b 361 986 351 995 353 995 l 499 824 b 493 815 503 819 503 815 l 475 815 b 459 822 465 815 463 816 l 336 966 l 160 821 b 141 815 154 816 150 815 l 122 815 "},"ˇ":{"ha":510,"x_min":0,"x_max":0,"o":"m 302 815 b 281 825 292 815 289 816 l 144 986 b 150 995 140 991 140 995 l 168 995 b 184 988 178 995 180 994 l 307 843 l 483 989 b 500 995 489 994 491 995 l 521 995 b 526 985 530 995 529 990 l 329 825 b 306 815 317 815 317 815 l 302 815 "},"˘":{"ha":397,"x_min":0,"x_max":0,"o":"m 252 822 b 96 981 153 822 107 871 b 101 991 95 987 97 990 l 117 995 b 127 986 124 996 126 994 b 254 854 137 894 172 854 b 428 991 336 854 388 894 b 438 995 431 996 433 996 l 456 990 b 458 978 461 989 462 986 b 252 822 415 871 349 822 "},"˙":{"ha":349,"x_min":0,"x_max":0,"o":"m 238 875 b 217 900 219 875 214 882 l 219 907 b 245 930 222 925 225 930 l 253 930 b 274 906 269 930 276 923 l 272 897 b 246 875 270 879 263 875 l 238 875 "},"˚":{"ha":357,"x_min":0,"x_max":0,"o":"m 233 760 b 129 886 160 760 118 810 b 269 1011 142 960 196 1011 b 367 886 339 1011 378 962 b 233 760 356 811 302 760 m 235 785 b 343 888 290 785 333 825 b 269 986 353 947 322 986 b 154 884 210 986 164 946 b 235 785 144 825 178 785 "},"˛":{"ha":399,"x_min":0,"x_max":0,"o":"m 48 -344 b -24 -280 11 -344 -18 -325 b 160 0 -34 -208 39 -109 l 197 0 b 11 -269 83 -104 5 -206 b 59 -312 14 -300 32 -312 b 152 -266 86 -312 117 -301 b 160 -269 155 -264 158 -265 l 165 -286 b 159 -297 167 -290 165 -292 b 48 -344 123 -330 84 -344 "},"˜":{"ha":422,"x_min":0,"x_max":0,"o":"m 95 838 b 87 851 89 838 86 841 b 199 972 99 923 131 972 b 368 867 290 972 299 867 b 453 965 414 867 445 909 b 461 972 453 970 455 972 l 475 972 b 481 960 481 972 483 969 b 371 838 469 889 432 838 b 201 943 283 838 272 943 b 116 845 149 943 125 903 b 108 838 114 841 114 838 l 95 838 "},"˝":{"ha":547,"x_min":0,"x_max":0,"o":"m 177 818 b 174 830 170 821 170 825 l 334 993 b 350 999 340 999 343 1001 l 364 994 b 368 981 372 991 373 986 l 201 820 b 185 814 194 814 191 811 m 390 818 b 387 830 383 821 383 825 l 547 993 b 563 999 553 999 556 1001 l 578 994 b 581 981 586 991 586 986 l 414 820 b 398 814 408 814 404 811 "},"̀":{"ha":0,"x_min":0,"x_max":0,"o":"m -269 1002 b -270 1016 -274 1005 -277 1010 l -259 1027 b -239 1025 -250 1034 -246 1031 l -77 874 b -74 858 -71 869 -68 863 l -81 852 b -97 852 -85 847 -90 848 "},"́":{"ha":0,"x_min":0,"x_max":0,"o":"m -197 858 b -194 873 -200 865 -199 870 l 25 1025 b 42 1023 33 1030 37 1030 l 50 1014 b 48 1000 55 1008 54 1003 l -177 850 b -192 851 -185 845 -188 847 "},"̂":{"ha":0,"x_min":0,"x_max":0,"o":"m -377 840 b -382 849 -386 840 -388 845 l -185 1011 b -164 1020 -174 1019 -173 1020 l -157 1020 b -138 1010 -148 1020 -145 1019 l 0 848 b -6 840 4 844 4 840 l -24 840 b -40 847 -33 840 -36 841 l -163 991 l -339 846 b -358 840 -345 841 -349 840 l -377 840 "},"̃":{"ha":0,"x_min":0,"x_max":0,"o":"m -323 863 b -330 876 -329 863 -332 866 b -219 997 -314 946 -287 997 b -49 892 -127 997 -119 892 b 35 990 -4 892 35 934 b 43 997 36 995 37 997 l 57 997 b 63 985 63 997 64 994 b -47 863 59 911 14 863 b -217 968 -134 863 -146 968 b -302 870 -269 968 -287 923 b -310 863 -303 865 -304 863 l -323 863 "},"̄":{"ha":0,"x_min":0,"x_max":0,"o":"m -350 910 b -360 921 -359 910 -360 915 l -358 931 b -345 941 -356 939 -352 941 l -41 941 b -31 930 -33 941 -29 939 l -33 920 b -44 910 -35 912 -37 910 l -350 910 "},"̆":{"ha":0,"x_min":0,"x_max":0,"o":"m -142 847 b -298 1006 -241 847 -295 896 b -293 1016 -299 1012 -297 1015 l -277 1020 b -267 1011 -270 1020 -268 1019 b -140 879 -265 919 -222 879 b 34 1015 -58 879 -12 921 b 44 1019 37 1020 39 1021 l 62 1015 b 64 1003 67 1014 68 1011 b -142 847 13 900 -44 847 "},"̇":{"ha":0,"x_min":0,"x_max":0,"o":"m -107 909 b -129 937 -127 909 -134 914 l -127 945 b -99 972 -122 965 -117 972 l -86 972 b -64 943 -66 972 -61 963 l -66 936 b -94 909 -71 915 -76 909 l -107 909 "},"̈":{"ha":0,"x_min":0,"x_max":0,"o":"m -380 907 b -402 935 -400 907 -407 913 l -401 942 b -371 969 -396 962 -391 969 l -364 969 b -341 940 -344 969 -338 960 l -343 934 b -373 907 -348 914 -353 907 l -380 907 m -145 907 b -168 935 -166 907 -173 913 l -167 942 b -137 969 -162 962 -156 969 l -130 969 b -107 940 -109 969 -103 960 l -108 934 b -138 907 -113 914 -119 907 l -145 907 "},"̊":{"ha":0,"x_min":0,"x_max":0,"o":"m -117 803 b -220 928 -191 803 -233 852 b -81 1053 -208 1003 -153 1053 b 18 928 -11 1053 29 1004 b -117 803 6 853 -47 803 m -115 827 b -7 930 -60 827 -17 867 b -81 1029 3 989 -28 1029 b -194 926 -139 1029 -184 986 b -115 827 -204 867 -172 827 "},"̋":{"ha":0,"x_min":0,"x_max":0,"o":"m -367 839 b -370 851 -374 843 -374 846 l -210 1014 b -194 1020 -204 1020 -201 1022 l -180 1015 b -176 1002 -171 1012 -171 1007 l -343 841 b -359 835 -349 835 -353 832 m -154 839 b -157 851 -161 843 -161 846 l 3 1014 b 19 1020 9 1020 12 1022 l 34 1015 b 37 1002 42 1012 42 1007 l -130 841 b -146 835 -136 835 -140 832 "},"̌":{"ha":0,"x_min":0,"x_max":0,"o":"m -204 839 b -225 850 -214 839 -217 841 l -362 1011 b -356 1020 -366 1015 -366 1020 l -338 1020 b -322 1013 -328 1020 -326 1019 l -199 868 l -23 1014 b -6 1020 -17 1019 -15 1020 l 15 1020 b 20 1010 24 1020 23 1014 l -177 850 b -200 839 -189 840 -189 839 l -204 839 "},"̧":{"ha":0,"x_min":0,"x_max":0,"o":"m -321 -339 b -416 -302 -372 -339 -402 -316 b -421 -288 -422 -297 -423 -294 l -419 -278 b -411 -274 -418 -273 -414 -271 b -322 -311 -392 -291 -365 -311 b -204 -213 -259 -311 -209 -284 b -274 -138 -201 -165 -226 -138 b -324 -145 -292 -138 -310 -141 b -336 -132 -334 -147 -340 -139 l -273 0 l -243 0 l -299 -118 b -254 -113 -288 -114 -270 -112 b -169 -214 -196 -114 -165 -153 b -321 -339 -176 -299 -238 -339 "},"̨":{"ha":0,"x_min":0,"x_max":0,"o":"m -351 -344 b -423 -280 -388 -344 -416 -325 b -239 0 -432 -208 -360 -109 l -202 0 b -387 -269 -316 -104 -394 -206 b -340 -312 -385 -300 -367 -312 b -247 -266 -312 -312 -282 -301 b -239 -269 -244 -264 -241 -265 l -233 -286 b -239 -297 -232 -290 -233 -292 b -351 -344 -276 -330 -315 -344 "},"π":{"ha":821,"x_min":0,"x_max":0,"o":"m 686 -1 b 671 4 678 -5 675 -4 b 628 200 636 64 628 115 l 628 675 l 255 675 l 255 10 b 246 0 255 3 253 0 l 228 0 b 218 10 220 0 218 3 l 218 675 b 62 626 151 674 117 661 b 46 628 55 622 51 621 l 39 642 b 44 656 36 648 37 652 b 238 710 106 698 159 710 l 765 710 b 775 700 772 710 775 707 l 775 686 b 765 675 775 678 772 675 l 665 675 l 665 199 b 705 22 665 120 670 75 b 701 6 709 15 708 10 l 686 -1 "},"Ё":{"ha":782,"x_min":0,"x_max":0,"o":"m 402 1120 b 381 1143 383 1120 378 1125 l 382 1152 b 410 1174 385 1169 390 1174 l 417 1174 b 437 1151 434 1174 439 1167 l 435 1142 b 409 1120 433 1124 426 1120 l 402 1120 m 639 1120 b 618 1143 620 1120 616 1125 l 620 1152 b 647 1174 622 1169 628 1174 l 654 1174 b 674 1151 671 1174 677 1167 l 673 1142 b 647 1120 670 1124 663 1120 l 639 1120 m 66 0 b 57 11 58 0 56 3 l 227 976 b 239 986 229 984 232 986 l 756 986 b 766 975 765 986 767 983 l 763 959 b 752 948 761 951 759 948 l 262 948 l 187 519 l 621 519 b 629 508 628 519 631 516 l 626 491 b 615 481 625 484 622 481 l 181 481 l 102 38 l 607 38 b 617 26 616 38 619 35 l 614 10 b 603 0 612 2 610 0 l 66 0 "},"А":{"ha":864,"x_min":0,"x_max":0,"o":"m -38 0 b -43 11 -45 0 -47 5 l 493 983 b 509 994 498 991 500 994 l 529 994 b 541 982 538 994 539 989 l 736 11 b 728 0 738 4 736 0 l 708 0 b 693 11 698 0 694 3 l 628 344 l 185 344 l -1 9 b -18 0 -5 2 -8 0 l -38 0 m 620 380 l 524 878 b 515 951 519 903 516 924 l 512 951 b 476 874 502 928 490 903 l 204 380 "},"Б":{"ha":858,"x_min":0,"x_max":0,"o":"m 66 0 b 57 11 58 0 56 4 l 227 976 b 239 986 229 984 232 986 l 792 986 b 801 975 801 986 802 983 l 799 959 b 788 948 797 951 795 948 l 262 948 l 191 541 l 497 541 b 748 327 673 541 751 474 b 418 0 745 136 619 0 l 66 0 m 415 37 b 708 323 606 37 706 172 b 490 505 711 449 641 505 l 185 505 l 102 37 "},"В":{"ha":879,"x_min":0,"x_max":0,"o":"m 67 0 b 57 12 58 0 56 3 l 227 976 b 238 986 229 983 231 986 l 573 986 b 801 796 727 986 801 920 b 612 508 801 660 741 551 l 610 506 b 748 321 688 488 748 427 b 427 0 748 131 624 0 l 67 0 m 514 522 b 761 789 669 522 761 637 b 568 949 762 893 700 949 l 263 949 l 188 522 m 423 37 b 708 321 599 37 708 157 b 524 486 708 429 640 486 l 181 486 l 102 37 "},"Г":{"ha":696,"x_min":0,"x_max":0,"o":"m 66 0 b 57 12 58 0 56 3 l 227 976 b 238 986 229 984 231 986 l 723 986 b 732 975 731 986 733 983 l 730 959 b 719 949 728 951 726 949 l 262 949 l 97 10 b 85 0 95 2 93 0 l 66 0 "},"Д":{"ha":949,"x_min":0,"x_max":0,"o":"m -73 -212 b -82 -201 -81 -212 -82 -209 l -41 27 b -30 38 -39 36 -37 38 l 30 38 b 294 697 101 84 200 169 l 343 976 b 354 986 344 983 346 986 l 866 986 b 875 974 874 986 876 983 l 710 38 l 801 38 b 811 26 810 38 813 34 l 771 -202 b 760 -212 770 -209 767 -212 l 740 -212 b 731 -201 732 -212 730 -209 l 766 0 l -7 0 l -42 -202 b -54 -212 -43 -210 -47 -212 l -73 -212 m 670 38 l 830 948 l 377 948 l 332 694 b 84 38 245 200 155 92 "},"Е":{"ha":782,"x_min":0,"x_max":0,"o":"m 66 0 b 57 11 58 0 56 3 l 227 976 b 239 986 229 984 232 986 l 756 986 b 766 975 765 986 767 983 l 763 959 b 752 948 761 951 759 948 l 262 948 l 187 519 l 621 519 b 629 508 628 519 631 516 l 626 491 b 615 481 625 484 622 481 l 181 481 l 102 38 l 607 38 b 617 26 616 38 619 35 l 614 10 b 603 0 612 2 610 0 l 66 0 "},"Ж":{"ha":1236,"x_min":0,"x_max":0,"o":"m -6 0 b -12 13 -15 0 -17 6 l 215 360 b 389 504 265 436 314 483 l 171 975 b 178 986 169 982 168 986 l 200 986 b 217 976 211 986 214 984 l 429 515 b 492 519 447 517 469 519 l 602 519 l 683 976 b 694 986 685 984 687 986 l 714 986 b 723 975 722 986 724 983 l 642 519 l 776 519 b 838 515 798 519 819 517 l 1213 977 b 1233 986 1218 984 1222 986 l 1254 986 b 1260 974 1264 986 1265 980 l 876 503 b 998 359 942 482 975 435 l 1103 12 b 1096 0 1105 5 1105 0 l 1078 0 b 1062 11 1066 0 1064 2 l 961 342 b 776 481 931 438 899 481 l 637 481 l 553 10 b 542 0 551 2 549 0 l 521 0 b 513 12 514 0 512 4 l 596 481 l 485 481 b 248 341 372 481 311 437 l 32 10 b 13 0 27 2 24 0 l -6 0 "},"З":{"ha":838,"x_min":0,"x_max":0,"o":"m 350 -20 b 38 233 138 -20 54 72 b 46 246 37 241 40 244 l 63 252 b 75 243 70 254 75 252 b 352 18 87 96 166 18 b 669 317 555 18 669 134 b 502 488 669 418 614 488 l 253 488 b 244 499 245 488 243 492 l 246 515 b 258 525 248 523 251 525 l 505 525 b 725 790 636 525 725 651 b 500 968 725 905 643 968 b 174 747 322 968 241 902 b 159 744 171 741 167 741 l 145 748 b 140 765 138 751 135 755 b 502 1006 207 923 301 1006 b 764 796 669 1006 764 930 b 586 507 764 663 701 549 b 709 323 665 487 709 413 b 350 -20 709 109 576 -20 "},"И":{"ha":950,"x_min":0,"x_max":0,"o":"m 69 0 b 59 11 61 0 59 3 l 227 976 b 238 986 229 984 230 986 l 259 986 b 267 974 268 986 268 983 l 157 338 b 104 63 139 245 124 156 l 107 63 b 303 313 173 148 236 230 l 847 980 b 859 986 848 982 852 986 l 879 986 b 890 975 887 986 890 983 l 722 10 b 711 0 720 3 718 0 l 690 0 b 682 11 683 0 681 3 l 798 670 b 847 925 812 755 830 839 l 845 925 b 663 694 782 845 724 769 l 102 7 b 89 0 97 0 95 0 l 69 0 "},"Й":{"ha":901,"x_min":0,"x_max":0,"o":"m 575 1100 b 412 1253 472 1100 424 1147 b 418 1263 411 1259 413 1262 l 435 1267 b 445 1258 441 1268 444 1266 b 576 1130 455 1170 492 1130 b 758 1263 662 1130 716 1169 b 769 1267 761 1267 763 1268 l 787 1262 b 790 1250 792 1261 794 1258 b 575 1100 744 1147 676 1100 m 69 0 b 59 11 61 0 59 3 l 227 976 b 238 986 229 984 230 986 l 259 986 b 267 974 268 986 268 983 l 157 338 b 104 63 139 245 124 156 l 107 63 b 303 313 173 148 236 230 l 847 980 b 859 986 848 982 852 986 l 879 986 b 890 975 887 986 890 983 l 722 10 b 711 0 720 3 718 0 l 690 0 b 682 11 683 0 681 3 l 798 670 b 847 925 812 755 830 839 l 845 925 b 663 694 782 845 724 769 l 102 7 b 89 0 97 0 95 0 l 69 0 "},"К":{"ha":818,"x_min":0,"x_max":0,"o":"m 67 0 b 57 11 58 0 56 3 l 227 976 b 239 986 229 984 232 986 l 258 986 b 267 975 266 986 268 983 l 187 519 l 368 519 b 403 517 381 519 394 519 l 788 977 b 809 986 794 985 797 986 l 830 986 b 837 974 841 986 841 980 l 444 509 b 580 359 523 494 556 443 l 678 12 b 671 0 680 4 680 0 l 651 0 b 635 11 640 0 638 3 l 543 344 b 373 481 518 438 482 481 l 181 481 l 97 10 b 86 0 95 2 93 0 l 67 0 "},"Л":{"ha":881,"x_min":0,"x_max":0,"o":"m -34 -18 b -48 -13 -42 -21 -45 -20 l -54 3 b -50 18 -58 10 -57 15 b 241 648 78 81 150 128 l 300 976 b 312 986 302 984 304 986 l 815 986 b 824 974 823 986 825 983 l 654 10 b 642 0 652 2 650 0 l 623 0 b 614 12 615 0 613 3 l 779 948 l 335 948 l 281 644 b -34 -18 181 81 94 43 "},"М":{"ha":1093,"x_min":0,"x_max":0,"o":"m 66 0 b 57 11 58 0 56 3 l 227 976 b 239 986 229 984 231 986 l 257 986 b 272 975 267 986 270 982 l 509 286 l 988 975 b 1007 986 994 983 997 986 l 1027 986 b 1036 974 1035 986 1037 983 l 865 10 b 854 0 864 2 862 0 l 836 0 b 826 11 829 0 825 2 l 947 696 b 991 916 960 768 973 840 l 989 916 b 864 731 946 852 907 792 l 527 249 b 512 239 523 242 519 239 l 499 239 b 484 250 491 239 487 242 l 315 739 b 255 917 293 797 274 855 l 252 917 b 217 694 242 841 230 767 l 96 10 b 85 0 94 2 92 0 l 66 0 "},"Н":{"ha":933,"x_min":0,"x_max":0,"o":"m 67 0 b 57 12 59 0 56 2 l 227 976 b 239 986 229 984 231 986 l 258 986 b 267 975 266 986 268 983 l 187 519 l 756 519 l 837 976 b 849 986 839 984 841 986 l 867 986 b 877 975 876 986 878 983 l 707 11 b 696 0 705 3 703 0 l 676 0 b 666 11 668 0 665 3 l 750 481 l 181 481 l 97 10 b 86 0 95 3 94 0 l 67 0 "},"О":{"ha":907,"x_min":0,"x_max":0,"o":"m 368 -20 b 82 321 142 -20 45 109 l 142 667 b 541 1006 180 877 317 1006 b 825 666 765 1006 861 880 l 765 319 b 368 -20 728 106 590 -20 m 368 18 b 724 322 563 18 690 127 l 785 666 b 541 968 818 858 736 968 b 182 665 343 968 215 853 l 122 320 b 368 18 89 131 173 18 "},"П":{"ha":925,"x_min":0,"x_max":0,"o":"m 66 0 b 57 12 58 0 56 3 l 227 976 b 239 986 229 984 231 986 l 858 986 b 867 974 866 986 868 983 l 697 10 b 685 0 695 2 693 0 l 666 0 b 657 12 658 0 656 3 l 822 948 l 262 948 l 97 10 b 85 0 95 2 93 0 l 66 0 "},"Р":{"ha":847,"x_min":0,"x_max":0,"o":"m 67 0 b 57 11 58 0 56 3 l 227 976 b 240 986 229 984 231 986 l 578 986 b 810 692 750 986 839 878 b 480 393 781 505 655 393 l 165 393 l 97 10 b 86 0 95 3 93 0 l 67 0 m 479 430 b 769 692 631 430 742 526 b 573 948 797 854 722 948 l 262 948 l 172 430 "},"С":{"ha":872,"x_min":0,"x_max":0,"o":"m 365 -20 b 82 321 143 -20 44 110 l 143 668 b 540 1006 180 877 316 1006 b 833 759 743 1006 819 920 b 826 747 835 752 833 749 l 808 742 b 795 751 801 740 796 742 b 538 968 780 895 715 968 b 183 668 337 968 215 853 l 121 318 b 369 19 89 134 172 19 b 708 248 552 19 642 102 b 724 252 711 255 715 255 l 740 246 b 745 229 747 244 749 240 b 365 -20 670 71 570 -20 "},"Т":{"ha":733,"x_min":0,"x_max":0,"o":"m 271 0 b 261 11 262 0 261 3 l 427 948 l 135 948 b 125 960 127 948 123 951 l 128 976 b 140 986 130 984 132 986 l 767 986 b 776 974 775 986 777 983 l 773 959 b 762 948 771 950 770 948 l 467 948 l 302 10 b 290 0 300 2 297 0 l 271 0 "},"У":{"ha":793,"x_min":0,"x_max":0,"o":"m 171 0 b 165 11 162 0 159 4 l 338 277 l 120 976 b 128 986 119 982 119 986 l 147 986 b 164 975 158 986 161 984 l 367 319 l 796 977 b 814 986 801 985 804 986 l 834 986 b 840 975 843 986 843 981 l 210 10 b 191 0 205 2 201 0 l 171 0 "},"Ф":{"ha":1132,"x_min":0,"x_max":0,"o":"m 466 -28 b 459 -17 458 -28 457 -24 l 477 90 l 385 90 b 95 444 156 90 58 224 l 114 551 b 528 903 151 770 291 903 l 620 903 l 639 1011 b 652 1021 641 1019 644 1021 l 671 1021 b 679 1009 679 1021 681 1017 l 660 903 l 755 903 b 1047 549 1000 903 1084 769 l 1029 442 b 612 90 991 223 842 90 l 517 90 l 497 -18 b 485 -28 497 -26 493 -28 l 466 -28 m 483 127 l 614 866 l 522 866 b 154 550 316 866 187 745 l 135 441 b 394 127 103 246 188 127 m 619 127 b 989 443 820 127 955 248 l 1007 552 b 750 866 1040 747 967 866 l 654 866 l 523 127 "},"Х":{"ha":819,"x_min":0,"x_max":0,"o":"m -34 0 b -37 15 -44 0 -44 7 l 384 501 l 141 976 b 148 986 140 982 140 986 l 173 986 b 188 976 183 986 185 984 l 414 533 l 798 977 b 816 986 803 985 806 986 l 842 986 b 848 975 850 986 852 980 l 437 502 l 686 14 b 679 0 691 6 690 0 l 657 0 b 641 11 647 0 644 2 l 406 469 l 10 10 b -10 0 5 2 -1 0 l -34 0 "},"Ц":{"ha":944,"x_min":0,"x_max":0,"o":"m 736 -212 b 726 -201 727 -212 725 -210 l 761 0 l 66 0 b 57 12 58 0 56 3 l 227 976 b 239 986 229 984 231 986 l 257 986 b 267 974 266 986 268 983 l 102 38 l 665 38 l 830 976 b 842 986 832 984 835 986 l 860 986 b 870 974 869 986 871 983 l 705 38 l 796 38 b 806 26 804 38 808 34 l 765 -202 b 754 -212 765 -210 762 -212 l 736 -212 "},"Ч":{"ha":851,"x_min":0,"x_max":0,"o":"m 593 0 b 584 11 585 0 583 3 l 656 416 b 382 380 609 405 519 380 b 125 722 147 380 86 506 l 169 976 b 181 986 171 984 174 986 l 200 986 b 210 974 208 986 210 983 l 164 721 b 387 419 130 522 182 419 b 663 456 522 419 618 444 l 754 976 b 766 986 756 984 759 986 l 785 986 b 795 975 793 986 795 983 l 624 11 b 613 0 622 3 621 0 l 593 0 "},"Ш":{"ha":1242,"x_min":0,"x_max":0,"o":"m 66 0 b 57 11 58 0 56 3 l 227 976 b 239 986 229 984 232 986 l 257 986 b 267 974 265 986 268 983 l 102 38 l 521 38 l 686 976 b 698 986 688 984 690 986 l 717 986 b 726 974 725 986 727 983 l 561 38 l 979 38 l 1145 976 b 1158 986 1147 984 1150 986 l 1176 986 b 1185 974 1184 986 1186 983 l 1014 10 b 1003 0 1013 3 1010 0 l 66 0 "},"Щ":{"ha":1268,"x_min":0,"x_max":0,"o":"m 1056 -212 b 1046 -201 1048 -212 1044 -210 l 1081 0 l 67 0 b 58 11 59 0 57 3 l 228 976 b 240 986 230 984 232 986 l 259 986 b 268 974 267 986 269 983 l 103 38 l 524 38 l 689 976 b 701 986 691 984 694 986 l 721 986 b 730 974 728 986 730 983 l 564 38 l 985 38 l 1150 976 b 1162 986 1152 984 1155 986 l 1181 986 b 1190 974 1189 986 1191 983 l 1025 38 l 1116 38 b 1126 26 1124 38 1128 34 l 1086 -202 b 1074 -212 1084 -210 1082 -212 l 1056 -212 "},"Ъ":{"ha":988,"x_min":0,"x_max":0,"o":"m 193 0 b 184 12 184 0 183 4 l 349 948 l 133 948 b 124 960 125 948 122 952 l 127 976 b 139 986 129 984 131 986 l 385 986 b 394 974 394 986 396 982 l 327 593 l 598 593 b 875 367 783 593 875 522 b 535 0 875 163 747 0 l 193 0 m 534 38 b 834 363 719 38 834 185 b 592 556 834 496 754 556 l 320 556 l 229 38 "},"Ы":{"ha":1142,"x_min":0,"x_max":0,"o":"m 66 0 b 57 12 57 0 56 4 l 227 976 b 239 986 229 984 231 986 l 258 986 b 267 974 267 986 268 982 l 200 593 l 471 593 b 748 367 656 593 748 522 b 408 0 748 163 621 0 l 66 0 m 883 0 b 874 11 876 0 873 3 l 1044 976 b 1056 986 1046 984 1049 986 l 1075 986 b 1085 975 1083 986 1085 984 l 914 10 b 904 0 912 3 910 0 l 883 0 m 408 38 b 707 363 592 38 707 185 b 465 556 707 496 628 556 l 193 556 l 102 38 "},"Ь":{"ha":847,"x_min":0,"x_max":0,"o":"m 66 0 b 57 12 57 0 56 4 l 227 976 b 239 986 229 984 232 986 l 258 986 b 267 974 267 986 268 982 l 200 593 l 471 593 b 748 367 656 593 748 522 b 408 0 748 163 621 0 l 66 0 m 408 38 b 707 363 592 38 707 185 b 465 556 707 496 627 556 l 193 556 l 102 38 "},"Э":{"ha":878,"x_min":0,"x_max":0,"o":"m 337 -20 b 44 227 134 -20 56 65 b 52 240 42 234 44 237 l 70 244 b 83 237 77 246 82 246 b 339 18 98 92 161 18 b 694 318 540 18 662 133 l 724 480 l 285 480 b 275 491 277 480 275 483 l 278 507 b 289 517 280 516 281 517 l 730 517 l 757 668 b 509 967 789 852 704 967 b 169 738 325 967 234 884 b 153 734 166 731 161 731 l 138 740 b 133 756 131 742 128 746 b 512 1006 207 914 307 1006 b 796 666 734 1006 834 876 l 734 318 b 337 -20 698 109 561 -20 "},"Ю":{"ha":1251,"x_min":0,"x_max":0,"o":"m 703 -20 b 417 321 477 -20 381 108 l 445 481 l 181 481 l 97 10 b 85 0 95 2 93 0 l 66 0 b 57 12 58 0 56 3 l 227 976 b 239 986 229 984 231 986 l 258 986 b 267 974 266 986 268 982 l 187 519 l 451 519 l 477 667 b 876 1006 515 879 654 1006 b 1160 665 1102 1006 1197 879 l 1100 319 b 703 -20 1063 106 925 -20 m 703 18 b 1060 322 899 18 1025 127 l 1120 666 b 876 968 1153 858 1071 968 b 517 664 678 968 551 853 l 457 320 b 703 18 424 130 509 18 "},"Я":{"ha":878,"x_min":0,"x_max":0,"o":"m 1 0 b -6 13 -8 0 -11 5 l 186 324 b 326 452 225 387 266 430 b 134 688 207 465 132 565 b 469 986 138 877 239 986 l 811 986 b 821 974 820 986 821 982 l 650 10 b 639 0 648 3 647 0 l 619 0 b 610 11 611 0 609 4 l 686 445 l 448 445 b 220 305 343 445 279 402 l 39 10 b 18 0 34 2 31 0 l 1 0 m 694 483 l 775 948 l 469 948 b 176 691 266 948 180 853 b 361 483 174 580 247 483 "},"а":{"ha":697,"x_min":0,"x_max":0,"o":"m 250 -20 b 30 154 85 -20 30 46 b 319 396 30 328 145 396 b 527 378 409 396 498 383 b 549 526 545 477 549 499 b 372 695 551 623 504 695 b 145 576 262 695 196 645 b 131 572 140 571 138 569 l 117 579 b 116 595 110 583 111 588 b 378 729 180 683 255 729 b 586 528 533 729 589 644 b 515 96 584 476 575 443 b 451 17 506 48 493 35 b 250 -20 395 -7 331 -20 m 254 13 b 432 45 321 13 378 24 b 478 102 465 58 472 66 l 522 346 b 314 364 493 351 403 364 b 68 158 161 364 68 299 b 254 13 68 63 117 13 "},"б":{"ha":758,"x_min":0,"x_max":0,"o":"m 301 -20 b 76 244 121 -20 46 81 l 139 602 b 548 1019 194 908 289 1019 l 596 1019 b 706 1040 641 1019 682 1025 b 719 1033 713 1043 717 1042 l 723 1018 b 716 1004 724 1010 723 1009 b 595 983 690 991 643 983 l 546 983 b 175 605 315 983 231 886 l 167 567 b 437 703 209 612 299 703 b 648 438 615 703 676 600 l 614 242 b 301 -20 585 79 479 -20 m 302 15 b 577 244 458 15 552 102 l 611 438 b 427 668 636 584 587 668 b 161 514 284 668 197 561 l 113 242 b 302 15 88 99 154 15 "},"в":{"ha":731,"x_min":0,"x_max":0,"o":"m 289 -20 b 98 18 216 -20 145 -5 b 58 102 59 38 50 55 l 147 605 b 220 695 155 651 174 674 b 408 729 271 718 339 729 b 627 534 572 729 646 662 b 490 370 613 451 561 390 b 589 188 565 348 605 291 b 289 -20 568 54 461 -20 m 422 383 b 591 534 511 383 576 441 b 403 698 609 646 544 698 b 235 665 338 698 276 685 b 183 598 203 650 189 631 l 145 383 m 292 11 b 554 191 439 11 535 75 b 421 354 572 298 517 354 l 141 354 l 97 115 b 126 44 90 75 94 61 b 292 11 167 24 233 11 "},"г":{"ha":693,"x_min":0,"x_max":0,"o":"m 266 -20 b 52 135 124 -20 52 33 b 338 372 53 302 161 354 b 578 564 490 388 578 418 b 407 697 578 655 515 697 b 161 549 294 697 223 652 b 149 546 159 545 155 542 l 135 554 b 135 572 128 558 130 565 b 411 729 192 671 280 729 b 613 568 539 729 613 676 b 341 342 613 396 510 359 b 89 140 187 328 89 280 b 266 13 89 55 149 13 b 529 165 393 13 478 62 b 544 175 534 176 538 178 l 558 170 b 557 146 565 166 562 156 b 266 -20 499 33 404 -20 "},"д":{"ha":779,"x_min":0,"x_max":0,"o":"m 301 -20 b 75 240 120 -20 46 78 l 111 442 b 417 700 141 603 240 700 b 633 550 536 700 617 640 b 292 996 692 888 600 993 b 282 1006 282 996 280 999 l 284 1020 b 293 1028 286 1027 287 1028 b 668 558 637 1028 727 894 l 611 239 b 301 -20 583 77 470 -20 m 299 14 b 574 239 445 14 548 91 l 611 442 b 420 668 636 581 554 668 b 148 441 266 668 173 582 l 112 239 b 299 14 87 97 148 14 "},"е":{"ha":715,"x_min":0,"x_max":0,"o":"m 403 729 b 627 519 565 729 649 658 b 326 307 606 380 499 307 b 106 323 243 307 181 311 l 92 243 b 268 11 66 99 122 11 b 531 165 395 11 476 76 b 544 167 535 169 539 169 l 557 159 b 560 145 563 156 563 152 b 267 -20 498 54 413 -20 b 54 241 94 -20 28 81 b 89 444 64 304 76 368 b 403 729 120 624 234 729 m 590 520 b 400 698 609 639 538 698 b 128 446 258 698 156 606 l 112 354 b 324 338 187 341 259 338 b 590 520 469 338 568 395 "},"ж":{"ha":1015,"x_min":0,"x_max":0,"o":"m -34 0 b -38 13 -42 0 -42 6 l 128 270 b 254 374 164 326 202 360 l 93 698 b 101 710 91 706 90 710 l 117 710 b 135 700 128 710 132 709 l 292 382 b 325 383 302 383 313 383 l 454 383 l 511 701 b 522 710 513 709 515 710 l 539 710 b 547 698 547 710 549 705 l 492 383 l 622 383 b 656 382 632 383 646 383 l 923 701 b 941 710 931 710 932 710 l 961 710 b 967 697 972 710 974 705 l 690 372 b 778 266 735 359 760 326 l 852 9 b 846 0 855 3 855 0 l 828 0 b 814 10 817 0 817 4 l 742 253 b 621 349 723 318 698 349 l 486 349 l 426 9 b 414 0 424 1 421 0 l 397 0 b 389 13 390 0 387 5 l 449 349 l 318 349 b 159 250 238 349 201 316 l 2 7 b -13 0 -1 0 -4 0 l -34 0 "},"з":{"ha":703,"x_min":0,"x_max":0,"o":"m 279 -20 b 21 177 58 -20 26 145 b 28 191 21 185 21 190 l 44 195 b 54 185 50 195 52 195 b 278 14 60 160 82 14 b 527 223 427 14 527 96 b 381 348 527 308 482 348 l 237 348 b 229 360 229 348 228 352 l 232 371 b 242 381 234 380 236 381 l 385 381 b 573 553 499 381 573 458 b 394 696 573 636 515 696 b 126 533 197 696 129 540 b 112 527 122 526 118 525 l 100 532 b 94 547 92 535 91 540 b 395 729 100 558 175 729 b 609 558 539 729 609 662 b 464 366 609 471 560 398 l 464 364 b 562 220 527 352 562 300 b 279 -20 562 68 443 -20 "},"и":{"ha":750,"x_min":0,"x_max":0,"o":"m 271 -20 b 77 247 103 -20 48 80 l 157 700 b 168 710 157 708 161 710 l 185 710 b 194 699 193 710 195 706 l 114 247 b 275 16 87 96 134 16 b 482 56 369 16 439 35 b 522 109 511 70 518 85 l 627 700 b 638 710 628 707 631 710 l 655 710 b 664 699 662 710 665 706 l 558 100 b 500 25 551 58 540 42 b 271 -20 450 3 383 -20 "},"й":{"ha":750,"x_min":0,"x_max":0,"o":"m 432 810 b 276 969 333 810 287 859 b 281 979 275 974 277 978 l 297 983 b 307 974 304 983 306 981 b 434 842 317 882 352 842 b 608 978 516 842 568 881 b 618 982 611 983 613 983 l 636 978 b 638 965 641 977 642 973 b 432 810 595 859 529 810 m 271 -20 b 77 247 103 -20 48 80 l 157 700 b 168 710 157 708 161 710 l 185 710 b 194 699 193 710 195 706 l 114 247 b 275 16 87 96 134 16 b 482 56 369 16 439 35 b 522 109 511 70 518 85 l 627 700 b 638 710 628 707 631 710 l 655 710 b 664 699 662 710 665 706 l 558 100 b 500 25 551 58 540 42 b 271 -20 450 3 383 -20 "},"к":{"ha":704,"x_min":0,"x_max":0,"o":"m 50 0 b 42 11 43 0 41 3 l 164 700 b 175 710 164 708 168 710 l 192 710 b 201 699 199 710 202 707 l 145 383 l 336 383 l 351 383 l 630 701 b 651 710 638 710 641 710 l 668 710 b 674 697 679 710 680 704 l 389 377 b 490 267 447 366 473 330 l 560 11 b 554 0 561 4 562 0 l 538 0 b 522 9 526 0 524 3 l 456 252 b 336 349 437 324 403 349 l 139 349 l 79 10 b 68 0 77 2 75 0 l 50 0 "},"л":{"ha":733,"x_min":0,"x_max":0,"o":"m -39 -19 b -50 -14 -46 -22 -47 -19 l -56 2 b -55 14 -59 7 -59 12 b 166 452 18 48 101 90 l 209 700 b 220 710 210 707 213 710 l 634 710 b 643 699 642 710 644 706 l 521 10 b 510 0 519 2 516 0 l 492 0 b 483 11 485 0 483 3 l 601 674 l 241 674 l 202 450 b -39 -19 138 90 53 23 "},"м":{"ha":879,"x_min":0,"x_max":0,"o":"m 51 0 b 41 12 43 0 41 3 l 164 699 b 176 710 164 708 168 710 l 194 710 b 208 699 202 710 206 707 l 385 173 l 744 700 b 759 710 750 708 751 710 l 779 710 b 787 697 788 710 789 706 l 667 11 b 655 0 665 2 662 0 l 641 0 b 630 12 632 0 628 3 l 716 496 b 747 646 724 544 734 595 l 745 646 b 662 521 716 602 689 562 l 400 140 b 384 130 396 132 393 130 l 376 130 b 362 141 366 130 365 133 l 233 513 b 190 647 218 557 206 601 l 187 647 b 161 482 179 591 171 538 l 78 11 b 67 0 76 2 74 0 l 51 0 "},"н":{"ha":767,"x_min":0,"x_max":0,"o":"m 50 0 b 41 11 44 0 41 3 l 164 700 b 175 710 164 708 168 710 l 192 710 b 201 699 199 710 202 706 l 145 383 l 583 383 l 640 700 b 651 710 640 707 643 710 l 668 710 b 677 699 675 710 678 706 l 555 10 b 544 0 553 2 551 0 l 526 0 b 518 11 519 0 517 3 l 577 349 l 139 349 l 79 10 b 68 0 77 2 74 0 l 50 0 "},"о":{"ha":738,"x_min":0,"x_max":0,"o":"m 280 -20 b 54 218 120 -20 29 71 l 104 494 b 406 729 131 646 243 729 b 634 492 567 729 659 636 l 585 216 b 280 -20 560 69 439 -20 m 281 15 b 548 217 420 15 526 92 l 598 495 b 403 695 620 618 538 695 b 141 493 264 695 162 617 l 92 215 b 281 15 69 92 149 15 "},"п":{"ha":750,"x_min":0,"x_max":0,"o":"m 46 0 b 38 11 40 0 37 3 l 144 610 b 202 685 151 651 164 668 b 430 729 252 706 325 729 b 625 463 598 729 654 632 l 545 10 b 534 0 543 3 541 0 l 517 0 b 508 11 509 0 507 3 l 587 463 b 425 695 614 612 567 695 b 221 654 337 695 263 674 b 180 602 190 640 184 625 l 75 10 b 64 0 73 3 71 0 l 46 0 "},"р":{"ha":733,"x_min":0,"x_max":0,"o":"m -8 -306 b -17 -295 -15 -306 -17 -302 l 143 613 b 204 689 152 658 162 671 b 411 729 254 710 325 729 b 624 452 591 729 656 632 l 587 244 b 306 -20 558 80 469 -20 b 81 43 191 -20 110 25 l 21 -296 b 10 -306 20 -302 17 -306 l -8 -306 m 306 16 b 550 246 448 16 525 99 l 587 452 b 408 695 614 613 560 695 b 225 659 330 695 264 676 b 180 605 192 644 186 638 l 88 82 b 306 16 116 62 197 16 "},"с":{"ha":706,"x_min":0,"x_max":0,"o":"m 276 -20 b 58 247 103 -20 28 81 l 96 465 b 401 729 125 630 227 729 b 628 535 557 729 616 659 b 621 523 628 527 627 525 l 605 518 b 594 525 597 515 595 518 b 401 694 581 642 532 694 b 132 464 249 694 158 606 l 94 245 b 278 15 69 105 129 15 b 535 191 405 15 468 72 b 548 198 540 200 540 201 l 565 193 b 569 176 571 191 573 187 b 276 -20 501 43 421 -20 "},"т":{"ha":1143,"x_min":0,"x_max":0,"o":"m 47 0 b 38 11 40 0 36 3 l 144 610 b 204 688 151 651 166 670 b 401 729 250 710 317 729 b 579 654 497 729 553 704 b 828 729 627 684 695 729 b 1018 472 991 729 1047 639 l 937 10 b 925 0 935 2 933 0 l 909 0 b 900 11 901 0 898 3 l 981 471 b 823 695 1007 622 962 695 b 594 621 705 695 642 654 b 595 488 605 589 604 542 l 510 10 b 499 0 508 2 506 0 l 483 0 b 473 11 474 0 473 4 l 558 487 b 396 695 584 638 533 695 b 220 657 319 695 269 681 b 180 601 190 642 184 624 l 75 10 b 63 0 73 2 70 0 l 47 0 "},"у":{"ha":754,"x_min":0,"x_max":0,"o":"m 221 -357 b 10 -193 90 -357 34 -290 b 14 -179 8 -187 7 -182 l 29 -171 b 41 -176 35 -168 39 -170 b 222 -321 65 -260 108 -321 b 494 -59 383 -321 464 -220 l 511 37 b 270 -15 462 18 386 -15 b 78 251 103 -15 48 85 l 157 700 b 168 710 157 708 161 710 l 185 710 b 194 699 192 710 195 707 l 115 252 b 276 19 87 101 134 19 b 515 72 388 19 470 53 l 627 700 b 638 710 628 708 632 710 l 655 710 b 664 699 663 710 665 707 l 530 -58 b 221 -357 498 -240 408 -357 "},"ф":{"ha":1017,"x_min":0,"x_max":0,"o":"m 360 -306 b 351 -295 353 -306 350 -303 l 402 -11 b 285 -20 362 -16 324 -20 b 57 255 157 -20 16 20 l 91 444 b 412 729 132 681 275 729 b 529 720 455 729 492 725 l 582 1018 b 594 1028 584 1025 586 1028 l 611 1028 b 620 1017 618 1028 622 1025 l 567 720 b 686 729 607 726 647 729 b 909 456 808 729 949 689 l 874 254 b 555 -20 833 20 675 -20 b 440 -10 512 -20 478 -16 l 388 -296 b 377 -306 388 -303 384 -306 l 360 -306 m 287 16 b 407 24 329 16 364 19 l 525 686 b 407 694 483 691 448 694 b 128 443 300 694 165 658 l 94 253 b 287 16 57 43 187 16 m 561 16 b 836 255 653 16 799 43 l 873 457 b 682 694 909 668 785 694 b 563 686 640 694 603 691 l 444 24 b 561 16 482 19 521 16 "},"х":{"ha":646,"x_min":0,"x_max":0,"o":"m -30 0 b -35 11 -38 0 -41 4 l 277 364 l 99 700 b 107 710 96 706 97 710 l 125 710 b 140 701 134 710 138 708 l 304 392 l 576 702 b 591 710 581 709 582 710 l 614 710 b 620 699 622 710 625 706 l 328 366 l 512 9 b 507 0 514 3 515 0 l 485 0 b 470 9 476 0 473 2 l 300 337 l 9 8 b -9 0 4 1 1 0 l -30 0 "},"ц":{"ha":769,"x_min":0,"x_max":0,"o":"m 594 -193 b 587 -183 587 -193 585 -189 l 611 -42 b 553 30 618 0 609 37 b 278 -20 475 20 405 -20 b 77 245 97 -20 48 78 l 158 700 b 169 710 159 707 162 710 l 188 710 b 197 699 195 710 197 706 l 117 249 b 282 15 89 97 133 15 b 523 61 384 15 456 45 l 637 700 b 647 710 637 706 640 710 l 667 710 b 676 700 673 710 676 707 l 562 64 b 650 -27 615 70 665 55 l 623 -183 b 611 -193 621 -190 618 -193 l 594 -193 "},"ч":{"ha":690,"x_min":0,"x_max":0,"o":"m 450 0 b 441 11 443 0 439 3 l 494 311 b 286 274 462 300 379 274 b 82 515 115 274 53 348 l 115 700 b 126 710 116 708 119 710 l 144 710 b 152 699 151 710 153 707 l 120 514 b 292 309 93 368 144 309 b 500 348 381 309 456 332 l 564 701 b 574 710 565 708 567 710 l 592 710 b 601 699 599 710 602 706 l 478 10 b 468 0 477 3 475 0 l 450 0 "},"ш":{"ha":1108,"x_min":0,"x_max":0,"o":"m 257 -20 b 76 238 102 -20 47 70 l 158 700 b 169 710 159 707 162 710 l 188 710 b 197 700 195 710 197 706 l 115 237 b 263 15 90 92 131 15 b 484 80 373 15 455 62 b 477 233 470 111 465 168 l 559 700 b 570 710 560 707 563 710 l 589 710 b 598 699 595 710 599 707 l 515 234 b 670 15 488 82 538 15 b 838 51 742 15 791 28 b 881 114 871 66 876 89 l 984 700 b 995 710 985 707 988 710 l 1014 710 b 1023 700 1020 710 1024 706 l 917 102 b 858 19 910 60 899 39 b 664 -20 812 -2 745 -20 b 501 48 587 -20 532 3 b 257 -20 474 32 383 -20 "},"щ":{"ha":1121,"x_min":0,"x_max":0,"o":"m 944 -193 b 936 -183 937 -193 935 -189 l 961 -41 b 903 30 967 -1 957 36 b 666 -20 829 23 767 -20 b 502 48 588 -20 533 3 b 256 -20 476 34 384 -20 b 76 238 100 -20 47 71 l 158 700 b 169 710 158 707 161 710 l 188 710 b 197 700 195 710 199 706 l 115 237 b 261 15 88 84 133 15 b 484 79 372 15 454 62 b 478 233 468 118 466 167 l 560 700 b 571 710 561 707 565 710 l 589 710 b 598 700 595 710 599 706 l 515 233 b 671 15 487 80 540 15 b 872 60 758 15 797 42 l 985 700 b 997 710 987 707 990 710 l 1014 710 b 1023 700 1019 710 1025 707 l 909 63 b 1001 -26 964 70 1013 51 l 974 -184 b 962 -193 972 -191 969 -193 l 944 -193 "},"ъ":{"ha":838,"x_min":0,"x_max":0,"o":"m 403 -20 b 213 20 319 -20 253 1 b 174 95 175 39 166 50 l 277 677 l 85 677 b 78 687 80 677 76 679 l 80 701 b 90 710 82 709 86 710 l 312 710 b 320 700 318 710 321 706 l 271 428 b 510 481 347 459 422 481 b 708 242 657 481 733 395 b 403 -20 681 64 581 -20 m 408 14 b 670 242 562 14 645 87 b 504 450 692 372 636 450 b 266 394 415 450 339 426 l 215 107 b 240 49 209 73 210 65 b 408 14 275 32 332 14 "},"ы":{"ha":950,"x_min":0,"x_max":0,"o":"m 283 -20 b 93 20 199 -20 134 1 b 54 95 55 39 46 50 l 162 700 b 172 710 163 707 166 710 l 192 710 b 201 700 199 710 201 706 l 152 428 b 391 481 228 459 303 481 b 588 242 538 481 613 395 b 283 -20 561 64 461 -20 m 710 0 b 701 11 703 0 701 3 l 823 700 b 834 710 824 708 828 710 l 852 710 b 861 699 859 710 862 707 l 738 10 b 728 0 737 2 734 0 l 710 0 m 289 14 b 550 242 443 14 525 87 b 385 450 573 372 511 450 b 146 394 296 450 219 426 l 96 107 b 122 49 90 73 92 65 b 289 14 156 32 212 14 "},"ь":{"ha":706,"x_min":0,"x_max":0,"o":"m 283 -20 b 93 20 199 -20 134 1 b 54 95 55 39 46 50 l 162 700 b 172 710 163 707 166 710 l 192 710 b 201 700 199 710 201 706 l 151 428 b 391 481 228 459 303 481 b 588 242 538 481 613 395 b 283 -20 561 64 461 -20 m 289 14 b 550 242 443 14 525 87 b 385 450 573 372 516 450 b 146 394 296 450 219 426 l 96 107 b 121 49 90 73 91 65 b 289 14 155 32 212 14 "}}}
